<svg width="673" height="175" viewBox="0 0 673 175" fill="none" xmlns="http://www.w3.org/2000/svg">
<path fill-rule="evenodd" clip-rule="evenodd" d="M625.338 78.7279C624.951 77.1419 623.993 75.8974 622.872 74.7346C623.273 76.3224 624.081 77.6811 625.338 78.7279ZM626.744 68.0735C626.246 69.6012 629.627 71.9199 629.185 71.3656C628.122 70.4146 627.983 68.9114 626.744 68.0735ZM635.185 61.8539C637.844 63.993 638.344 67.4173 643.256 68.2379L643.191 69.8749C645.009 70.4904 646.323 71.1167 649.297 71.6747C647.797 68.4124 656.586 69.4244 659.742 69.7291L658.722 69.0405C660.465 68.2383 664.763 69.1687 665.937 67.9733C651.413 69.8229 648.706 62.5624 639.381 60.3597C638.771 61.3628 638.055 62.3477 635.185 61.8539V61.8539ZM631.246 55.8848C632.213 57.2358 635.476 57.2163 636.334 58.6357C634.289 59.0463 629.66 59.442 629.543 60.0342C635.39 59.0224 642.014 58.4747 648.662 59.6558C650.84 59.9138 643.087 58.5175 642.569 57.2074C639.791 57.3881 638.344 56.4218 636.398 57.0229C635.326 56.3016 633.351 54.9782 631.246 55.8848ZM620.57 113.238C618.178 115.05 617.834 111.364 613.909 112.058C617.73 111.315 619.545 112.013 621.126 112.932C622.838 112.219 619.284 111.905 620.156 110.638L621.667 111.33C621.629 110.272 620.319 109.228 622.79 109.416C617.7 108.075 618.064 103.595 615.274 101.742L617.934 99.8579C615.878 98.2411 613.744 98.5599 611.813 97.0977C611.102 98.64 614.772 98.6967 613.299 99.7333C611.724 99.6782 611.559 98.8219 610.214 98.6494C610.754 97.076 610.514 96.0927 609.31 95.3802C610.653 93.95 613.746 94.8272 616.552 94.9607L613.982 94.2411C614.413 93.0659 615.649 94.3305 617.61 94.0278L618.036 96.3092C619.688 96.7623 618.475 95.2698 620.141 95.7234C622.878 97.9027 624.188 101.963 628.688 102.149C630.241 103.754 629.635 105.337 630.097 107.055C628.67 107.245 629.077 106.359 628.043 106.355C626.518 107.024 630.148 107.423 629.503 108.655C631.259 108.815 631.525 109.793 632.02 110.678C630.643 110.31 629.564 109.782 629.503 108.655C626.756 108.047 623.806 107.558 621.847 106.466C622.751 107.746 625.731 107.812 625.346 109.823C627.621 109.965 629.067 110.612 631.491 110.665C633.192 111.893 631.919 114.875 634.436 115.609C629.378 117.441 622.108 116.906 620.57 113.238V113.238ZM629.131 119.979C628.543 118.762 627.224 117.93 625.632 117.292C629.675 116.314 632.477 118.198 632.772 119.774C631.566 120.425 630.95 119.574 629.131 119.979V119.979ZM604.769 60.2615C606.956 60.6029 607.367 58.9349 608.436 58.7309C612.349 58.0228 615.793 60.1038 617.615 62.285C613.673 61.3919 608.44 61.2946 604.769 60.2615ZM604.371 66.2724C603.486 66.1924 599.756 66.9679 596.819 66.8215C597.978 65.9949 602.851 65.155 604.371 66.2724L604.565 66.3837L604.371 66.2724ZM585.587 124.785L590.223 125.573C588.981 125.128 586.653 125.326 585.587 124.785ZM474.989 49.326C473.144 49.3867 474.351 48.7128 475.559 48.9987L478.127 48.7584C488.549 48.7198 502.154 47.9889 514.815 48.3284C502.938 49.6125 488.557 49.1968 474.989 49.326ZM264.08 142.738C269.335 141.63 274.382 142.397 281.198 142.355C276.494 142.964 268.805 143.283 264.08 142.738ZM145.111 142.982C175.82 140.532 215.926 141.803 252.747 142.018C255.557 142.034 258.212 141.61 261.008 141.991C223.988 143.452 183.948 142.823 145.111 142.982V142.982ZM281.687 55.5204C235.379 56.4989 188.07 55.9857 141.206 55.9593C184.503 53.0053 232.694 55.0143 281.687 55.5204ZM120.252 142.663C123.901 141.587 129.652 141.987 134.811 141.939C131.318 143.773 125.042 142.25 120.252 142.663ZM657.158 116.633C653.049 116.603 647.082 113.64 650.585 112.245C648.407 112.008 647.219 111.194 645.976 110.466C647.348 110.297 649.199 110.417 650.12 109.938C648.027 109.556 645.134 110.306 644.452 109.773L642.503 107.109C640.804 106.506 640.72 107.27 638.875 107.323C637.26 101.946 632.526 100.313 631.513 94.7809C625.381 93.9641 620.56 90.1977 622.462 87.3738C619.546 87.0276 620.582 85.9813 619.453 85.0188C624.571 84.0163 626.991 88.8219 630.764 86.6475C627.212 84.6071 624.245 82.209 619.569 80.7933C621.676 79.1571 624.545 81.3354 627.379 79.7486C623.37 79.8879 620.452 78.2522 623.311 77.0319C620.766 75.6858 619.567 71.5192 618.367 71.3603C618.809 71.236 613.712 69.0586 613.833 67.0136L615.383 67.3883L613.936 64.426C621.456 64.0405 627.806 66.0506 632.992 65.9889C629.482 65.5743 627.917 64.924 628.434 63.2539C622.959 64.2422 620.097 59.5315 618.26 58.3989C622.682 58.2109 625.805 59.6923 628.033 59.0207L627.038 58.3472L630.653 58.4695C630.136 57.7921 627.08 56.9637 628.136 56.4332C629.404 56.5425 630.648 56.592 630.756 55.8806C629.556 55.7293 628.781 55.862 628.148 56.1129C627.755 54.6736 625.835 53.9556 627.721 52.8626L625.707 51.5083L627.243 51.8749C626.173 51.1243 625.686 50.0327 624.222 49.5118L625.784 49.2316C623.299 47.3895 614.163 47.0997 612.951 46.5594C604.677 42.9302 585.774 45.2175 572.816 42.6962C586.942 39.5133 600.69 42.1975 616.734 42.7995C615.784 40.6913 611.574 40.5237 609.593 38.9994C611.392 39.1158 612.055 38.4471 613.259 38.1628C608.203 36.6323 601.339 36.2182 596.321 34.7021C607.229 32.7852 623.231 31.4418 630.312 37.0656C630.98 36.2744 631.879 35.6711 632.972 35.2035L638.096 35.3566C634.774 32.5533 627.272 32.1778 623.366 29.7219L621.778 29.9909C616.651 26.2467 603.527 25.5452 595.029 27.2131C588.227 25.907 580.955 22.7419 572.978 22.9736C559.722 23.2763 544.219 26.3776 527.357 27.674C497.61 29.9396 465.433 31.6357 433.278 31.7606C416.969 31.8254 397.293 32.8602 381.631 31.9986C352.818 30.4318 322.047 32.7678 294.319 33.2659C265.754 33.8048 232.975 31.3209 205.594 32.0858C170.66 33.0994 134.45 28.8559 101.882 33.0347C101.277 34.9249 101.995 36.1893 100.114 38.1565C94.7566 39.1879 90.9656 37.8432 87.6752 39.9038C85.5937 41.2369 86.5995 42.9434 83.9201 43.643L81.869 44.217C83.6215 45.4855 85.9137 46.5161 86.8242 48.2878L91.9331 48.8325L90.3718 50.0828C91.5457 50.2344 92.2582 50.6576 93.9464 50.5459C95.3855 54.3566 104.653 53.6752 106.051 57.5149C99.1641 57.6738 92.5365 57.9836 87.8946 59.6901C89.2071 59.6912 90.3987 59.7311 90.4496 60.4488C88.6298 61.5367 90.0623 62.5189 90.2943 64.017C81.1976 64.401 69.7387 63.1766 64.397 66.1459C59.9452 66.7417 53.2876 65.8069 51.4167 68.1758L55.4679 69.6483C53.4711 73.1815 56.4652 75.5577 60.3193 77.3201C58.9282 77.2954 57.828 77.9596 58.7195 78.5446C59.596 79.8383 62.9561 79.6909 63.2225 81.3245C57.458 81.5933 59.3611 86.4001 58.7832 88.9253C56.6019 90.4333 51.2988 89.7747 48.8605 91.0783C53.0892 91.0895 56.1364 91.8064 59.1447 92.5013C58.1373 93.1615 55.338 92.5426 54.4342 93.267L57.5313 94.06C49.8326 94.9598 38.3097 95.0145 32.0477 95.7938C34.3952 96.1033 36.0946 96.0381 37.2215 96.3718L33.0018 97.1353C36.0556 97.0193 38.0665 97.4573 37.5686 99.3058C35.97 99.168 34.4737 99.1237 33.9444 99.7659C36.2117 99.759 37.9368 100.051 39.0788 100.671C39.123 101.223 36.0902 101.81 38.4981 101.936C39.0781 104.015 48.9254 101.427 49.2847 104.391C44.8026 105.747 40.8638 107.446 33.5941 106.894L33.0267 107.826C25.7405 108.355 17.5134 108.208 9.44056 108.183C8.53743 110.553 0.676829 109.532 1.73588 112.234C8.59299 111.493 17.9434 109.393 28.2267 110.839C29.7742 112.263 33.8556 112.314 34.8193 114.081C29.1367 114.957 21.236 114.27 17.9673 116.784C22.8245 118.989 31.5343 117.668 33.9531 121.512C39.4109 121.288 39.5671 124.028 43.1937 124.843C41.0765 125.408 37.7726 125.143 36.3269 126.157C38.2019 127.014 40.8911 127.396 42.4824 128.384C39.3768 129.467 36.3225 130.597 31.4364 130.447C30.2097 133.952 22.6094 133.045 19.1496 135.032L33.7968 135.755C36.1163 140.095 47.7484 136.305 52.9998 138.599C46.4265 138.539 40.2916 138.785 33.6677 138.663C38.8473 142.095 46.8322 139.999 54.4453 141.249C50.2334 141.148 46.1377 141.127 42.4431 141.353C41.5681 141.354 37.7261 140.955 39.2944 141.524C48.6885 141.66 58.3805 141.972 67.9186 142.158C69.8082 143.313 73.5844 143.368 76.1121 144.146C75.1705 146.15 72.9253 147.267 70.2539 148.099C71.4327 148.794 73.2165 147.614 74.3969 148.6C73.2307 149.253 70.4769 148.823 69.6731 149.7C75.8986 148.174 79.7927 149.932 85.7021 151.017C93.1522 152.363 98.6121 150.086 105.978 150.222C110.072 150.294 113.979 152.045 117.852 151.344C119.107 151.789 120.349 152.226 121.97 152.462C132.75 149.092 146.018 149.165 160.923 149.08C203.461 148.882 250.331 148.105 292.88 147.296C293.89 146.562 295.973 146.198 297.035 146.144C322.939 144.516 357.478 143.113 388.131 142.726C418.414 142.337 446.1 139.544 474.518 139.707C478.282 139.746 483.156 139.852 487.454 139.798C514.455 139.591 543.103 136.629 568.137 136.858C583.921 137.01 595.813 139.659 611.501 138.228C612.792 137.43 610.423 137 610.545 135.925L613.139 135.052C610.101 134.418 606.5 135.63 604.399 134.13C607.992 134.11 610.927 133.66 612.209 132.095C610.813 131.862 608.075 132.377 607.614 131.637C609.889 131.757 612.025 131.716 613.268 131.147C611.021 131.288 607.457 130.564 606.038 131.261L606.541 131.929C604.778 131.605 604.524 132.333 602.914 132.127C601.457 130.438 597.693 130.088 594.728 129.298C602.181 128.902 607.659 127.169 613.46 125.664C610.801 125.506 607.626 125.677 605.74 125.09L607.856 123.221C605.909 122.853 604.177 122.396 602.744 121.759C608.066 121.955 613.839 124.464 615.706 120.867C614.825 121.009 610.252 122.661 608.463 120.637C609.702 120.472 612.208 121.145 612.607 120.438C610.093 120.322 608.461 119.691 606.991 118.971C608.11 117.51 607.75 117.556 606.525 116.359C608.578 116.083 609.778 116.251 611.702 116.208C610.527 115.409 608.281 115.229 607.608 114.13C609.094 114.442 609.003 113.723 610.243 113.886L608.744 111.903C611.911 112.291 610.097 111.241 610.358 109.993L612.888 111.391C611.755 111.547 611.283 110.418 611.353 111.649C612.515 112.761 613.12 114.216 615.368 114.692L613.781 115.605C616.773 117.036 618.801 119.031 622.391 120.104C622.291 119.281 620.267 118.188 622.482 117.828C627.267 119.502 632.271 121.019 634.18 124.351C631.491 126.628 622.127 124.409 619.618 126.81C626.278 128.038 633.791 125.797 638.725 127.417C634.616 130.715 628.079 132.406 620.949 133.672C622.965 133.999 624.13 133.688 625.042 134.113C623.153 134.596 620.682 134.713 620.356 136.248C621.305 137.054 623.665 137.052 624.953 137.677C620.567 138.932 615.279 139.57 610.895 140.796C607.267 137.999 602.004 140.337 596.964 140.376C594.856 140.389 593.098 139.916 591.297 139.866C578.288 139.618 563.097 141.567 549.845 142.775C543.791 143.316 537.245 143.561 532.701 145.481C552.779 146.312 577.283 143.22 598.876 144.304C613.734 145.065 626.742 143.336 635.758 138.986C634.719 137.775 635.073 137.215 634.815 136.042C639.747 135.374 643.515 133.954 647.337 132.548C644.751 131.558 649.263 131.457 646.898 130.259C647.794 129.043 650.751 128.379 652.099 128.484C649.922 127.55 648.575 126.08 646.548 125.054C648.024 124.613 648.789 123.704 650.717 123.58C651.789 124.629 650.831 126.372 651.647 126.843L654.796 124.667C651.241 120.389 640.932 127.593 638.904 121.589C640.561 121.916 640.023 120.779 641.035 120.676C643.092 120.944 641.259 122.049 643.022 122.037L645.152 120.483C640.555 120.404 638.224 119.014 636.979 116.992C640.148 117.661 644.125 118.662 647.243 119.582C647.951 118.784 646.114 117.967 647.308 117.954C651.426 118.074 653.57 119.515 656.539 119.513C654.145 118.062 654.926 118.093 653.013 116.84C654.252 116.696 656.758 117.347 657.158 116.633V116.633ZM611.16 117.162L608.565 117.081C608.349 118.175 611.529 118.555 611.16 117.162ZM670.295 93.7058C665.718 92.7849 660.799 91.4567 657.487 90.7305C659.376 92.9041 666.938 93.4456 670.295 93.7058ZM641.427 91.5195C640.295 89.6495 637.046 89.0141 634.326 88.0713C635.444 89.9637 638.789 90.5288 641.427 91.5195ZM622.612 66.9683L623.607 68.9377C623.302 68.27 624.518 66.7183 622.612 66.9683Z" fill="#4C626A" fill-opacity="0.75"/>
<path d="M229.648 108L230.08 104.88L232.768 104.4L245.488 76.512H250.816L256.288 104.304L259.648 104.88L259.456 108H245.44L245.68 104.88L248.8 104.4L247.984 99.744H239.2L237.28 104.304L241.072 104.88L240.688 108H229.648ZM240.736 96.24H247.408L246.016 85.776L245.968 84.24H245.728L245.248 85.776L240.736 96.24ZM258.937 108L259.465 104.88L262.873 104.208L266.185 80.688L262.777 80.016L263.257 76.896H275.449C278.777 76.896 281.337 77.376 283.129 78.336C284.953 79.296 285.865 81.056 285.865 83.616C285.865 85.024 285.593 86.32 285.049 87.504C284.537 88.656 283.817 89.616 282.889 90.384C281.961 91.12 280.889 91.584 279.673 91.776C281.177 92.032 282.393 92.736 283.321 93.888C284.281 95.04 284.761 96.448 284.761 98.112C284.761 101.344 283.673 103.808 281.497 105.504C279.321 107.168 275.961 108 271.417 108H258.937ZM273.001 104.64C274.409 104.64 275.513 104.112 276.313 103.056C277.145 101.968 277.561 100.4 277.561 98.352C277.561 96.656 277.113 95.472 276.217 94.8C275.321 94.128 273.785 93.792 271.609 93.792L270.169 104.16C270.585 104.288 271.033 104.4 271.513 104.496C271.993 104.592 272.489 104.64 273.001 104.64ZM272.089 90.576C274.393 90.576 276.121 90.08 277.273 89.088C278.457 88.096 279.049 86.448 279.049 84.144C279.049 82.928 278.649 82.032 277.849 81.456C277.049 80.848 275.993 80.544 274.681 80.544C274.457 80.544 274.233 80.56 274.009 80.592C273.785 80.624 273.609 80.656 273.481 80.688L272.089 90.576ZM300.96 108.528C298.848 108.528 296.832 108.096 294.912 107.232C292.992 106.368 291.424 105.024 290.208 103.2C289.024 101.344 288.432 98.992 288.432 96.144C288.432 92.624 288.88 89.616 289.776 87.12C290.704 84.624 291.936 82.576 293.472 80.976C295.008 79.376 296.736 78.208 298.656 77.472C300.576 76.704 302.528 76.32 304.512 76.32C307.04 76.32 309.136 76.688 310.8 77.424C312.496 78.16 313.824 79.136 314.784 80.352C315.776 81.536 316.48 82.864 316.896 84.336C317.312 85.808 317.52 87.264 317.52 88.704C317.52 91.776 317.152 94.544 316.416 97.008C315.68 99.44 314.592 101.52 313.152 103.248C311.744 104.944 310.016 106.256 307.968 107.184C305.92 108.08 303.584 108.528 300.96 108.528ZM301.776 105.12C303.472 105.12 304.832 104.656 305.856 103.728C306.88 102.768 307.648 101.472 308.16 99.84C308.672 98.208 309.008 96.336 309.168 94.224C309.36 92.08 309.456 89.84 309.456 87.504C309.456 85.328 309.168 83.68 308.592 82.56C308.048 81.44 307.376 80.688 306.576 80.304C305.776 79.888 304.976 79.68 304.176 79.68C302.448 79.68 301.072 80.144 300.048 81.072C299.024 82 298.256 83.296 297.744 84.96C297.264 86.592 296.944 88.496 296.784 90.672C296.624 92.816 296.544 95.104 296.544 97.536C296.544 99.648 296.816 101.248 297.36 102.336C297.904 103.424 298.576 104.16 299.376 104.544C300.208 104.928 301.008 105.12 301.776 105.12ZM332.651 108.528C330.411 108.528 328.587 108.304 327.179 107.856C325.771 107.376 324.683 106.736 323.915 105.936C323.147 105.136 322.619 104.256 322.331 103.296C322.043 102.304 321.899 101.28 321.899 100.224C321.899 98.72 322.043 96.96 322.331 94.944L324.299 80.688L320.891 80.016L321.371 76.896H335.435L335.003 80.016L331.643 80.688L329.627 94.656C329.467 95.84 329.323 96.992 329.195 98.112C329.067 99.232 329.003 99.984 329.003 100.368C329.003 101.104 329.115 101.856 329.339 102.624C329.563 103.36 330.011 103.984 330.683 104.496C331.387 105.008 332.427 105.264 333.803 105.264C335.083 105.264 336.187 105.008 337.115 104.496C338.043 103.984 338.827 102.976 339.467 101.472C340.139 99.936 340.683 97.664 341.099 94.656L343.067 80.688L339.707 80.016L340.091 76.896H351.419L351.035 80.016L347.675 80.688L345.707 94.656C345.227 98.08 344.491 100.816 343.499 102.864C342.539 104.88 341.179 106.336 339.419 107.232C337.691 108.096 335.435 108.528 332.651 108.528ZM353.409 108L353.841 104.88L357.249 104.208L360.609 80.496H355.809L354.033 86.064H350.625L351.633 76.896H377.169L375.825 86.064H372.465L372.321 80.496H367.809L364.545 104.208L367.953 104.88L367.473 108H353.409ZM380.061 108L380.541 104.88L384.141 104.208L387.549 80.688L383.949 80.016L384.429 76.896H395.517L398.301 94.416L398.541 97.824H398.829L400.029 94.608L407.805 76.896H419.469L419.085 80.016L415.773 80.688L412.365 104.208L415.725 104.88L415.197 108H401.373L401.853 104.88L405.309 104.208L407.517 89.52L407.853 87.024H407.565L398.445 108H394.365L391.005 86.832H390.765L390.477 89.616L388.365 104.208L391.917 104.88L391.533 108H380.061ZM417.282 108L417.762 104.88L421.17 104.208L424.482 80.688L421.074 80.016L421.554 76.896H444.498L443.01 86.16H439.602V80.592H434.274L431.874 80.928L430.482 90.288H435.666L436.77 87.168H440.034L438.69 97.104H435.57L435.618 93.744H430.002L428.61 103.968C429.154 104.096 429.73 104.192 430.338 104.256C430.978 104.288 431.602 104.304 432.21 104.304H436.578L438.546 98.928H441.762L440.658 108H417.282Z" fill="white"/>
</svg>
