<svg width="530" height="109" viewBox="0 0 530 109" fill="none" xmlns="http://www.w3.org/2000/svg">
<path fill-rule="evenodd" clip-rule="evenodd" d="M438.736 36.3062C439.89 35.2719 440.865 35.543 440.951 36.5722L438.736 36.3062ZM446.563 21.2505C445.683 23.0136 444.064 22.9445 444.348 21.6011C445.484 20.1074 445.863 21.5216 446.563 21.2505ZM375.723 71.5143C369.372 72.6816 364.375 70.7372 359.274 68.8991L359.047 68.091L360.286 66.6336C361.261 66.9194 362.085 67.1412 362.643 66.8296L362.908 67.8052L364.082 67.1464C364.716 68.5054 366.514 67.8259 367.716 68.2498L368.871 69.2488L369.883 69.0269L371.379 70.2391C372.637 70.2589 374.719 70.3029 375.723 71.5143ZM375.155 78.6951C373.347 79.0154 371.975 78.4637 370.65 78.765L369.382 77.6754L369.107 78.2763L370.214 78.1434C369.429 79.296 367.139 78.9463 366.561 78.5768L367.867 78.6364C368.113 77.6754 368.804 78.493 369.107 77.6659L368.994 77.2523L367.47 76.9761C369.552 77.0149 373.044 76.1291 374.265 77.2083C373.868 77.6115 373.707 76.8733 373.271 78.0303C374.161 77.8775 375.789 77.1928 375.155 78.6951ZM376.802 78.089L376.489 78.7201L375.912 78.0795L376.802 78.089ZM350.15 102.793L351.882 102.961C354.012 103.187 355.952 103.507 357.949 103.669L359.132 103.866C356.624 103.729 352.28 103.315 349.223 102.971L349.715 102.851C349.014 102.753 348.182 102.714 347.396 102.606C346.251 102.448 345.219 102.162 344.273 102.083L342.863 102.074L345.863 102.733C343.762 102.512 341.708 102.147 339.664 101.842C338.708 101.694 337.449 101.611 337.175 101.472L336.465 101.458L336.067 101.404L336.9 101.369C335.793 101.326 334.023 101.004 332.802 100.96H332.793L334.6 100.824L334.638 100.655C335.793 100.837 337.203 101.014 338.216 101.217C340.515 101.646 344.51 101.842 346.999 102.247C348.144 102.448 348.873 102.664 350.15 102.793ZM350.216 103.398L349.525 103.306L351.087 103.423C353.822 103.694 356.595 103.985 358.091 104.192C355.289 103.95 352.336 103.645 350.216 103.398ZM346.686 102.833L346.118 102.772L346.989 102.812L346.686 102.833ZM318.312 99.488L316.296 99.2066L316.192 99.1686L318.085 99.4345L319.959 99.6995L318.312 99.488ZM211.896 82.3792L213.789 82.6839L213.694 83.3928L211.659 83.1027L210.022 82.4189L211.896 82.3792ZM192.797 73.7056C192.513 74.3108 191.264 73.6373 190.317 73.5881C188.264 73.4888 186.21 74.0699 184.109 73.5674C184.431 72.4355 186.494 72.9329 187.109 72.0902L185.708 71.0515C184.752 70.8158 183.721 71.3865 182.585 71.3416C181.799 71.3027 180.967 70.9825 180.257 70.9678L180.758 72.0375C177.701 71.7258 173.357 71.1499 170.849 70.2296C170.565 69.2591 171.332 69.7858 172.023 69.8894C174.029 70.1994 175.969 69.7115 178.089 69.9576L179.84 70.4014C181.109 70.549 181.837 70.0267 182.983 69.9533C185.472 69.7953 189.466 71.731 191.756 71.6429C192.778 71.5929 194.179 71.9175 195.343 72.0556L195.381 72.7696C195.92 73.7953 196.649 74.0363 197.188 74.9325C195.958 74.0363 194.179 74.1441 193.071 73.4301L193.914 74.3764L193.516 74.297L192.797 73.7056ZM183.295 73.6071L182.992 73.0511L183.863 73.6961L183.295 73.6071ZM179.765 75.1388C177.645 75.0058 174.692 75.1345 171.89 74.2478C173.386 73.45 176.159 73.5096 178.884 74.1493L180.446 75.0663L179.765 75.1388ZM154.836 38.8524C154.192 38.1038 155.82 38.6115 156.71 38.7988L155.716 38.305C156.927 37.9804 160.439 38.8524 162.511 39.1727L160.978 39.0639L160.874 39.2262L162.095 39.8824L163.401 40.0629C162.833 40.1466 160.552 39.9308 159.757 39.2806L160.883 39.5267L160.59 39.2072L159.322 39.5025C158.006 39.1727 156.634 39.2357 154.836 38.8524ZM153.179 38.375L154.069 38.4734L153.492 38.6849L153.179 38.375ZM158.602 35.8625L160.088 35.606L161.111 35.8184L162.265 35.6026C163.458 35.6026 165.265 36.1051 165.89 35.6898L167.073 36.1051L167.338 35.7744C167.906 35.9713 168.71 36.0006 169.695 36.0498L170.934 36.8036L170.717 37.0781C165.606 37.0056 160.618 36.9952 154.258 35.8184C155.262 35.4834 157.344 35.7252 158.602 35.8625ZM154.23 30.8194L155.281 31.347H154.268L154.23 30.8194ZM156.426 31.2088L156.653 31.5335L155.309 31.1147L156.426 31.2088ZM157.476 31.366L157.921 31.6379C159.937 31.7165 162.445 32.3226 163.079 31.8495C164.016 31.9876 165.067 32.0662 166.202 32.1447L166.751 33.1394C163.893 32.7992 160.959 32.5039 157.637 31.7657L157.476 31.366ZM146.706 22.8806C148.75 22.7727 149.772 22.2305 151.779 22.3436C151.4 22.7278 148.835 22.7235 146.99 22.9108C146.469 22.9747 145.826 22.8909 146.706 22.8806ZM162.019 24.7524L162.577 25.1409C160.174 25.1012 157.76 25.0667 155.404 25.1064C156.946 24.85 159.407 24.7524 162.019 24.7524ZM374.568 29.6919C372.23 29.5002 369.817 29.6418 367.394 29.8697L367.962 28.0471C370.574 27.9737 373.025 28.3234 374.568 29.6919ZM383.285 14.3011C384.146 14.0551 383.521 14.9668 382.982 14.7104C381.155 14.0939 378.571 15.13 378.202 12.8489C380.209 11.2577 381.231 14.4289 383.285 14.3011ZM347.169 88.0922L347.15 87.7969L347.86 88.0775L347.169 88.0922ZM182.812 50.0652L182.102 49.8494H182.831L182.812 50.0652ZM170.613 41.1378L170.054 40.7631L170.206 41.2802C169.553 40.8425 169.373 41.1326 168.502 40.9055C167.508 39.7883 169.789 40.4626 170.395 40.7139L170.613 41.1378ZM171.663 41.5064H171.029L170.518 40.5412L171.294 40.8528L171.663 41.5064ZM165.455 39.5863L167.726 40.1129L167.972 40.7294L167.338 40.7389L166.439 40.6016L165.455 39.5863ZM171.739 43.2548C169.941 43.0527 168.493 43.5259 166.259 42.3888C166.808 41.876 169.042 42.4622 170.329 42.3992C171.162 42.3888 171.729 42.2455 172.439 42.3387C173.386 42.4674 176.537 43.4378 174.644 41.8863L174.711 42.3146L173.319 41.4823L173.424 41.8026L172.203 41.7033L171.483 40.7777C173.556 41.3545 175.212 41.1119 176.66 42.5365L176.234 41.7534L177.096 41.8129L177.588 42.2602L177.38 42.4674L178.175 42.792C179.074 43.5863 180.02 44.2995 181.156 44.7329C178.553 44.7182 174.72 43.5811 171.739 43.2548ZM166.212 40.4626L165.275 40.4281L164.906 39.9903L163.089 39.5422L164.414 39.4386L166.212 40.4626ZM169.676 47.5545L169.117 47.1167C171.682 47.5303 176.641 48.2443 180.219 49.3667C177.029 49.0714 172.411 47.8057 169.676 47.5545ZM181.146 53.5783L179.755 54.528C178.212 54.0653 176.234 53.7398 174.379 53.3953C173.547 53.2329 172.524 53.3512 171.606 52.3963C174.644 52.3307 177.399 52.0613 181.146 53.5783ZM363.514 78.6269L362.643 78.5768C363.287 77.6262 362.236 77.9267 362.009 78.3152L362.255 77.128L364.517 76.8327C364.167 77.8524 363.571 77.8921 363.514 78.6269ZM360.296 89.2983C357.57 88.8096 352.952 88.9633 349.753 88.1509C353.33 87.9825 358.299 88.6732 360.873 88.8753L360.296 89.2983ZM358.365 94.4553C357.447 95.1642 356.434 94.7756 355.592 94.71C353.756 94.533 351.769 94.2818 350.216 94.2628L348.835 92.8589C352.582 92.4695 355.337 93.5928 358.365 94.4553ZM365.558 76.8871L366.883 77.5727L365.075 77.8921L364.687 78.6951L363.779 78.424C364.309 77.7056 365.142 78.2418 365.558 76.8871ZM359.586 77.3551C360.173 77.0598 362.473 76.547 361.479 78.493C360.599 78.6269 360.428 77.9413 359.775 78.5967L359.927 77.583L359.378 78.1434L359.586 77.3551ZM358.696 77.2921L359.454 76.9372L358.952 78.7391L358.318 78.4836L358.696 77.2921ZM356.662 77.7497L355.261 78.828L355.337 78.0355C353.444 80.2509 356.595 79.675 357.542 79.8037C358.252 79.8969 358.81 80.364 359.643 80.7439C360.939 81.3207 363.164 81.0349 363.712 82.1529C361.479 83.4774 360.031 82.0744 358.242 81.7731C355.251 81.2507 351.428 81.6798 348.825 80.5712C349.961 80.301 350.907 79.429 351.797 78.3048L352.601 78.0104L352.384 77.5329L352.885 76.8587L353.756 77.0995L353.321 78.4533C354.769 76.262 356.416 77.4043 358.498 77.0598L357.769 78.6364L356.567 78.3454L356.662 77.7497ZM372.495 56.5734L372.334 57.9315C369.012 59.4683 366.088 59.3544 363.22 59.4087C363.485 58.3649 363.665 57.385 363.788 56.4732C364.905 56.5915 365.965 56.6813 366.911 56.4931C367.527 58.301 370.044 57.0698 372.06 57.385L372.495 56.5734ZM374.663 56.3014L373.328 57.3996L373.546 56.2911L374.663 56.3014ZM375.761 55.4691C375.685 56.1831 376.054 56.4094 375.713 57.4238L374.701 57.1337L375.761 55.4691ZM406.926 66.0473L407.778 65.2452C409.141 64.7773 409.993 65.0139 411.488 64.8654C412.577 64.7574 415.123 63.5703 413.892 65.8211L413.674 64.8654C412.321 65.4369 411.592 66.2304 411.356 65.1166L410.201 66.2252C408.583 65.9291 404.589 67.4218 403.358 66.1164C404.825 64.9741 406.359 65.531 406.926 66.0473ZM419.637 61.1571C417.091 61.8754 416.324 61.9402 414.318 61.5612C415.738 61.2607 418.473 60.399 419.637 61.1571ZM399.355 78.089C398.863 79.0292 398.352 78.6951 398.371 78.3454L399.355 78.089ZM376.442 102.162L377.928 102.196L378.647 102.275L377.426 102.26L376.442 102.162ZM385.007 102.34L383.029 102.354C383.966 102.034 385.424 102.045 385.007 102.34ZM396.071 100.01L396.487 99.8878L396.412 100.167L395.787 100.207L396.071 100.01ZM398.787 99.9862L398.011 100.232L397.689 99.9655L398.787 99.9862ZM398.333 102.971C399.658 102.772 401.503 102.793 402.384 102.971C399.961 103.685 399.137 103.138 397.5 103.226L396.298 103.094C397.604 102.714 397.879 102.891 398.333 102.971ZM368 104.822C370.12 104.99 372.95 105.069 373.47 105.305C369.959 105.186 367.243 104.964 364.508 104.729L363.107 104.497C365.331 104.511 366.448 104.694 368 104.822ZM165.464 73.2376C162.748 73.2626 160.022 72.8646 156.511 71.6524C157.022 70.1795 159.852 71.0671 161.981 71.1897C163.533 71.2924 164.65 70.4057 166.874 72.1653C167.423 73.406 166.174 73.2376 165.464 73.2376ZM152.545 59.4683L151.324 59.3198L152.053 59.2568L153.549 59.4183L152.545 59.4683ZM144.974 58.8821C144.557 58.2311 146.006 58.2915 146.942 59.0504L144.974 58.8821ZM132.983 59.0349L136.295 58.5721C136.484 59.4977 133.484 58.7638 132.983 59.0349ZM132.481 61.2607C130.853 61.2011 130.02 62.586 127.598 61.2417C128.468 60.7185 130.333 60.3887 131.648 60.7383C132.103 60.4966 132.368 60.0338 133.674 60.8264L132.481 61.2607ZM131.97 55.1583L131.184 54.8337L132.282 54.7154L131.97 55.1583ZM133.494 54.4788L133.901 54.6463L134.204 54.9615L133.569 54.9373L133.494 54.4788ZM119.78 32.4642L118.616 32.1689C118.37 32.4944 117.66 32.2777 116.307 32.1447L116.089 32.4357C114.859 31.8244 117.404 32.0955 118.493 32.1007C119.988 32.1007 120.831 32.0316 122.203 32.1396L123.055 32.3666C123.623 32.2138 125.146 32.0558 126.613 32.4055C125.383 32.775 121.398 32.3312 119.78 32.4642ZM110.344 31.3867C111.518 31.1199 114.243 31.2339 115.663 31.2684C113.657 31.4351 112.89 31.4445 110.344 31.3867ZM83.4182 27.7371C84.1091 27.6879 84.4877 27.5697 85.6328 27.5489C85.9168 27.599 84.2984 27.7561 83.4182 27.7371ZM89.021 28.5047C89.1062 28.3812 90.0905 28.2534 91.2357 28.2837L89.021 28.5047ZM58.1675 30.879L57.3157 30.8393C58.2905 30.7409 59.2559 30.544 60.2307 30.4845C60.3538 30.5837 59.3978 30.7262 58.1675 30.879ZM43.1666 35.0302C43.4032 34.646 45.6841 33.7351 48.8736 33.7351C48.4856 34.0753 45.4664 34.7841 43.1666 35.0302ZM25.2602 41.8863C25.0047 41.4771 26.8597 41.2405 27.8439 40.8528C27.8156 41.1723 26.4149 41.5272 25.2602 41.8863ZM472.656 20.4623C472.249 21.5113 472.438 21.1279 471.813 22.1916C470.574 22.5611 469.637 22.5948 469.75 21.393C470.716 20.4622 471.69 20.8611 472.656 20.4623ZM486.814 28.7465C484.505 30.3662 481.496 30.7305 481.108 29.4855C484.288 25.7816 486.578 27.5395 486.814 28.7465ZM504.73 28.5798C503.566 29.0814 502.175 29.7799 502.137 29.1704C503.112 28.958 504.967 27.5697 504.73 28.5798ZM460.428 35.9911C462.823 36.9072 467.876 36.3209 471.511 35.9169C477.028 35.2918 481.486 35.4291 486.587 34.9473C490.401 34.5726 493.421 34.3507 496.97 33.1204L499.194 31.4014C502.904 31.3366 508.355 28.4166 515.226 23.8796C513.258 23.9452 509.065 27.2243 506.491 27.7812C508.563 26.2392 509.661 26.1952 512.169 24.408C509.51 24.7973 501.427 28.7162 498.323 28.958C496.402 29.1505 493.979 28.9632 492.711 28.225C496.108 26.0924 499.629 24.831 501.333 25.457L503.036 24.3829C509.879 23.4772 519.22 19.1767 530 11.3863C529.839 10.6369 526.498 13.4636 524.492 14.6801C519.835 17.4974 515.728 19.0187 512.236 20.6013C511.403 19.7983 505.554 23.314 505.156 21.8368L503.453 22.9108L503.935 21.8618C503.008 22.5948 501.228 23.7535 501.957 22.3833L501.229 23.0869C500.774 21.5216 494.537 25.9292 494.518 23.5256C493.468 24.0039 492.417 24.7628 493.089 23.2501C491.802 24.7075 490.808 24.5461 490.42 24.0885L488.717 25.1367C488.016 25.21 489.389 22.0043 487.458 24.471L487.704 23.0628C484.306 23.605 479.357 22.019 475.202 22.0336C474.653 22.3937 474.625 24.0039 473.82 24.1411C473.072 24.3294 474.568 23.1422 474.852 22.1122C473.404 23.1318 473.29 21.6295 472.486 21.418C473.82 19.5419 474.095 20.6936 474.71 20.6151C477.133 20.3889 479.906 20.9354 482.83 20.4769C484.212 20.2663 485.726 19.5419 487.288 18.7389L488.045 19.9658C490.316 19.1085 493.089 17.5863 492.881 19.6999L494.282 18.4877C495.881 19.1188 497.755 19.3934 500.566 18.0879C500.49 17.1382 498.938 17.6019 497.49 17.7788C488.035 19.124 478.987 16.2472 468.104 16.217C466.144 16.1971 463.466 17.7236 463.173 15.4244C465.756 12.9119 467.649 14.3313 468.917 14.7052C470.517 13.3661 472.135 13.5085 473.763 12.4492L474.123 13.3799C476.896 11.7801 478.751 15.6454 482.461 11.3553C461.942 8.8549 435.168 12.3309 410.911 13.8479C407.163 14.0646 403.557 14.1639 400.424 12.5295C399.033 9.11047 395.389 10.0265 392.721 9.38587C384.752 7.53995 378.089 -0.389381 368.331 1.23033C371.587 5.09571 379.594 1.71813 379.452 10.4996C376.584 13.4351 374.795 10.4452 371.568 11.1092L371.445 10.3615L371.795 8.51903C372.618 7.76097 372.836 8.50955 373.517 7.97339C373.943 1.86579 367.025 10.0999 368.445 2.38814C365.426 2.11186 363.514 0.186481 360.76 0.457585C359.927 0.541333 358.876 1.34429 358.043 1.52215C349.175 3.29468 339.134 4.5302 329.234 4.59927C325.959 4.64848 322.562 5.55588 319.306 5.83562C316.277 6.1024 313.4 6.26474 310.58 6.36748L310.296 5.39701C311.498 4.23489 312.937 3.48635 314.12 2.19127C315.397 2.21631 317.943 1.90463 318.918 6.80965e-07C310.722 1.88132 300.737 2.57116 291.386 4.93425C282.528 7.12034 273.65 8.47069 264.981 10.0999C256.34 10.0369 247.444 10.4746 238.595 10.5489C229.244 10.6568 219.259 12.0848 211.054 12.5821C212.047 13.2668 214.584 13.0363 215.861 12.7988C217.035 13.2435 218.474 13.3851 219.675 13.8246L219.401 14.3711C216.571 14.6802 213.704 14.9815 210.666 15.2422C207.41 15.5177 204.022 15.572 200.738 15.9761C190.847 17.1572 180.806 17.8471 171.938 18.4877C171.105 18.5378 170.054 18.4877 169.221 18.5663C166.467 18.8374 164.556 19.4435 161.527 19.7983C162.966 21.0381 156.028 20.2412 156.473 21.2316C157.145 21.2505 157.363 21.1072 158.205 21.1815L158.527 21.4776L158.404 21.6192C155.176 21.7478 153.397 22.3151 150.529 22.0734C150.369 20.8214 158.404 20.6047 161.659 19.5713C151.883 20.4528 145.229 22.1916 137.27 22.9013C134.582 23.1707 130.957 23.3589 129.557 23.7621C126.424 24.1222 122.809 24.3345 119.061 24.5746C94.8038 26.1459 68.0293 28.4071 47.5107 31.6526C51.2302 31.366 53.0757 30.8341 55.8582 30.544L56.2084 30.4456C57.8458 30.2824 59.4547 30.0519 61.0636 29.9138C62.3223 29.7368 64.2341 29.4259 66.8084 29.2343C66.515 29.3819 63.8366 29.6366 61.8775 29.8982C50.9936 31.2831 41.9457 33.1791 32.4814 35.4489C31.0334 35.7831 29.4812 36.1137 29.415 36.3511C32.2164 35.8538 34.0998 35.2771 35.6898 34.7694L37.1 34.646C36.8823 34.3161 39.6553 33.9475 41.9362 33.5875L42.7029 33.2525C44.255 33.0418 45.7787 32.838 47.1416 32.598C50.066 32.0955 52.8391 31.5378 55.2714 31.1898C55.8866 31.0905 56.1516 30.9386 57.4861 30.9135C56.6911 31.0413 56.5681 31.2235 55.12 31.366L56.1516 31.4255C55.3471 31.5378 55.3283 31.3608 54.7888 31.4109C50.6245 32.0757 45.6651 33.3112 42.2675 34.0459L42.5136 34.2531C40.5829 34.2376 41.9646 34.5277 41.2737 34.7056L39.5513 34.9274C39.1822 35.1191 38.1789 35.4438 36.8823 35.4541C37.5827 35.6112 36.5132 35.7451 35.4532 35.9315L28.7431 37.9804L28.0049 38.0054C28.7431 38.1971 26.9732 38.4682 26.0457 38.5519L26.5284 38.7488L24.8154 39.0199C24.4179 39.7391 18.5784 40.8321 17.7455 41.6403C14.2437 42.5848 10.1457 44.0621 5.50823 45.2104C3.48288 45.7077 0.123036 45.9045 0 46.5745C10.7514 44.7968 20.1022 41.5064 26.9448 39.1373L28.6389 38.8524C30.3519 37.9363 33.8821 37.1334 37.2703 36.6706C36.0021 37.3112 33.5603 38.2653 31.6675 39.0095C28.5442 40.1863 20.4807 42.299 17.8023 43.7625C20.3198 43.3299 21.4177 42.7083 23.4904 42.4173C20.9161 43.5907 16.714 44.1173 14.7549 45.4573C21.6259 43.9153 27.0773 42.299 30.7873 40.5023L33.0209 40.2666C36.5606 39.158 39.5891 37.9562 43.3938 36.7742C48.495 35.1735 52.9432 33.9622 58.4514 32.8881C62.1046 32.1741 67.1586 31.3521 69.5436 30.8341L72.0138 30.4939L72.8466 30.5337L72.2031 30.4361C76.7743 29.6418 83.2857 28.9045 88.5005 28.5798C84.3362 29.0814 78.3548 29.539 75.2978 30.1702C78.7523 29.8697 82.2731 29.5391 86.3522 29.1264C92.9961 28.4702 101.277 27.8995 108.48 27.6577C111.537 27.5593 114.508 27.4315 117.442 27.4073C119.004 27.3771 120.916 27.3633 122.837 27.6145C122.089 27.8105 120.537 27.6923 119.231 27.7864C123.064 28.2535 125.638 27.4315 129.046 28.2094C128.317 28.5099 125.582 28.2146 123.613 28.2146C121.105 28.2146 119.25 28.4952 116.6 28.4417L116.269 28.7119C109.54 29.0219 101.211 29.1056 94.9552 29.7169C93.5355 29.8542 91.7846 30.0165 91.6616 30.2979C94.993 30.1797 97.1131 29.7514 100.672 29.6867L101.4 29.8542L101.173 29.6081C102.943 29.6867 102.517 29.5891 103.748 29.5002C106 29.8058 106.719 29.5002 108.073 29.3724L109.407 29.539L110.874 29.4605L111.773 29.2783C113.477 29.2541 116.07 29.3966 117.821 29.3327L118.067 29.1704C125.213 29.0029 131.554 29.2541 140.147 29.7747L141.34 30.1598L141.311 29.7704L142.116 30.0027C143.393 29.6867 146.763 30.2876 148.438 30.2876L149.091 30.677C149.555 30.6917 148.93 30.2384 149.753 30.5147L150.094 30.898C147.378 30.6822 144.302 30.5337 141.103 30.209C135.831 30.1995 129.585 29.5891 123.197 29.7022C122.288 29.9379 119.969 29.8404 118.001 29.8404C116.903 29.8404 115.559 29.7022 114.433 29.6919C110.959 29.6521 107.562 30.0916 103.965 30.1995C99.9712 30.3221 96.4694 30.6675 92.6648 30.9671L91.69 31.3366L89.6552 31.2434L90.2609 31.435C89.1914 31.2632 89.0021 31.5335 88.3775 31.593L87.2797 31.5689L86.3427 31.8944L84.1185 32.0411L83.0302 32.3416L81.4496 32.3666C78.0235 32.6714 76.6512 33.489 73.4996 33.7455C74.5217 34.0995 71.1809 34.0995 72.0326 34.4647C77.5598 33.5141 82.6232 32.7206 89.3239 32.0316C91.5102 31.7994 93.28 31.4946 95.4379 31.3366C97.3213 31.1933 98.5422 30.9135 100.359 30.8194C103.899 30.6226 108.48 30.7504 111.461 30.7305C108.991 31.5827 101.788 31.347 99.5737 32.0109L100.161 32.257C100.889 32.244 101.978 32.1189 103.057 32.4737C104.751 31.9971 108.338 31.8892 111.726 32.0411C112.228 31.8641 113.997 31.7994 115.209 32.219C115.512 32.6472 114.281 32.775 112.72 32.4504C112.634 32.9529 109.672 32.3666 108.252 32.5289C108.063 33.0815 104.656 32.7456 103.643 32.8147C105.451 33.9863 104.382 34.0304 102.205 34.2531C98.4002 34.646 93.9709 35.0405 90.1094 35.8573C89.2009 36.0498 87.8854 36.1137 86.8348 36.2769C85.9073 36.434 85.3773 36.7302 84.5255 36.9072C81.0142 37.6514 76.7932 38.3499 73.7835 39.3644L72.0326 40.1967C68.7675 41.1524 65.7294 42.2161 62.8712 43.3783L61.7734 44.132C60.8554 44.4912 59.4167 44.758 58.546 45.1957C57.7226 45.6239 57.2968 46.1609 56.4355 46.5391L55.0442 47.3326C53.3312 47.968 50.0756 48.3177 49.6781 49.1448C52.5647 48.1994 56.4544 48.0518 59.8427 47.3973L60.3821 46.8655L61.7639 46.7429C66.78 44.5507 71.1241 42.3888 77.115 41.3545C76.9352 40.7527 79.3391 40.5809 80.2571 40.2899L80.4275 39.8513L82.2163 40.2165C81.1279 39.556 82.964 39.4239 84.412 39.4775L83.8441 39.0544C86.39 39.0199 87.9611 38.3499 90.2703 37.9458L90.1757 37.8975L90.4975 37.926L91.7941 37.7196L93.4977 38.1487L91.5764 37.4537C95.4662 36.725 99.6589 36.4876 103 35.9963L104.05 36.5722L103.322 36.5972C104.533 37.0885 103.899 36.523 105.091 36.8088L103.445 36.0602L105.356 35.543C106.719 35.9013 108.839 35.6466 109.218 35.3203C111.12 36.0265 110.742 35.2771 111.584 35.2918C112.54 35.9816 113.524 36.0006 114.489 36.4038L111.764 35.1191C113.666 35.6665 114.669 34.9715 116.903 35.695C116.856 35.6026 116.335 35.3505 117.234 35.4437L117.897 35.9566L119.127 35.7053L117.669 35.4437C117.84 34.6114 120.991 35.6319 122.761 35.9462L121.682 35.3902C122.629 35.4489 123.216 35.2521 124.304 35.632L124.228 35.3703C125.08 35.2028 127.191 35.6803 128.516 35.5284L130.03 36.1137L129.841 35.5922C131.715 35.6665 135.661 35.9713 136.712 35.9013L137.308 36.3607H135.973C137.204 36.6024 137.961 36.8666 138.491 36.4539L137.279 36.0265C139.248 36.2519 140.838 36.0999 142.475 36.4194L143.403 37.2016L144.643 37.1282L143.479 36.5765C146.64 37.0652 149.876 37.1628 152.64 37.5858L154.637 38.261L152.574 38.0304L152.479 38.5822C150.804 38.2221 148.798 37.9562 146.384 37.7447L145.002 36.9857C144.264 36.9857 145.873 37.7049 144.917 37.6117C143.299 37.2214 142.314 37.4727 140.27 37.0255L139.333 36.6905L139.835 36.9857C136.607 36.6758 134.014 36.8977 130.853 36.4194L130.645 36.6706C128.175 36.592 126.197 36.0999 125.033 36.6309L124.058 36.3304L123.556 36.6758C121.786 36.8433 118.001 36.3512 116.799 36.8537L116.931 37.3216C115.209 37.4045 114.281 37.8577 112.739 38.1194C110.193 38.5372 106.038 38.4984 102.829 38.8524C102.016 38.9465 100.672 39.0199 101.239 39.6804C104.069 39.7391 105.773 38.6348 109.076 39.31C109.53 39.2072 109.843 38.9698 110.628 38.956C111.461 38.931 112.739 39.354 113.505 39.3989L114.934 39.3014C116.354 39.3014 118.162 39.5474 119.78 39.6001C128.648 39.8565 137.989 40.2364 147.056 41.2068C148.021 41.3001 149.157 41.4037 150.482 41.9994C151.277 42.6496 151.022 42.7825 151.448 43.2548C153.038 43.6839 154.599 44.2252 155.886 44.467C156.889 44.6638 157.59 44.2848 158.867 45.1059L157.987 45.1862C159.009 45.2544 160.174 46.1022 161.205 46.4364C162.738 46.919 163.817 46.4864 166.117 47.3084L167.404 48.1994L167.092 48.7321L165.985 48.2098C164.451 48.4455 161.868 47.6978 159.218 47.4068C156.359 47.0969 153.814 46.3975 151.495 46.2844L152.81 46.7955L153.075 47.5406C153.984 47.7712 154.921 47.968 155.792 48.6035C155.385 49.2726 153.586 48.6035 152.261 48.5301C150.312 48.4075 148.949 48.8357 146.706 48.5249C141.037 47.7513 135.519 47.7082 130.522 47.9983C129.244 48.0518 128.042 48.1942 126.727 48.2495C123.556 48.4075 119.335 47.8342 118.758 49.3814C111.224 50.0272 106.095 52.1347 99.8766 53.8977C94.7848 55.356 89.6647 57.1778 84.8379 58.8329C83.7968 59.1869 82.4339 59.5132 81.6578 59.9656L81.5727 60.4241L80.5221 60.33C78.951 60.6054 77.9479 61.3445 76.5377 61.6795L77.0014 62.2752L75.4304 61.9152C76.7554 62.3935 76.585 62.5998 77.4368 62.9892C83.1343 62.7276 85.3016 61.0198 89.0684 60.33C90.895 60.0148 91.5764 59.1187 93.1759 58.6162C96.7534 57.5171 99.9713 56.4197 104.533 55.8542L105.726 56.6709C106.927 56.4586 107.969 56.0657 108.906 55.5822C110.893 55.5874 113.988 55.7592 116.193 55.8922C117.821 56.0053 117.622 55.5131 118.531 55.2628C120.092 54.8052 123.007 55.1143 122.846 53.8977C124.682 54.2923 125.695 52.9221 128.288 53.9815L128.771 54.5928L130.806 54.8233C130.361 54.8233 129.755 54.7551 130.673 55.5529L132.159 55.6073C133.636 56.7987 134.26 57.0837 134.364 57.8426C133.2 57.6302 131.998 57.2123 130.891 57.543C131.449 58.459 130.919 58.7336 131.393 59.6013C130.796 59.641 130.484 59.8819 129.566 59.3898L127.077 60.5959C126.32 60.8869 125.146 60.7384 124.152 60.8566L122.534 61.4774C118.408 62.2216 113.505 62.428 110.505 64.2791C114.47 64.1021 117.196 62.542 120.935 62.1172C122.042 61.9851 123.85 62.5817 125.241 62.6646C132.301 63.0971 138.51 61.5405 145.684 61.3203C149.507 61.1916 153.804 61.5223 157.845 61.7675C160.467 61.9454 162.445 62.3641 164.735 62.8511C166.098 63.1179 167.717 63.6445 168.597 63.7231L168.862 63.4468L169.903 64.0624C171.01 64.3827 171.777 64.2014 173.121 65.0242C172.884 65.841 171.218 65.3929 169.96 65.1762L170.262 66.5006C165.445 66.6733 159.899 66.2882 155.082 66.2105C153.984 66.2002 152.649 65.6934 151.807 65.8704C149.11 66.3772 144.567 65.1667 142.693 66.5947L143.725 67.3769C142.494 67.7715 140.223 66.5006 138.51 66.8166L139.153 67.7318C137.781 68.2835 135.727 68.1955 135.5 69.412C136.267 69.6779 136.702 68.8205 137.914 70.1311C134.601 70.4109 126.954 68.1998 126.878 71.1154C129.613 71.2838 132.869 71.4116 135.671 72.0902C131.932 72.4753 130.03 74.316 126.121 74.7701C127.162 75.9763 125.269 75.2035 125.828 76.0704C130.418 78.6648 130.967 75.3123 134.279 76.6074L136.305 75.7449C138.122 76.8327 137.923 74.8495 139.551 76.0704C139.863 75.0749 141.349 75.1638 142.579 75.0663C146.715 74.7701 150.16 74.4049 154.353 74.5672C158.47 74.7313 162.303 75.2968 165.994 76.0842C166.988 77.7056 167.906 78.2418 168.805 79.1086L168.871 78.3454L169.458 78.9904C170.442 79.0689 171.502 78.5422 172.818 79.5869C174.607 79.3253 177.881 80.8578 179.452 79.8425C177.938 78.2271 177.408 79.8969 176.074 79.4143C175.175 78.5422 174.077 78.1822 173.67 78.7495L172.875 77.8921C171.777 77.9413 171.635 77.5174 171.143 78.2418C168.71 75.5135 168.947 79.1285 166.306 76.1291C169.733 76.2621 173.395 76.4943 177.152 78.2418L178.25 78.0104L179.225 78.8824L179.348 78.3359C185.822 79.4583 192.759 81.5417 198.741 82.3938L199.469 83.5309C198.419 81.5814 200.614 83.063 201.514 83.1027C203.113 83.1968 205.063 83.4377 206.444 83.6095L207.173 83.063C209.643 84.2795 212.104 85.1074 214.612 85.8301L215.379 86.0477C214.309 86.2851 213.126 86.0287 211.508 85.7386C212.435 86.5942 213.505 86.6495 214.47 86.7323C215.824 86.861 217.3 86.8903 218.597 86.9093C220.48 87.4066 222.363 87.8548 224.218 88.2105C226.537 88.6733 228.875 89.0419 231.269 89.0419C233.948 89.0419 236.579 88.9927 239.361 88.8753C241.32 88.7915 243.317 88.776 245.314 88.8304L246.8 88.8943C248.352 89.4063 248.986 89.2439 250.406 89.3484L251.021 89.8155L252.696 89.623L254.144 90.0175L254.551 89.8155L256.34 90.3568C257.362 90.3318 259.236 90.5986 260.618 90.9431C259.681 90.8896 258.195 90.9975 257.097 90.4855C255.375 90.3421 252.99 90.6625 251.248 89.8604L250.851 90.0762C250.132 90.1151 248.873 89.9787 248.087 89.8889C244.349 89.3225 240.308 88.9633 236.598 88.9633C239.323 89.6877 243.062 89.7369 246.147 90.1151C248.57 90.3965 251.192 90.4466 253.614 90.7462C255.886 91.0225 258.233 91.3368 260.533 91.4749C261.915 91.5638 263.306 91.4654 264.669 91.5051L264.981 91.5397L265.303 91.6139C266.675 92.0068 268.057 92.4696 269.448 92.7562C271.757 93.238 274.105 93.5678 276.357 93.9028C278.789 94.2628 281.411 94.7497 283.824 95.0709C286.919 95.5035 290.658 96.0448 293.383 96.3315C289.683 95.7849 285.623 95.1245 281.894 94.6271C281.099 94.5089 279.831 94.3215 279.121 94.1445L278.723 93.9477C276.982 93.9822 274.597 93.2932 272.884 92.9185C271.786 92.9971 270.291 92.5395 269.354 92.3124C270.745 92.4056 272.619 92.7458 273.641 93.0212L275.42 93.13L275.837 93.3718L277.285 93.4754L278.96 93.9822L279.566 93.8794C280.995 94.154 281.619 94.3604 283.171 94.4804L284.667 94.7601C286.654 95.1495 288.661 95.5372 290.62 95.8782C293.393 96.3505 296.024 96.7148 298.721 97.0602C301.106 97.3658 303.444 97.617 305.772 97.8968C307.618 98.1195 309.501 98.3501 311.384 98.5927C312.691 98.7438 314.148 98.9121 315.511 99.0606C316.476 99.1781 317.546 99.3196 318.454 99.4733C316.855 99.2566 315.672 99.1133 314.602 98.9898L315.359 99.0986C317.867 99.4198 320.328 99.7747 322.798 100.094L323.537 100.167C324.909 100.345 326.859 100.602 328.467 100.784C329.357 100.876 331.562 101.242 330.512 100.985L331.231 101.147C337.222 101.897 344.169 102.793 350.633 103.492L350.756 103.482L351.721 103.61L352.829 103.724C356.576 104.137 360.249 104.472 363.665 104.787C361.025 104.551 361.261 104.575 358.829 104.314C358.337 104.276 358.204 104.271 357.097 104.148L356.302 104.043C355.895 104.024 354.807 103.911 353.908 103.773C352.564 103.63 352.034 103.655 350.519 103.414C352.09 103.507 355.374 103.935 357.144 104.093C358.469 104.271 359.539 104.364 360.514 104.472L361.1 104.535L361.167 104.516C362.085 104.644 362.993 104.747 363.987 104.822C367.688 105.141 371.502 105.448 375.619 105.753C379.811 106.092 383.266 106.388 387.392 106.801C388.623 106.91 390.127 107.033 390.421 107.26C392.049 107.146 391.85 107.581 393.676 107.525L395.692 107.979C399.024 107.885 399.563 109.344 404.153 108.924C404.712 108.579 402.828 108.702 403.86 108.289C399.942 107.619 398.039 106.93 394.301 106.649C397.112 106.63 400.377 106.688 403.093 106.743C403.027 105.679 395.38 106.359 392.058 106.063C393.269 105.773 393.714 106 394.471 105.959C394.244 105.62 392.209 105.609 390.818 105.418L391.462 105.186C389.749 105.088 387.487 105.363 386.247 105.22L387.288 105.048C385.405 104.644 380.862 104.802 378.183 104.516C377.332 104.443 375.978 104.478 374.899 104.413C370.072 104.137 364.536 103.743 359.728 103.113L360.031 102.753C358.753 102.679 357.097 102.606 356.86 102.285C358.204 102.196 358.971 102.354 360.069 102.393L361.129 102.3L361.384 102.433C362.274 102.512 363.883 102.526 365.227 102.566C367.527 102.645 369.514 102.689 372.136 102.833C376.177 103.074 380.483 103.187 384.288 103.329C391.462 103.586 397.68 104.043 404.74 103.414C406.131 103.29 407.949 102.872 409.037 102.822C412.794 102.635 415.501 103.113 419.476 102.714C416.466 102.108 411.564 102.679 407.447 102.679L405.829 102.542C404.825 102.566 403.661 102.733 402.895 102.645L400.415 102.275C399.497 102.542 399.185 102.463 398.569 102.463L399.09 101.458C397.973 101.369 396.781 101.611 395.617 101.779C395.721 101.389 396.336 101.231 397.812 100.494L399.308 100.369C400.216 99.848 399.62 99.9162 399.175 99.9508L401.21 99.6598L401.693 99.2566C404.286 98.3647 405.308 99.1133 407.125 98.6557C406.964 99.4483 409.87 98.8871 411.45 98.9121C412.35 98.9268 412.16 99.2566 413.788 98.9372C415.993 98.483 419.079 97.7733 421.076 97.2872C422.003 97.4003 423.044 97.4003 424.246 97.2423L425.448 96.3954C430 95.5527 433.228 95.2332 436.805 94.7256C438.414 94.4933 439.086 94.9129 440.894 94.4407C444.661 93.3951 446.847 94.0409 452.563 91.323C453.387 90.4855 453.226 90.3966 454.541 89.1895L452.98 90.4112L453.434 89.6091C452.033 90.0918 451.021 89.9735 449.459 90.5597L448.418 91.1555L448.314 90.8446C447.547 90.8446 446.184 91.2392 445.143 91.4559C440.316 92.3858 435.187 93.0903 430.104 93.6714C423.877 94.4001 418.747 94.1005 411.223 94.7756C410.636 93.554 406.415 94.6418 403.254 94.7601C401.929 94.8154 400.737 94.7756 399.459 94.7756C394.453 94.7601 388.935 94.71 383.285 94.9716C381.032 95.1098 379.679 94.5089 377.72 94.3604C376.385 94.2576 374.587 94.6962 374.18 93.9028C375.051 93.3416 375.978 93.2483 376.896 93.13L377.171 92.2977L378.477 91.8695C376.167 91.6519 373.622 92.0862 370.754 91.8445C368.113 91.6424 365.52 91.9282 363.996 91.2142L362.889 91.5639L362.577 90.811L363.854 90.0175C366.154 89.5392 367.252 90.3965 368.776 90.1151C369.817 89.9389 370.972 89.0272 371.984 89.155L371.114 88.8097C372.382 87.9247 373.092 88.6335 374.095 88.5895C375.373 88.5109 376.944 88.0127 378.524 87.6631C378.959 86.9836 378.694 86.7427 379.499 85.7913C380.814 85.0582 381.969 85.0772 382.925 85.0772C391.992 84.9849 401.324 84.7129 410.201 83.246C411.81 82.9896 413.627 82.2963 415.037 82.0537L416.485 81.9897C417.233 81.7575 418.511 80.7923 419.353 80.6507C420.129 80.5022 420.441 80.832 420.905 80.901C424.199 78.9765 425.912 80.3398 428.76 79.3254C429.309 78.0795 427.966 78.3756 427.152 78.4533C423.943 78.828 419.788 79.8969 417.233 79.5524C415.69 79.3504 414.772 78.5967 413.04 78.6649L413.173 77.6754C411.971 76.7982 408.204 78.1822 406.415 77.8921L405.923 77.128L404.939 77.8239C403.775 76.6558 401.806 77.7946 399.336 77.8775L399.118 77.2765C395.967 78.2418 393.374 77.463 390.146 77.7497L390.638 77.1194L389.701 77.7686C387.667 78.4533 386.673 77.7246 385.064 78.2962C384.099 78.3359 385.698 77.0054 384.969 76.8189C384.193 77.3551 384.193 77.4043 383.597 78.3152C381.184 78.2962 379.187 78.3756 377.502 78.7201L377.398 77.4734L375.344 77.4345C375.94 76.3803 376.735 76.4546 377.341 76.4296C380.095 76.1783 383.341 76.7542 386.502 76.1628L385.338 77.2523L386.578 77.6461L387.496 75.9227C389.143 75.4254 390.743 76.0704 392.692 75.7501L391.481 76.6462C392.02 77.7246 392.768 77.2083 394.008 76.7689L392.664 76.6074L393.26 75.5238C394.311 75.858 398.267 75.4496 400.131 75.3123L399.942 76.6074C400.481 76.4943 401.011 76.2862 401.466 75.2234C402.791 75.6421 404.901 74.4395 405.743 74.8496L405.677 75.4841C406.766 74.5197 407.343 74.9722 408.299 74.7943L407.21 76.1783C408.999 75.4151 412.141 72.5633 412.312 74.5586C411.536 75.6421 411.592 74.7261 410.854 75.3702L412.075 75.8329L412.747 74.5094C413.637 74.1787 413.126 74.8876 413.078 75.0905C415.312 73.0762 416.315 74.5828 418.217 72.9078C417.99 73.9421 415.709 75.03 415.482 76.3804C416.457 75.3512 417.432 75.1345 418.388 73.3119C419.239 73.1444 418.87 74.9825 420.763 72.9432C421.132 73.627 423.262 73.7254 424.625 72.4847C424.388 74.095 426.29 72.1688 426.527 73.1444C425.988 74.0596 425.429 74.1683 424.88 75.2234C426.073 74.2918 425.448 75.6715 426.659 74.2918C427.36 73.2877 426.129 74.5931 425.921 74.4395L426.981 72.8689C430.322 72.9674 434.515 71.9425 438.405 71.6671L436.483 73.8135L438.196 72.2931L439.474 72.0764L439.805 71.8786L439.711 72.0375C442.011 71.7258 443.582 72.1299 446.137 70.821L445.588 71.8441C447.027 70.9876 448.844 70.214 447.755 71.8596L449.544 70.2641L449.724 70.8892C450.623 70.8296 453.036 69.6779 452.857 70.6526C458.848 68.5641 463.201 68.3863 468.217 66.9729L469.599 66.0724L470.138 66.2105C473.527 64.3188 477.416 61.3393 480.303 59.8085C479.906 59.3699 476.631 61.7192 474.927 62.428L473.546 62.6896C472.684 62.9745 472.258 62.7129 471.435 62.8329C470.564 63.0186 469.116 63.7818 468.198 64.0141L467.1 63.8811C464.252 64.4777 461.214 65.0976 457.939 65.6933L456.188 65.4568C453.178 65.6493 448.957 66.8218 445.446 67.1412C444.594 67.2241 444.064 66.8503 443.146 66.9936C442.086 67.1464 440.78 67.6541 439.872 67.6196C435.991 67.541 431.571 68.268 427.767 68.3336C425.599 68.3232 424.521 68.6876 426.338 64.5114C425.325 64.6486 421.918 66.5446 421.719 64.7773C420.309 64.6193 417.337 67.0523 417.271 65.3929C415.69 66.707 414.46 66.4713 414.772 64.9931C415.984 63.3536 417.754 63.2655 418.246 63.8215C421.643 62.6896 425.23 62.1474 426.915 63.256C427.994 61.7192 429.092 61.7339 429.811 61.5612L430.407 60.4871C428.183 58.9071 420.981 61.8625 418.511 58.7198C421.501 58.2915 426.082 56.538 429.622 56.0744C431.43 55.8542 432.66 56.5337 434.543 56.2471C436.701 55.9423 438.471 56.3351 440.648 56.0398C447.358 55.1393 452.412 54.5091 457.939 53.3513C458.8 51.6616 455.469 54.0652 456.472 52.1796C453.32 53.6128 451.957 51.7505 448.522 52.7943L446.941 53.6612L445.844 53.1786L443.629 53.9133L442.701 53.1104L441.604 53.8477C440.969 53.9712 440.79 52.942 439.711 54.2276L440.326 53.1L438.282 54.5186C438.386 53.726 436.9 54.5539 437.307 53.4246C433.502 53.9763 430 53.814 426.016 54.528C422.419 55.1885 419.003 53.7899 415.539 54.4987C414.432 54.7258 413.069 55.6116 411.971 55.7109C410.012 55.8922 407.693 56.4396 406.794 55.356C400.396 55.0797 394.14 57.0258 388.878 56.0899C385.67 56.8635 382.603 56.7444 379.877 56.848L380.228 55.4596C381.051 54.5928 380.426 56.2565 380.881 56.2617L381.543 54.8881C383.218 55.3362 386.588 53.4298 387.865 55.0167L388.66 54.1438L388.651 55.8542L389.834 54.3812C398.418 53.4497 404.75 52.1744 411.914 52.3411L412.151 53.1941C413.911 53.302 416.504 52.1597 418.198 51.9767L419.107 52.7011C419.542 52.5733 421.094 50.8051 420.555 52.7943L421.908 51.5191C423.252 51.9085 423.981 53.2623 426.234 50.9329C427.454 51.0175 427.038 51.6573 428.798 50.5642L428.59 51.9672L429.309 50.7559C432.868 49.7216 434.988 50.9674 438.31 49.7958C438.206 48.436 436.436 48.4809 435.016 48.4412C428.77 48.2788 420.441 50.4805 413.703 49.5687L413.372 48.1303C410.722 48.8202 408.867 47.3973 406.368 47.5545C404.39 47.7168 401.655 49.3719 400.926 47.6779C404.352 43.1029 406.917 47.8998 410.741 44.4618C409.435 44.0621 407.892 44.9841 407.144 43.841C409.065 41.8967 410.977 41.68 412.529 41.4874C415.473 41.1119 418.444 41.1723 421.492 40.8606C428.704 40.1336 436.985 39.7883 443.62 39.4386C447.699 39.2357 451.219 38.4587 454.664 37.2663C451.626 35.9013 445.645 37.6747 441.48 36.8036C446.686 35.3704 453.207 35.3548 457.787 36.0343L457.125 37.3259L457.967 36.2769L460.428 35.9911Z" fill="#4C626A" fill-opacity="0.75"/>
<path d="M243.648 67L244.08 63.88L246.768 63.4L259.488 35.512H264.816L270.288 63.304L273.648 63.88L273.456 67H259.44L259.68 63.88L262.8 63.4L261.984 58.744H253.2L251.28 63.304L255.072 63.88L254.688 67H243.648ZM254.736 55.24H261.408L260.016 44.776L259.968 43.24H259.728L259.248 44.776L254.736 55.24ZM272.937 67L273.465 63.88L276.873 63.208L280.185 39.688L276.777 39.016L277.209 35.896H289.881C291.737 35.896 293.401 36.088 294.873 36.472C296.377 36.856 297.561 37.592 298.425 38.68C299.289 39.736 299.721 41.304 299.721 43.384C299.721 44.984 299.385 46.44 298.713 47.752C298.041 49.032 297.113 50.12 295.929 51.016C294.745 51.88 293.353 52.488 291.753 52.84C292.745 53.352 293.481 54.072 293.961 55C294.473 55.896 294.953 56.904 295.401 58.024L297.705 63.592L300.633 64.408L300.297 67H293.769C292.617 67 291.849 66.872 291.465 66.616C291.113 66.36 290.777 65.8 290.457 64.936L286.905 55.288C286.745 54.84 286.569 54.536 286.377 54.376C286.185 54.184 285.929 54.088 285.609 54.088L284.169 63.592L287.001 64.408L286.665 67H272.937ZM285.993 50.824C288.169 50.824 289.817 50.216 290.937 49C292.057 47.752 292.617 45.928 292.617 43.528C292.617 42.312 292.297 41.352 291.657 40.648C291.017 39.912 290.089 39.544 288.873 39.544C288.489 39.544 288.201 39.56 288.009 39.592C287.849 39.624 287.705 39.672 287.577 39.736L285.993 50.824ZM303.894 67L304.326 63.88L307.734 63.208L311.094 39.496H306.294L304.518 45.064H301.11L302.118 35.896H327.654L326.31 45.064H322.95L322.806 39.496H318.294L315.03 63.208L318.438 63.88L317.958 67H303.894Z" fill="white"/>
</svg>
