<svg width="443" height="132" viewBox="0 0 443 132" fill="none" xmlns="http://www.w3.org/2000/svg">
<path fill-rule="evenodd" clip-rule="evenodd" d="M71.8453 28.8273C71.0776 29.7528 72.2247 30.8529 71.2712 31.5824L69.8327 31.245C70.0792 30.1702 70.9272 28.1525 71.8453 28.8273ZM371.514 130.687C366.253 131.474 360.074 132.359 355.67 131.85C366.757 131.238 377.586 130.311 385.053 125.813C382.653 129.464 376.722 129.887 371.514 130.687ZM98.6773 68.6659C98.3608 68.0458 97.1419 69.0193 96.0916 68.6352L95.8089 67.7231C96.5419 67.4724 97.7868 66.1761 98.6868 67.1349C97.6718 67.371 99.5513 68.5805 98.6773 68.6659ZM84.6699 56.2399C87.2297 56.4746 87.8297 54.5982 84.6699 56.2399ZM66.8761 52.926C64.9604 52.3845 63.7683 49.4733 64.3077 47.385C64.3164 50.1081 65.358 51.7564 66.8761 52.926ZM60.8645 44.5979L60 44.8713C61.4558 42.8776 62.9928 41.7094 60.8645 44.5979ZM94.8208 28.8513L92.8169 29.126C91.5721 29.2593 90.6894 29.4554 89.939 29.3847C89.1273 29.322 92.5523 28.4032 94.8208 28.8513ZM96.5766 20.3099C95.1995 20.6633 94.0082 21.222 92.5697 21.4794C93.3027 20.6393 95.7294 20.0045 96.5766 20.3099ZM99.7812 12.7033L102.667 11.5177C101.572 11.5737 100.381 13.1273 99.7812 12.7033ZM432.576 50.5162L429.999 50.5789C431.261 49.9748 432.046 50.1082 432.576 50.5162ZM97.1593 22.4529C99.8607 22.2568 101.678 23.0023 104.045 23.1517C104.857 21.2127 109.631 23.2144 110.664 20.8046C105.783 20.946 100.381 20.5139 97.1593 22.4529ZM112.73 76.4992C114.23 76.3352 115.183 76.7526 116.472 76.8526C114.813 75.7471 117.61 76.4765 117.61 75.331C116.516 76.3031 112.897 74.5442 112.73 76.4992ZM111.741 104.633L111.441 104.916H110.885C112.103 107.931 119.225 107.343 120.612 111.174C125.969 112.767 129.941 115.827 136.111 116.574C134.857 117.483 132.827 115.648 131.512 116.511C140.763 119.016 151.248 117.091 162.264 117.499C154.012 116.212 143.658 114.91 136.129 112.9C131.601 111.7 127.064 110.766 122.933 108.747C121.742 108.159 120.788 107.123 119.49 106.564C116.799 105.451 113.948 106.8 111.741 104.633ZM276.938 120.884C244.447 118.074 208.497 120.397 173.747 118.27C164.77 117.713 155.803 118.529 147.02 118.537C158.477 120.476 171.293 120.947 182.936 122.641C167.163 122.211 151.539 118.984 134.672 118.701C177.004 129.895 233.564 126.363 276.938 120.884ZM268.879 122.948C268.279 122.248 266.478 122.823 265.419 122.619C266.011 123.324 267.811 122.752 268.879 122.948ZM310.549 119.024C321.6 119.093 335.104 120.334 345.926 118.937C347.143 119.268 344.416 119.242 345.643 119.557C349.456 119.676 352.829 119.292 355.405 118.074C325.016 117.995 285.526 113.025 254.209 116.998C273.319 118.466 291.863 118.905 310.549 119.024ZM348.221 120.492C345.723 119.972 341.23 119.95 338.724 120.434C341.857 120.373 346.013 120.569 348.221 120.492ZM387.365 119.392L388.214 118.489C377.427 118.701 363.799 119.588 351.945 120.498C363.667 121.292 376.492 120.585 387.365 119.392ZM375.847 117.225C376.8 118.158 380.464 117.037 377.004 117.241L375.847 117.225ZM360.587 119.024C362.775 118.913 365.564 118.889 367.206 118.741C365.847 118.278 357.524 118.042 357.426 119C356.738 119.809 359.554 119.07 360.587 119.024ZM351.389 116.833C352.166 117.547 354.17 116.958 355.405 117.162C355.035 116.746 352.669 116.323 351.389 116.833ZM389.953 114.501C391.277 114.211 392.892 113.363 393.404 111.762C381.214 113.655 365.909 113.52 353.401 113.167C351.434 113.121 349.597 112.586 347.664 112.837C345.528 113.121 343.561 114.227 341.336 114.329C338.864 114.455 336.296 113.811 333.859 113.684C319.491 112.9 304.608 113.025 290.16 114.267C306.135 114.627 325.81 116.644 343.922 115.868C348.256 115.703 350.621 115.278 353.985 114.093C355.123 114.548 352.749 115.364 353.685 115.624C355.459 115.152 359.183 116.794 359.148 114.423C360.058 114.376 359.271 116.135 360.604 115.648C369.713 114.423 381.681 116.346 389.953 114.501ZM305.65 5.8035C307.31 7.72649 311.026 7.47572 313.682 8.31453C312.632 6.98098 308.537 6.21824 305.65 5.8035ZM286.417 115.16C287.971 115.122 287.609 114.956 289.003 114.878L286.417 115.16ZM153.376 112.193C168.963 115.326 188.779 117.483 209.388 117.147L209.671 116.841C190.465 115.782 171.875 114.031 153.376 112.193ZM164.576 109.273C157.771 108.143 151.168 105.968 144.213 105.043C137.02 104.1 129.756 103.692 122.668 102.027C120.894 102.459 123.948 103.166 123.524 102.948C134.345 108.323 151.168 109.327 165.459 110.821C180.729 112.421 198.214 113.984 213.131 114.736C196.475 112.579 180.306 111.896 164.576 109.273ZM147.109 24.9413C148.114 25.4907 152.511 25.4667 152.572 25.02C150.992 24.2985 148.803 24.84 147.109 24.9413ZM72.957 37.7288C76.2498 36.882 77.9796 34.3469 81.5984 33.8588C79.5323 32.8626 76.1167 34.9189 74.7128 34.0628L74.431 33.1453C80.6008 32.6893 86.603 32.5866 91.9429 33.0813C91.0335 31.1583 96.542 31.221 97.9718 29.8088C97.1065 29.6981 95.7648 30.1142 95.6861 29.1727C99.1631 26.6763 104.953 26.7083 110.055 25.9935L109.773 25.0747C108.625 24.5572 108.457 26.6683 107.769 25.6548V24.7453C103.241 24.6986 95.3239 20.3339 91.113 24.824C93.6027 24.7453 97.142 25.412 99.4277 26.4642C95.5885 26.0415 90.6099 24.808 88.5186 27.5391C88.8887 26.0175 88.1745 25.6641 87.3706 25.3881C89.5509 24.3532 92.5697 23.1197 94.5562 22.1235C97.1679 20.8046 100.973 21.094 104.918 20.4192C107.769 19.9338 111.353 19.2511 114.106 18.7003C116.013 18.3242 120.647 16.7933 119.005 16.3146C163.014 12.8673 210.686 9.51607 256.875 7.52241C273.257 6.80095 288.377 5.88883 304.229 7.02102C299.939 3.46443 292.614 4.49929 286.434 4.10856C278.032 3.59781 265.216 3.69914 253.989 4.12321C232.037 4.97135 210.792 6.73027 190.844 7.11433C190.297 7.12234 186.536 7.31837 188.258 7.08366C192.953 6.42222 199.997 5.5514 204.896 5.14467C208.382 4.83662 211.171 3.72316 214.375 3.10306C223.723 1.28142 234.243 1.45476 245.1 0.976013C271.597 -0.202849 300.364 -1.74043 320.585 5.92084C321.238 7.54644 322.686 8.3612 324.01 9.31203C340.215 9.3747 358.398 11.4457 374.497 12.3112C376.007 12.3886 378.98 12.9633 378.504 12.9393C382.361 13.1754 386.678 12.5152 390.844 12.954C390.914 12.9633 400.782 13.8341 405.725 13.5514L405.16 12.9393C418.462 14.2889 429.486 10.6869 441.693 12.6953C439.142 13.238 437.2 14.4383 435.726 16.1332C436.936 16.8027 438.26 16.6679 439.716 16.3932C438.515 17.7668 435.073 16.7533 433.758 17.9948C434.87 19.3297 432.893 19.5178 433.758 21.3621C439.698 21.2127 434.782 21.15 441.561 21.4954C439.805 21.8181 437.634 21.7608 436.883 23.1824C438.905 23.1517 440.493 23.6144 441.606 24.5573L439.699 26.1668L443 26.951C440.352 27.139 437.713 27.3897 435.515 28.1138L437.51 28.3805C436.442 28.89 435.162 29.1326 434.129 29.6821C434.845 29.9194 435.648 30.0528 436.68 29.9195C436.301 31.9758 438.49 32.2025 439.231 33.8268C437.898 36.8033 433.264 35.2483 430.775 36.4965C432.267 38.0275 435.771 37.3207 438.145 37.8315L435.33 38.5302L437.069 41.8348C435.692 41.8348 434.483 41.9988 433.662 42.5335C434.456 42.6896 434.218 43.9778 435.083 44.0405L434.253 45.8928C435.144 46.5595 437.245 45.8701 437.396 47.3384C436.071 48.3892 433.035 47.6677 431.984 49.0093C432.417 49.26 434.88 49.8735 433.424 50.1948C432.797 49.5521 431.984 49.0946 430.855 49.0173L429.716 50.8856C425.303 50.7909 440.687 51.5671 438.154 50.3669L437.589 51.2937C430.793 51.8044 428.948 51.167 421.824 52.6592C424.226 53.6794 427.447 53.5554 429.274 54.1275C428.215 54.3395 426.335 53.6647 426.132 54.7796C427.774 55.4477 430.016 55.5024 431.878 55.9491C430.581 56.0105 429.592 56.3892 429.574 57.8094C431.455 57.3147 431.092 59.2377 432.169 59.6137C434.129 59.8031 435.947 58.7509 437.042 60.1792C438.074 60.8006 435.462 59.5431 435.32 60.5019L436.759 62.3235C431.375 63.265 425.117 63.069 419.548 63.6891C416.74 63.9798 413.643 64.4332 411.498 65.5414C412.406 65.4867 413.615 65.7534 414.084 65.228C413.89 67.0723 411.436 66.4908 410.076 67.0883C416.458 69.0646 427.791 67.2603 433.926 68.4685L433.07 70.3062C428.577 70.2435 424.569 72.0411 420.139 71.029C421.939 71.9624 419.759 72.1745 419.556 73.4707C423.484 73.7054 427.729 71.9944 428.78 75.5497C427.165 77.4193 424.711 78.4075 422.451 79.5677L424.455 80.1811C423.334 81.1853 423.316 81.484 423.899 83.2349C422.019 83.9111 419.309 83.6991 417.553 84.4832C420.121 87.9051 425.911 86.6729 430.528 87.1596C429.654 87.5677 427.968 87.105 427.65 88.1011C429.186 88.6119 429.354 90.5589 430.828 91.1323L428.215 91.775L429.389 91.4537C424.569 92.0125 418.171 93.4793 412.971 94.6022C413.395 96.1011 415.787 95.465 417.005 96.1158L415.567 98.8789C410.527 99.0136 402.247 98.1894 398.011 100.135C393.968 99.3349 386.722 100.088 381.329 99.8217L381.602 102.877C375.847 105.717 371.672 110.231 363.764 110.766C370.101 111.008 375.185 108.276 381.029 108.99C377.145 109.131 374.938 111.062 371.813 112.029C380.966 110.766 393.05 112.617 398.585 107.484C399.511 108.982 397.525 108.943 398.011 109.627L399.45 110.223C397.472 110.6 395.424 110.858 394.268 112.068L394.551 113.293L396.572 113.599C393.924 116.174 389.087 116.448 385.335 117.87C387.349 117.883 388.575 117.295 389.953 117.878L388.505 118.489C389.369 118.937 390.667 117.862 391.391 118.489L391.091 119.093C392.592 117.917 394.233 119.697 394.833 121.244C392.097 123.756 387.772 123.019 383.888 123.372C380.949 123.654 377.851 124.667 374.974 124.588C353.455 123.827 328.644 121.856 306.815 122.956L307.372 123.583C303.726 123.615 300.831 123.67 297.609 123.811C270.662 125.045 243.989 129.189 217.386 130.381C194.983 131.387 171.558 130.719 150.445 127.446L148.142 126.513C138.239 124.062 127.857 122.548 119.72 118.497C116.984 117.131 114.274 114.956 111.697 114.109C107.716 112.821 102.853 112.413 98.4828 111.47C91.3949 109.987 84.714 108.747 79.5323 107.247C90.1776 107.343 100.258 111.872 109.993 112.86C108.766 111.15 105.076 110.545 105.103 108.519L106.56 107.004L105.404 106.996L106.277 106.087C105.404 105.851 103.585 107.414 104.274 106.055L106.56 105.788C106.127 104.288 107.407 104.641 107.442 103.661C108.581 103.473 109.614 103.144 109.455 101.534L112.041 101.267L108.881 101.227C107.971 101.001 108.501 100.418 108.599 99.6963C107.346 99.9084 106.357 98.8416 105.439 99.6497C105.986 101.126 107.442 101.627 107.442 103.661C105.872 103.677 105.642 102.278 103.991 102.389C103.947 102.79 105.165 103.322 104.274 103.614C103.197 101.314 100.081 101.745 98.2537 102.319L99.6922 99.571C97.7159 98.8335 95.6861 99.6177 95.0853 99.8217C95.4207 99.163 91.6429 98.9042 90.5044 97.9227C92.1634 97.8587 92.8783 96.7999 93.9641 96.1317C91.4925 95.889 90.787 93.7634 87.9352 93.9101C88.58 92.6552 90.2044 92.4752 90.539 90.8816L89.0926 89.3347C91.4925 88.2518 94.5562 87.9771 94.8735 85.45C98.1128 86.6022 102.128 84.0911 105.792 83.7457C104.168 83.5323 101.776 84.1071 100.628 83.3763L101.193 82.4735L99.7726 83.0536L100.063 81.532L98.3427 80.8959C98.8458 79.0983 100.893 77.3246 101.802 76.9699L99.2072 80.6052C100.443 78.9649 104.061 79.9304 105.245 78.2421L103.806 77.9128C107.407 77.27 112.411 76.6806 113.885 72.8426C112.447 71.7117 109.861 73.3133 109.005 72.7706L107.284 70.9196C105.439 72.1425 103.7 75.2137 101.255 73.9014C100.143 74.7336 99.1104 75.6911 97.5033 75.9818C97.1065 74.3175 96.453 74.8189 95.1995 74.1215C98.5458 74.8896 99.9135 71.5077 104.124 70.8783L105.562 72.1198C107.39 68.5019 108.44 69.6474 112.182 68.5325C107.221 68.7766 104.168 66.7042 99.834 68.0684C100.205 66.5375 103.824 64.9613 104.432 66.6002C104.883 65.4387 106.56 64.0038 107.592 64.4972C106.375 65.1173 105.28 65.8867 104.715 67.2296C105.969 67.323 107.08 67.5897 108.157 67.8644C108.519 65.9174 110.664 65.8788 111.918 64.8586C110.505 64.4652 113.074 63.6197 112.491 62.1195L110.77 61.49L111.635 60.8859C108.686 60.0218 107.795 60.6352 105.606 59.2697L106.762 58.979L103.902 57.7148C106.657 57.9121 107.204 56.3572 109.066 57.7934C111.29 56.7186 113.85 54.3635 114.821 52.9739C112.261 52.8006 110.285 51.8671 107.955 52.2672L107.654 54.1048C107.046 54.2222 108.271 52.2045 107.363 51.9538C103.559 51.411 102.128 55.093 99.0214 54.2848C103.135 51.8911 106.797 48.9933 113.118 48.9693C109.552 48.7653 106.127 48.3892 102.791 47.9184L102.773 49.4414C99.3757 51.9925 97.7954 55.6264 94.4145 56.9853C95.4026 54.8809 98.2183 54.7396 98.7482 52.1418C96.7183 51.9925 94.8562 53.6554 93.2933 52.9966C94.2121 51.1603 94.9176 49.0399 96.7624 47.5264C94.0082 47.165 89.6391 48.4679 89.0036 45.8928C90.3981 45.6581 91.6965 45.3207 92.4634 44.4165C90.328 44.5192 88.5627 44.2285 87.0179 43.7271L85.5612 45.242C83.5046 43.483 82.2433 47.289 80.0977 46.3955L81.2716 45.178C80.7512 43.9778 79.3914 43.6791 78.1119 43.303C77.2206 43.5537 77.2647 44.8406 76.3726 45.1086C75.6672 44.2285 74.6522 43.6791 73.2215 43.5378C73.257 41.6934 72.957 41.6468 71.5184 41.0733C74.105 39.5664 77.3261 38.7663 80.1417 37.5007C77.7056 36.8193 75.2254 39.5037 72.957 37.7288ZM380.446 125.507C369.731 126.151 360.887 125.162 349.65 125.397C359.069 124.926 372.148 124.997 380.446 125.507ZM345.908 125.067C344.01 125.154 340.259 125.209 338.724 124.73L343.604 124.746C346.843 124.73 349.615 124.895 345.908 125.067ZM333.542 124.683C332.483 124.487 330.683 125.067 330.1 124.362C331.168 124.558 332.968 123.983 333.542 124.683ZM257.952 121.613C258.861 121.644 260.017 121.644 261.112 121.652C267.307 121.764 260.944 122.399 257.952 121.613ZM250.467 121.244C251.438 121.268 252.383 121.244 253.627 121.276C259.329 121.401 253.274 122.021 250.467 121.244ZM249.029 121.229C247.421 121.009 245.021 121.599 243.847 120.868C245.489 121.088 247.89 120.498 249.029 121.229ZM236.962 120.498C237.933 120.514 238.886 120.498 240.122 120.538C245.833 120.656 239.752 121.268 236.962 120.498ZM236.68 120.492C235.144 120.288 232.849 120.852 231.798 120.129C233.334 120.35 235.621 119.776 236.68 120.492ZM230.643 120.122C229.575 119.909 227.774 120.492 227.2 119.776C228.259 119.981 230.06 119.416 230.643 120.122ZM117.707 118.474C108.113 117.917 98.5978 119.086 89.5509 118.097C98.1128 117.713 110.302 117.878 117.707 118.474ZM226.353 119.76C225.099 119.564 223.079 120.129 222.31 119.424C223.564 119.634 225.55 119.062 226.353 119.76ZM83.6369 96.2971C82.3047 97.232 80.7417 97.8987 78.7387 98.0707C80.204 97.5146 81.9252 95.5984 83.6369 96.2971ZM90.2839 82.6149C90.4075 83.5817 90.0186 83.9817 89.1446 83.8244C89.0037 82.8735 89.3926 82.4735 90.2839 82.6149ZM92.8783 81.1226L94.8822 81.172V81.776L92.8783 81.1226ZM84.555 80.4011L88.5801 81.0679C87.4234 81.68 84.8991 82.1134 84.555 80.4011ZM85.9848 78.2822L87.7147 77.3874C86.7628 77.27 87.4053 78.8956 85.9848 78.2822ZM89.78 69.1527C89.3485 69.6314 88.6596 69.7807 87.7502 69.7407L89.78 69.1527ZM93.2318 67.0563C94.7766 66.3588 95.7294 65.2906 97.5301 65.8961C96.0475 66.0041 94.2467 67.4564 93.2318 67.0563ZM87.2037 64.2238C87.5651 65.2586 86.4352 66.9856 85.4825 67.5751C85.6849 66.3175 87.1415 65.9654 86.3557 64.5119L87.2037 64.2238ZM87.5029 63.3117C86.3297 63.2103 86.4352 63.4997 85.7825 63.5864C82.6661 64.0038 85.7644 62.4408 87.5029 63.3117ZM93.8413 57.2907C94.8121 58.0908 96.4175 56.7493 97.2829 57.9508C96.1357 58.0362 94.3696 59.0576 93.2767 58.2015C94.6082 58.4762 92.8783 57.3854 93.8413 57.2907ZM69.4713 47.4637C67.9792 46.4969 64.9337 46.881 63.7243 46.4582C65.3226 45.7754 69.4973 46.4662 69.4713 47.4637ZM96.5585 24.2825C97.9718 24.1652 101.272 24.6506 101.723 24.9653C100.266 24.9027 99.8607 24.996 98.8631 24.9173C98.1742 24.8706 95.227 24.3839 96.5585 24.2825ZM116.41 17.2014C114.168 17.012 111.538 17.224 110.099 16.1972C112.005 16.5573 115.669 16.6599 116.41 17.2014Z" fill="#4C626A"/>
<path d="M4.44285 84V81.184L9.69085 80.224V46.304L4.44285 45.344V42.528H20.5069V45.344L15.2589 46.304V80.224L20.5069 81.184V84H4.44285ZM27.7584 53.728L25.5824 52.832C26.3077 51.4667 26.8624 50.144 27.2464 48.864C27.673 47.584 27.8864 46.4747 27.8864 45.536C27.8864 44.64 27.7157 43.808 27.3744 43.04C27.0757 42.2293 26.7344 41.568 26.3504 41.056C26.8197 40.416 27.353 39.84 27.9504 39.328C28.5477 38.7733 29.3157 38.496 30.2544 38.496C31.4064 38.496 32.3024 38.9013 32.9424 39.712C33.625 40.48 33.9664 41.4187 33.9664 42.528C33.9664 43.5947 33.689 44.7467 33.1344 45.984C32.6224 47.1787 31.9824 48.3093 31.2144 49.376C30.489 50.4427 29.785 51.36 29.1024 52.128C28.4624 52.896 28.0144 53.4293 27.7584 53.728ZM37.8369 84V81.376L42.9569 80.48V57.632L37.8369 56.608V54.176L46.4769 52.384L48.1409 54.816C49.6342 53.9627 51.2769 53.2587 53.0689 52.704C54.8609 52.1067 56.4395 51.808 57.8049 51.808C59.6395 51.808 61.1115 52.128 62.2209 52.768C63.3729 53.3653 64.2689 54.176 64.9089 55.2C65.8049 54.688 66.8929 54.176 68.1729 53.664C69.4529 53.152 70.7969 52.704 72.2049 52.32C73.6129 51.936 74.9355 51.744 76.1729 51.744C78.5622 51.744 80.4609 52.4907 81.8689 53.984C83.3195 55.4347 84.0449 57.44 84.0449 60V80.48L89.1649 81.376V84H73.8689V81.376L78.7969 80.48V61.408C78.7969 59.5307 78.3062 58.208 77.3249 57.44C76.3862 56.6293 74.7862 56.224 72.5249 56.224C71.7142 56.224 70.6689 56.288 69.3889 56.416C68.1089 56.544 66.9782 56.7573 65.9969 57.056C65.9969 57.2693 65.9969 57.5253 65.9969 57.824C66.0395 58.1227 66.0609 58.4 66.0609 58.656V80.48L69.9649 81.44V84H56.7169V81.44L60.8129 80.48V61.408C60.8129 59.488 60.3435 58.144 59.4049 57.376C58.4662 56.608 56.8662 56.224 54.6049 56.224C53.8369 56.224 52.8555 56.288 51.6609 56.416C50.4662 56.5013 49.3142 56.7147 48.2049 57.056V80.48L53.1969 81.376V84H37.8369Z" fill="#4C626A"/>
<path d="M125.584 84V80.096L130.896 78.816V47.648L126.608 46.816V42.528H143.44L151.504 71.264L151.888 74.528H152.208L152.656 71.264L160.72 42.528H177.36V46.88L173.328 47.584V78.88L178.384 80.16V84H158.032V80.16L163.088 78.88V59.168L163.344 57.568H162.896L155.536 84H146L137.936 57.568H137.552L137.744 59.104V78.816L143.312 80.096V84H125.584ZM192.129 84.896C189.91 84.896 188.097 84.4907 186.689 83.68C185.281 82.8693 184.257 81.824 183.617 80.544C182.977 79.264 182.657 77.8987 182.657 76.448C182.657 74.4427 183.169 72.8213 184.193 71.584C185.217 70.304 186.518 69.3013 188.097 68.576C189.718 67.8507 191.382 67.3387 193.089 67.04L200.321 65.76V61.728C200.321 60.96 200.236 60.2133 200.065 59.488C199.937 58.7627 199.574 58.1867 198.977 57.76C198.38 57.2907 197.42 57.056 196.097 57.056C195.329 57.056 194.753 57.0987 194.369 57.184C194.028 57.2267 193.75 57.2907 193.537 57.376L192.641 63.072C192.556 63.1147 192.129 63.2427 191.361 63.456C190.636 63.6693 189.782 63.776 188.801 63.776C187.18 63.776 185.942 63.52 185.089 63.008C184.278 62.4533 183.873 61.3653 183.873 59.744C183.873 58.2933 184.321 57.056 185.217 56.032C186.156 54.9653 187.329 54.0907 188.737 53.408C190.188 52.6827 191.724 52.1493 193.345 51.808C194.966 51.4667 196.481 51.296 197.889 51.296C200.321 51.296 202.433 51.552 204.225 52.064C206.017 52.576 207.404 53.4933 208.385 54.816C209.366 56.1387 209.857 58.016 209.857 60.448V78.56L214.593 79.456V82.976C214.465 83.0187 214.017 83.168 213.249 83.424C212.524 83.68 211.606 83.9147 210.497 84.128C209.43 84.3413 208.321 84.448 207.169 84.448C205.164 84.448 203.734 84.192 202.881 83.68C202.07 83.168 201.473 82.4 201.089 81.376H200.641C200.342 81.6747 199.809 82.1227 199.041 82.72C198.273 83.2747 197.313 83.7653 196.161 84.192C195.009 84.6613 193.665 84.896 192.129 84.896ZM196.801 78.816C197.484 78.816 198.102 78.7307 198.657 78.56C199.212 78.3467 199.766 78.0907 200.321 77.792V70.688C197.974 70.9013 196.268 71.2427 195.201 71.712C194.134 72.1813 193.452 72.736 193.153 73.376C192.897 73.9733 192.769 74.592 192.769 75.232C192.769 77.6213 194.113 78.816 196.801 78.816ZM216.076 84V80.16L221.132 79.264V57.888L216.076 56.8V52.704L227.788 51.36L229.964 54.688H230.22C231.842 53.5787 233.506 52.7253 235.212 52.128C236.919 51.488 238.434 51.168 239.756 51.168C242.914 51.168 245.26 51.936 246.796 53.472C248.332 55.008 249.1 57.3547 249.1 60.512V79.264L253.708 80.16V84H235.596V80.16L239.564 79.264V62.176C239.564 60.2133 239.287 58.912 238.732 58.272C238.178 57.632 236.962 57.312 235.084 57.312C234.53 57.312 233.932 57.3333 233.292 57.376C232.652 57.4187 231.778 57.5467 230.668 57.76V79.264L234.636 80.16V84H216.076ZM267.808 84.832C265.291 84.832 263.115 84.2987 261.28 83.232C259.445 82.1653 258.037 80.5227 257.056 78.304C256.117 76.0427 255.648 73.2053 255.648 69.792C255.648 66.6773 256.011 63.968 256.736 61.664C257.504 59.36 258.528 57.44 259.808 55.904C261.131 54.368 262.645 53.216 264.352 52.448C266.101 51.68 267.957 51.296 269.92 51.296C271.371 51.296 272.587 51.488 273.568 51.872C274.592 52.256 275.403 52.6827 276 53.152L276.192 52.96L275.616 52.512V45.856L270.432 44.384V40.288L282.592 39.264L285.152 40.16V77.92L290.528 78.944V83.04L278.432 84.576L276.704 81.504H276.512C276.043 82.016 275.403 82.528 274.592 83.04C273.824 83.552 272.885 83.9787 271.776 84.32C270.667 84.6613 269.344 84.832 267.808 84.832ZM271.456 78.752C272.395 78.752 273.184 78.6453 273.824 78.432C274.464 78.2187 275.061 77.9627 275.616 77.664V57.504C274.976 57.3333 274.272 57.2053 273.504 57.12C272.779 56.992 271.989 56.928 271.136 56.928C269.941 56.928 268.939 57.312 268.128 58.08C267.36 58.848 266.784 60.1067 266.4 61.856C266.016 63.6053 265.824 65.952 265.824 68.896C265.824 71.584 266.037 73.6533 266.464 75.104C266.891 76.512 267.531 77.472 268.384 77.984C269.237 78.496 270.261 78.752 271.456 78.752ZM301.419 95.2C300.48 95.2 299.499 95.136 298.475 95.008C297.451 94.9227 296.598 94.816 295.915 94.688V90.72L305.259 88.416L307.499 80.864L311.019 84H304.619L294.507 56.864L289.515 56.096V52.192H308.843V56.352L304.683 56.928V57.568L309.803 72.544L310.187 74.272L310.571 72.544L315.499 57.632V56.864L310.699 56.352V52.192H326.955V56.416L322.283 56.864L310.891 90.272C310.208 92.192 309.184 93.4933 307.819 94.176C306.454 94.8587 304.32 95.2 301.419 95.2ZM336.902 84V80.16L341.958 78.88V47.648L336.902 46.368V42.528H357.318V46.368L352.262 47.648V59.872H366.918V47.648L361.862 46.368V42.528H382.278V46.368L377.222 47.648V78.88L382.278 80.16V84H361.862V80.16L366.918 78.88V65.248H352.262V78.88L357.318 80.16V84H336.902ZM401.584 84.832C398.469 84.832 395.717 84.4053 393.328 83.552C390.939 82.656 389.061 81.0347 387.696 78.688C386.331 76.3413 385.648 72.992 385.648 68.64C385.648 64.928 386.309 61.792 387.632 59.232C388.955 56.6293 390.768 54.6667 393.072 53.344C395.419 51.9787 398.085 51.296 401.072 51.296C403.803 51.296 406.043 51.7227 407.792 52.576C409.541 53.3867 410.885 54.4747 411.824 55.84C412.805 57.1627 413.467 58.592 413.808 60.128C414.192 61.664 414.384 63.1573 414.384 64.608C414.384 66.784 414.128 68.2133 413.616 68.896C413.104 69.536 412.379 69.856 411.44 69.856H395.888C395.931 71.8613 396.187 73.5467 396.656 74.912C397.125 76.2347 397.936 77.216 399.088 77.856C400.24 78.496 401.797 78.816 403.76 78.816C406.491 78.816 408.539 78.5813 409.904 78.112C411.269 77.6427 412.037 77.3653 412.208 77.28L413.552 80.288C413.381 80.4587 412.784 80.928 411.76 81.696C410.779 82.4213 409.435 83.1253 407.728 83.808C406.021 84.4907 403.973 84.832 401.584 84.832ZM395.824 65.248L404.272 64.736C404.4 63.968 404.464 63.328 404.464 62.816C404.464 60.8107 404.251 59.3813 403.824 58.528C403.397 57.632 402.416 57.184 400.88 57.184C399.472 57.184 398.405 57.568 397.68 58.336C396.997 59.0613 396.528 60.0427 396.272 61.28C396.059 62.4747 395.909 63.7973 395.824 65.248Z" fill="white"/>
</svg>
