<svg width="739" height="112" viewBox="0 0 739 112" fill="none" xmlns="http://www.w3.org/2000/svg">
<path fill-rule="evenodd" clip-rule="evenodd" d="M705.266 71.9517L703.783 72.6033L704.892 74.0252C703.124 74.8249 702.33 73.492 700.413 73.956L701.012 72.8798L701.941 73.5413C703.259 73.2648 702.091 71.8134 702.705 71.2013L705.146 71.458L705.266 71.9517ZM669.675 75.4963L666.694 74.7854L670.184 74.1733L669.675 75.4963ZM670.544 77.6784C668.701 78.4781 667.952 77.9153 665.78 78.1523L665.001 76.2171C666.844 76.2566 667.937 76.6613 669.345 76.0393L670.544 77.6784ZM650.696 73.6006L650.111 72.6429C654.545 72.1788 659.489 72.7119 660.148 74.4102C657.421 74.4299 653.976 73.5019 650.696 73.6006V73.6006ZM654.201 78.8039L653.063 77.1551L655.01 76.7108C654.8 77.8956 654.95 78.2016 654.201 78.8039ZM634.937 73.3834L636.84 72.9588L634.937 73.3834ZM630.788 76.8391L630.878 75.3185C632.93 75.6246 636.84 74.4102 636.78 76.4935C634.952 77.4809 633.409 76.1085 630.788 76.8391ZM617.651 71.843C617.037 72.2676 616.992 69.7103 614.61 70.6088C616.063 70.9248 616.123 71.9418 615.913 73.0082C613.741 73.3439 613.187 72.3565 612.378 71.6061C608.648 73.0378 605.547 71.2408 602.327 71.843L600.829 70.4805C597.279 70.362 595.287 70.5595 592.995 69.74C591.377 69.7992 591.302 70.6089 590.418 71.0137C590.673 69.1674 587.557 69.3253 587.707 67.4888C583.722 67.4691 583.932 68.6835 579.798 68.5256C581.475 64.4972 591.242 67.2716 595.376 67.4888L596.455 68.881C597.938 68.9797 596.68 67.7752 597.399 67.558C599.061 67.4 600.35 67.6172 600.829 68.4466L603.076 67.7258L604.064 68.6341C609.667 67.7751 617.022 67.8937 619.404 70.6484C618.04 70.6582 616.962 70.8458 617.651 71.843ZM613.951 75.4963C614.85 74.5583 615.778 73.6302 617.516 73.097L617.142 73.3834L618.205 74.5583C616.213 74.6767 615.554 75.4568 613.951 75.4963ZM611.449 76.9971L614.161 76.4738L611.449 76.9971ZM604.229 77.2045L604.05 76.2171C606.536 75.8617 610.176 75.1013 611.075 77.0267C608.858 77.9251 606.476 77.1946 604.229 77.2045V77.2045ZM603.046 77.313L602.372 75.8715L603.78 76.9971L603.046 77.313ZM599.241 76.691L599.076 75.7037L600.454 76.5725L599.241 76.691ZM594.597 73.6203L595.541 72.2677L597.414 73.5808L594.597 73.6203ZM592.321 76.1184C595.002 75.8617 596.844 75.0322 597.264 76.8983C595.886 77.7771 592.83 77.5599 592.321 76.1184ZM592.71 80.1368C591.137 80.0677 588.98 79.3174 589.909 78.1227C591.661 78.0832 592.83 78.567 593.414 79.5543L592.71 80.1368ZM592.231 83.4642L592.395 82.4374L594.118 83.0101L592.231 83.4642ZM585.325 75.5654C587.392 75.4667 589.28 75.5358 590.987 75.7333C591.197 76.9576 589.774 77.4117 587.737 77.5895C588.74 78.3497 587.257 79.9887 584.516 79.4161C584.187 78.0436 585.1 77.4809 586.958 77.6586C587.347 76.0393 584.351 76.8983 585.325 75.5654V75.5654ZM583.288 75.4963L583.138 76.7897C581.97 76.8786 581.79 75.4074 583.288 75.4963ZM591.137 84.3134L588.725 82.2893C583.887 83.4445 573.446 80.5516 571.065 84.8071C572.158 85.0441 573.656 84.9552 573.761 86.0413C566.945 86.8805 559.306 84.7083 552.64 85.3698C549.434 85.0045 543.547 84.4516 538.933 85.4883C535.997 84.7675 530.859 84.3233 528.013 85.3008C524.823 83.2964 517.603 84.6984 513.154 83.7604C511.701 83.869 511.925 84.8169 511.012 85.2316C509.139 84.9354 505.769 85.9327 505.589 84.2443C503.627 84.8762 502.398 84.4319 500.496 85.0046C499.433 83.02 502.788 83.0989 503.477 81.9338L504.81 82.5558C506.083 82.5558 505.754 81.7857 506.638 81.6179C504.286 81.0847 500.661 80.4923 498.234 81.7068C499.283 83.0496 499.103 83.6321 500.107 85.044C494.684 86.4362 487.658 82.7138 482.026 85.587C480.259 83.8098 478.656 85.6463 476.064 85.9326L476.529 84.3628C475.33 84.6096 475.031 84.0567 473.743 84.3924C472.275 84.7281 473.862 85.2514 473.203 85.7055C468.56 85.8833 464.59 85.518 460.231 85.4785C459.617 84.5602 461.549 84.3134 460.261 83.7012C457.774 83.563 454.464 84.1061 454.584 81.7463C458.478 81.4402 464.785 81.5685 468.47 82.3979C471.496 81.4599 473.817 81.8844 475.001 80.7292C472.245 79.811 469.863 80.9662 467.361 80.9958C463.826 81.0156 460.306 79.2483 455.512 80.3936L453.67 79.3173C451.798 80.4923 447.259 79.6926 445.536 78.8632C442.48 80.0875 440.263 78.8237 435.979 79.5543L439.739 78.1621C440.248 75.7727 446.63 76.148 448.712 76.7601L449.356 75.9406L451.378 75.9999C451.408 77.2143 452.562 77.5302 453.176 78.8533C458.988 77.7573 462.343 79.5444 468.425 78.3497C467.002 77.9252 463.407 76.7601 462.658 77.6784C461.22 76.2368 457.699 76.5725 455.393 75.8518C458.418 74.0844 465.114 75.0125 469.818 75.1804L470.402 76.1184C478.461 73.9561 486.745 77.3328 495.778 75.8715C497.006 75.5358 496.481 76.6417 497.53 76.4639C502.264 74.8249 504.046 77.9351 509.304 76.8095L511.042 77.6488C512.809 76.6614 518.906 76.5922 520.014 78.014C517.663 78.7447 514.022 78.3201 511.116 77.8857L510.053 78.488C512.57 80.8478 520.239 78.9026 523.055 80.9958L524.868 80.0579C528.553 81.4599 531.054 80.1171 534.619 80.0974L535.623 81.2526C536.926 81.2427 536.612 80.5318 537.001 80.1072C539.263 80.4528 541.061 80.2751 542.049 79.11C544.596 79.4556 545.494 79.7221 548.191 79.495C549.045 80.0578 549.824 80.67 549.899 81.8549L550.438 80.5417L552.76 80.0579C553.703 81.0156 558.107 81.3019 558.766 79.9591C562.991 80.1072 569.462 80.8971 573.177 79.5346C576.996 80.1171 579.348 80.2949 583.977 80.7392C588.006 81.1341 591.766 81.6377 591.137 84.3134V84.3134ZM585.295 85.1527C583.782 85.0539 584.127 84.728 582.449 85.1921L582.149 83.7012C583.857 83.9481 583.153 84.8663 585.445 84.1455L585.295 85.1527ZM581.251 85.3008L579.783 83.9381L580.951 83.8197L581.251 85.3008ZM576.218 86.3276C574.39 86.2486 576.352 84.7676 574.675 84.6886C574.824 83.3655 577.476 83.3557 578.285 84.343L576.218 86.3276ZM530.755 88.8157L530.44 87.3347C532.432 87.0286 533.571 88.8453 530.755 88.8157ZM433.882 79.2482L432.504 78.3793L434.077 78.2214L433.882 79.2482ZM431.8 76.9378L430.227 77.1156L430.272 75.3285C431.935 75.1705 432.249 76.0986 431.8 76.9378V76.9378ZM429.059 79.2384C427.636 79.2087 428.459 77.4512 429.912 77.392C430.706 78.5275 428.939 78.4189 429.059 79.2384ZM425.284 74.5583C422.318 73.8572 424.969 71.6061 427.006 73.1365C426.602 73.6894 426.632 74.4398 425.284 74.5583ZM427.141 79.6827C424.205 80.4726 424.7 78.4386 422.138 78.9126L422.662 79.3569L420.356 78.0831L418.992 79.2186C417.3 79.3568 417.105 78.2905 416.206 77.7376C413.016 79.0902 407.024 76.8983 405.691 79.2976C405.691 78.0436 404.612 77.7179 405.136 76.8095C408.492 77.2834 412.656 74.6471 415.532 76.2861C419.637 76.375 428.954 74.4892 427.141 79.6827V79.6827ZM401.212 79.2384C400.642 77.9252 402.096 77.5303 402.275 76.5923C403.294 77.2933 403.953 78.3201 404.492 79.4161C403.174 79.5247 402.814 78.8632 401.212 79.2384V79.2384ZM404.942 87.4532C402.844 86.7719 398.441 88.7565 397.811 86.3869C401.421 86.9299 402.395 85.8339 405.346 85.6463L404.942 87.4532ZM390.501 78.2708L389.498 79.3865L387.311 78.33C389.647 76.9971 395.804 77.0958 397.512 78.8336C394.546 79.6827 392.568 79.2483 390.501 78.2708V78.2708ZM390.022 74.0252C391.355 73.492 390.441 74.8545 391.4 74.6472L390.022 74.0252ZM398.126 78.014L399.13 78.9323C397.901 79.1693 397.572 78.4484 398.126 78.014ZM401.272 83.5136L397.766 84.1258C396.853 82.4275 401.332 81.1736 401.272 83.5136ZM447.663 71.5864L447.573 73.097C446.195 73.3833 446.21 72.4947 446.09 71.7345L447.663 71.5864ZM453.715 75.516L454.734 76.4342L453.52 76.5429L453.715 75.516ZM451.648 61.5745C454.419 61.0414 454.838 62.4039 457.085 62.3151C456.846 62.5224 454.629 62.947 452.442 63.2827L451.648 61.5745ZM466.298 62.1571C465.084 63.569 459.572 64.3688 459.033 62.1078C461.504 61.0414 464.186 61.9794 466.298 62.1571ZM467.706 65.0402C466.852 65.7116 465.249 65.3759 465.534 64.2306L467.107 64.0923L467.706 65.0402ZM475.765 68.7724L474.911 66.5904L476.079 66.4619C476.679 66.8668 477.562 68.8415 475.765 68.7724V68.7724ZM471.151 56.3416C472.095 57.4869 472.634 57.4178 474.956 56.9933C475.45 58.9976 472.08 57.8128 470.866 58.8988C468.754 58.3854 466.148 57.5857 463.871 58.109L462.837 56.9241C465.114 56.5983 467.152 56.776 471.151 56.3416ZM469.324 53.2511L467.945 54.4162L467.406 53.7054L469.324 53.2511ZM477.922 49.8547C479.33 50.2595 479.51 51.6319 481.472 51.5529C479.045 51.9577 471.481 51.8096 468.065 51.1086C469.069 48.7192 473.713 51.2962 477.922 49.8547ZM478.611 69.0094C480.633 67.8542 484.558 68.7329 482.955 70.599C481.547 69.977 480.334 69.9375 478.806 69.9968L478.611 69.0094ZM476.304 59.6394L477.502 59.5209L478.221 61.2093C476.184 61.8807 475.57 60.3601 476.304 59.6394ZM480.678 61.2191C482.176 60.9229 481.382 62.5421 481.861 63.1049L480.199 63.026L479.824 65.0896C478.656 64.1318 476.858 63.6974 476.064 62.4336C477.472 61.6239 480.334 62.6903 480.678 61.2191V61.2191ZM482.715 61.5153C483.749 61.7326 483.449 61.4067 484.768 61.5745L484.558 62.5916L482.715 61.5153ZM489.171 69.2167L489.037 70.7373C483.884 71.7049 485.172 67.6073 489.171 69.2167ZM483.554 65.4845L483.225 64.0035C486.131 63.806 487.853 64.586 489.935 65.0896C489.306 66.1658 486.071 64.7243 483.554 65.4845V65.4845ZM499.013 70.0066C500.226 69.8486 500.286 70.6583 501.874 70.2238C501.679 71.0828 501.185 70.4114 499.942 70.6582L500.286 72.4058C498.054 73.413 495.283 72.6034 494.459 71.458L492.512 71.9023C492.047 70.4114 494.085 70.0955 496.571 69.9968L496.392 71.0236C498.264 71.1618 498.219 70.3818 499.013 70.0066V70.0066ZM543.967 60.7254C545.464 60.4984 544.716 59.1654 545.464 58.5631C548.176 58.4742 549.224 58.2867 550.573 59.5604L549.075 60.2219C548.026 59.7678 544.266 59.8566 545.285 61.6141L543.967 60.7254ZM521.422 63.2334C522.815 63.4111 524.269 63.569 524.553 64.6847C522.89 65.7017 520.554 64.3787 521.422 63.2334ZM507.252 74.7361C506.668 76.0887 505.469 74.499 504.031 74.8051L507.252 74.7361ZM508.735 72.0603L506.698 72.0208L507.297 70.9347L508.735 72.0603ZM549.569 72.554L548.655 73.8968C547.831 73.729 547.801 72.8601 546.498 73.1168L549.569 72.554ZM555.381 73.2353C554.962 74.3905 552.535 73.64 551.771 73.3438L555.381 73.2353ZM550.048 68.96C548.041 69.2069 548.416 70.5694 546.423 70.836L546.708 72.3269C542.394 73.1661 538.319 71.4481 533.331 71.8924L532.942 70.1645C530.845 70.0757 528.628 70.0856 527.864 68.9007C525.916 68.9797 527.234 70.5398 524.478 70.2436L523.415 68.8514C517.932 69.5228 512.779 66.9359 506.892 69.2167L504.196 67.7159L504.391 66.699C510.457 67.0544 517.423 66.6792 523.115 67.3605L523.355 68.5848C525.122 68.3774 525.931 67.706 527.1 67.2025C528.373 67.4592 529.661 67.7752 530.53 68.3775C531.818 66.462 537.181 67.864 534.859 69.7202L537.525 68.9403C538.963 68.6342 538.694 69.7202 539.383 70.0362C540.716 68.7921 537.406 68.417 538.424 67.3309C540.132 66.9656 543.158 67.8146 545.075 68.1898C548.326 66.768 553.583 67.0346 555.216 68.7033C554.303 70.0757 551.666 68.8218 550.048 68.96V68.96ZM558.212 71.4383L556.22 71.3987L556.445 70.6088L558.212 71.4383ZM555.666 68.9007L556.34 68.0813L558.152 68.9205L555.666 68.9007ZM564.953 76.5725C566.211 77.4019 566.001 78.4781 563.77 78.7151C562.706 78.0733 562.931 76.4935 564.953 76.5725ZM560.174 69.2167L560.714 67.9035H563.14L563.785 68.8613C563.17 69.5722 561.508 69.3747 560.174 69.2167V69.2167ZM562.346 73.7981L561.208 74.1633L560.564 72.9687L562.346 73.7981ZM482.431 52.2046C485.157 51.8491 488.452 50.22 491.254 51.8195C496.287 51.3061 503.537 51.1481 507.491 52.481C509.648 51.5035 512.779 51.5233 515.341 51.4541C515.7 52.9747 518.052 52.8562 518.412 54.436C523.295 54.3767 525.721 51.9182 528.613 54.9297C531.429 53.6263 534.185 55.3543 537.84 54.7717C537.75 53.814 535.893 54.2879 535.893 53.2018L536.552 52.3625C537.96 52.4514 539.113 52.7575 540.626 52.7279L540.656 54.7322C543.098 55.68 547.547 55.0284 549.839 56.1046C554.707 54.4755 563.814 54.7618 568.069 56.3021C563.155 58.6915 553.029 57.0624 547.142 56.6181C537.75 57.8227 529.062 56.6773 519.82 57.3289C517.752 56.1836 512.569 57.0032 509.319 57.3586C512.405 58.4842 517.438 58.1682 520.733 57.7338C526.725 58.9877 535.728 57.8029 541.57 59.195L540.851 61.5449C538.918 62.009 539.233 60.5773 538.199 60.291C536.267 61.2191 535.458 60.2416 533.93 61.2191C529.856 57.2598 521.677 61.9004 515.131 60.0639C513.648 60.291 514.307 61.466 512.629 61.5647C511.221 60.5872 508.78 59.353 506.278 60.1824C502.114 58.7902 495.478 58.257 490.909 58.1879L490.01 59.5308L488.228 58.7014C486.835 58.652 487.928 59.7677 486.385 59.6394C483.749 58.1188 480.723 58.415 476.798 58.3163L476.559 57.0821C479.54 56.697 479.839 57.6943 482.236 57.0229C480.453 54.0016 472.215 58.0596 471.481 54.051C474.027 53.2907 479.495 54.8112 480.948 52.8464C482.341 53.2117 482.311 54.8013 484.857 54.2385C484.932 52.8266 482.506 53.498 482.431 52.2046V52.2046ZM508.885 47.2974L506.413 47.2876L508.885 47.2974ZM533.676 48.1169L534.26 49.0648L532.178 48.7686C530.56 48.4329 534.08 48.6501 533.676 48.1169ZM556.43 52.6785C555.156 53.0241 554.857 52.5995 554.317 52.3823L556.43 52.6785ZM574.54 58.4348C572.997 59.5801 568.788 58.8199 567.874 57.5857C569.776 57.0525 572.278 58.3163 574.54 58.4348ZM579.168 75.1606C579.753 76.1183 582.179 75.5556 582.015 77.1551C579.333 78.0931 577.611 76.5034 574.45 77.6586C571.079 77.7178 569.881 76.0394 566.121 76.4442L565.807 74.7261C571.229 73.8869 574.405 76.3652 579.168 75.1606V75.1606ZM564.159 63.0161L564.653 61.4364L566.421 62.2756C568.144 60.9921 571.514 62.1966 572.353 63.4505C569.881 64.0923 566.646 63.2728 564.159 63.0161V63.0161ZM572.817 69.74C571.499 69.2167 571.499 69.1377 569.552 69.5425L569.686 68.2787L572.832 67.9627L572.817 69.74ZM571.409 66.8372L574.12 66.3238C573.581 67.3309 572.712 67.0347 571.409 66.8372ZM579.064 68.5947L575.783 68.417L575.858 66.8964C578.03 66.541 579.124 67.084 579.064 68.5947V68.5947ZM423.396 90.9188C424.939 90.5831 428.579 90.7806 429.972 91.5211C428.04 92.6269 426.168 91.2347 423.591 91.9061L423.396 90.9188ZM361.261 55.9269L359.209 55.6307L361.261 55.9269ZM360.243 78.251C359.793 81.6771 354.49 77.471 360.243 78.251V78.251ZM348.679 55.4036L350.087 54.5149C352.094 54.8803 349.892 56.2823 348.679 55.4036ZM332.021 53.0241C331.287 53.4783 329.265 52.4613 328.531 53.6363C327.018 53.3697 325.475 53.0636 324.262 52.5304C323.678 52.9253 323.483 53.5079 322.03 53.5178L321.64 51.543C323.678 51.316 324.262 52.1848 325.595 51.1481L324.996 50.1805L321.76 50.2595C324.007 48.4921 333.444 48.5711 332.021 53.0241ZM322.06 79.0311C321.85 77.9548 324.876 78.3794 325.236 78.7151C324.936 79.9394 323.393 79.189 322.06 79.0311ZM315.589 51.6319L314.166 50.4965L315.724 50.3385L315.589 51.6319ZM316.263 66.7187L318.015 67.3012L316.263 66.7187ZM310.076 51.9282L308.443 50.3187C309.582 49.4498 310.645 49.9435 312.773 49.6375C313.057 50.9605 312.098 51.7307 310.076 51.9282V51.9282ZM306.631 55.0383C304.174 55.4925 303.081 56.1737 301.628 56.312C300.774 54.9297 303.231 55.1074 303.635 54.3372C305.732 55.4036 308.369 54.2484 311.724 54.2978C311.994 56.5391 307.799 55.9566 306.631 55.0383ZM294.977 51.4147L295.217 50.6248C299.381 50.378 300.774 49.3709 303.291 50.5952C301.298 52.5008 297.464 50.1114 294.977 51.4147ZM285.045 32.6846L284.626 32.4772C287.577 31.6182 289.659 32.0625 292.625 32.1909C291.112 32.6648 286.184 33.4843 285.045 32.6846ZM296.999 31.7564C298.362 31.6478 298.887 32.2897 300.295 32.181L296.774 32.7735L296.999 31.7564ZM308.099 50.6051L304.803 50.1805C306.226 50.062 307.934 49.6967 308.099 50.6051ZM281.241 57.3289L280.926 55.8479C282.843 55.9861 284.251 55.3443 286.873 55.2555L287.487 56.2034C285.255 56.8353 283.727 56.6378 281.241 57.3289ZM273.946 57.0426L274.11 56.0059C275.099 56.6279 276.312 56.2132 277.735 55.917C277.84 56.8649 279.997 56.1343 280.027 57.1907C277.825 57.4573 276.208 57.3191 273.946 57.0426ZM268.763 57.5561L269.002 56.4996C271.234 56.1441 271.923 55.9762 273.062 56.8846C272.343 57.793 270.5 57.5363 268.763 57.5561V57.5561ZM260.434 52.3132C261.947 51.1481 268.598 50.9111 271.624 51.7207C269.602 52.7279 267.714 51.9282 266.621 52.9649C265.542 51.6616 261.453 52.8858 260.434 52.3132V52.3132ZM260.749 57.8424C261.228 55.9861 265.033 57.1018 267.459 56.934C267.265 57.3881 262.396 58.8495 260.749 57.8424ZM263.595 69.7006C264.224 68.2195 268.223 68.2984 269.452 68.8514C268.253 70.2633 265.632 69.2167 263.595 69.7006ZM258.097 52.7772L257.423 51.3653L259.071 51.6911L258.097 52.7772ZM236.602 60.2614L235.523 58.8396C240.421 58.3262 244.541 57.7535 248.81 58.5237C252.555 57.3783 255.895 57.5857 259.52 57.7042C253.933 59.8566 244.661 59.4024 236.602 60.2614ZM229.861 35.1431C231.239 35.1727 233.456 34.4716 234.28 34.9653C234.594 36.2884 229.786 36.3181 229.861 35.1431ZM228.857 59.7579C230.385 59.6789 232.213 58.9186 233.815 58.2472C236.362 60.0245 229.681 62.1176 228.857 59.7579ZM226.371 53.4388C227.884 52.7674 231.673 52.4119 231.718 53.9225C230.265 53.4881 226.685 54.7816 226.371 53.4388ZM225.726 60.0541C226.415 59.5209 228.528 59.4024 228.228 60.5773L225.726 60.0541ZM220.708 45.6584C222.221 45.4906 223.884 45.1549 223.704 46.3792C222.251 46.5273 220.948 46.5372 220.708 45.6584ZM222.296 61.1698L221.967 59.6887L224.633 60.6761C223.375 60.6267 223.24 61.0809 222.296 61.1698V61.1698ZM217.712 54.5643C217.443 53.0932 220.439 53.2216 220.873 54.2484C220.379 54.9791 219.046 54.0608 217.712 54.5643ZM217.113 61.4364C213.818 61.2093 212.185 61.1007 209.174 62.2263L208.785 60.2416C211.526 60.37 214.207 61.2784 216.829 59.9356L217.802 60.844L217.113 61.4364ZM208.245 55.7393L206.193 55.4529C206.178 54.5742 208.65 54.6137 208.245 55.7393ZM202.598 55.8084L202.403 54.8211C204.081 54.3965 204.321 55.1469 205.339 55.2852L202.598 55.8084ZM205.564 62.0781L204.276 61.9399L204.485 60.9131L205.564 62.0781ZM197.176 62.6508L197.565 60.6069L198.659 61.9992C201.295 61.9597 199.902 60.0639 203.137 60.291C203.467 61.0414 202.373 61.6634 203.841 61.7424C202.014 62.71 198.958 62.5126 197.176 62.6508V62.6508ZM196.427 62.9766C194.599 62.9272 191.693 63.026 192.487 61.6042C194.329 61.1599 194.884 62.404 195.678 61.2883L196.427 62.9766ZM186.885 38.1742C187.589 38.5198 188.637 37.6608 189.027 38.7074L186.885 38.1742ZM185.746 44.3255L187.783 44.4045L185.746 44.3255ZM178.586 58.7014C178.571 56.9932 175.395 57.8621 173.912 57.398L173.763 56.6575C174.392 56.1342 176.324 56.2133 177.657 56.0059L179.02 56.8945L180.803 55.6998C183.364 56.6378 187.888 54.6236 190.24 56.2823C186.51 57.5462 180.728 56.2034 178.586 58.7014V58.7014ZM188.487 63.5196C187.169 63.4308 186.93 62.6705 187.319 61.8707L190.225 62.3348L188.487 63.5196ZM176.893 60.133L176.654 58.8988L178.376 59.7283L176.893 60.133ZM177.313 64.1318C173.103 64.3293 165.823 65.2179 165.778 63.0062C167.097 62.7594 167.082 63.6381 167.951 63.7961C169.239 62.6804 174.811 63.7962 175.201 61.8017C177.013 61.9004 178.96 62.5916 180.848 61.7523L182.69 62.8285C184.368 62.2953 185.117 62.5027 186.645 62.6804C186.57 63.8257 180.803 63.9541 177.313 64.1318ZM159.307 78.8039L159.906 77.7178C162.962 78.172 168.22 77.5698 169.958 77.4809L170.437 77.9548C168.61 79.189 162.079 78.3991 159.307 78.8039V78.8039ZM153.166 78.3991C155.592 77.9153 157.3 77.8067 158.888 78.5768C157.36 79.1199 153.81 79.9196 153.166 78.3991ZM130.517 66.5113C126.607 67.2815 123.941 67.1235 120.96 66.9458C121.02 65.524 123.431 65.2376 124.794 66.067L127.026 65.0896C136.449 65.5734 144.388 64.0035 152.611 63.8159L152.551 65.3364C151.308 65.4747 150.889 64.9612 149.96 64.8131C144.103 66.4916 135.759 66.8668 130.517 66.5113V66.5113ZM149.436 79.7716L149.241 78.8039L152.746 78.4386C153.106 79.5346 151.218 79.663 149.436 79.7716ZM121.184 81.8351L120.555 80.6305L119.072 81.302L118.877 80.3047C123.162 81.5488 128.569 77.7178 130.187 80.433C127.775 81.8844 124.27 80.4725 121.184 81.8351V81.8351ZM114.773 66.3138L115.867 65.7018C117.814 66.3139 120.54 66.4126 120.031 68.3281C117.844 68.4959 116.69 67.8048 115.028 67.548L114.773 66.3138ZM112.676 81.4204L113.515 79.811C114.713 79.8801 115.402 80.3936 117.185 79.9591L117.754 80.67C116.795 81.6179 114.309 81.4599 112.676 81.4204V81.4204ZM105.321 67.4987C106.774 66.6397 109.605 66.7187 110.654 67.7258C109.47 68.7033 105.681 69.3944 105.321 67.4987ZM103.853 64.3688C104.332 63.3321 105.83 64.5959 107.373 63.7665C107.838 64.8032 105.681 64.6157 104.362 64.8131L103.853 64.3688ZM99.9584 53.1326L101.846 52.6883L102.924 53.8633L99.9584 53.1326ZM98.6251 54.5446C96.6478 54.8014 96.4831 53.6066 95.4945 53.0734C96.3783 52.481 96.9625 53.5868 98.2657 52.7871L98.6251 54.5446ZM99.7937 70.0757C98.0111 69.6413 95.3296 69.9178 94.6556 68.5651C97.6515 68.2096 99.0596 67.6764 101.351 67.8936C102.026 69.1673 100.483 69.4142 99.7937 70.0757V70.0757ZM101.112 82.3288C99.7637 82.6447 99.5389 81.5981 100.078 81.1637C101.411 80.8576 101.681 81.8845 101.112 82.3288ZM94.0265 81.2723C95.5994 81.5586 95.9589 81.6376 96.3184 80.5219L97.8312 82.1511C97.1572 83.7605 92.6484 83.01 94.0265 81.2723ZM93.5172 82.5658C91.1354 83.5531 87.6451 83.1681 85.8925 82.8126C88.1095 81.3415 89.263 81.0748 93.1876 81.0748L93.5172 82.5658ZM79.6911 50.8617L81.2789 50.694L79.9007 51.8491L79.6911 50.8617ZM88.3792 69.6906L88.5888 70.4213L86.8813 70.0955L88.3792 69.6906ZM90.9107 54.2879L92.4537 53.8831C89.5177 56.8057 87.3455 51.8294 90.9107 54.2879ZM114.144 67.1334L112.916 69.039C110.414 68.5848 112.212 65.84 114.144 67.1334ZM108.856 51.237L112.002 50.9309L111.523 52.2342L109.006 51.9775L108.856 51.237ZM116.061 51.0296L116.466 52.7674C113.74 53.3302 116.016 51.5628 114.129 51.4641L116.061 51.0296ZM118.997 57.2993L120.42 58.4249L118.383 58.1287L118.997 57.2993ZM123.701 62.641L121.499 63.6184L121.005 63.1642L123.701 62.641ZM122.113 57.0031C124.255 56.7365 122.922 58.2275 122.053 58.5237L122.113 57.0031ZM124.899 60.5082C124.869 61.8905 121.199 59.7973 123.431 59.3925L123.656 60.37L124.899 60.5082ZM129.243 62.0979L129.723 62.5422C129.034 63.6481 127.446 63.3124 125.843 63.184C126.817 62.7397 127.386 62.1078 129.243 62.0979V62.0979ZM134.261 59.0765L132.089 60.0441L131.88 59.0568L134.261 59.0765ZM129.828 47.1295C129.318 47.9491 125.558 48.1959 124.345 47.9294C125.528 46.2212 127.056 47.2382 129.828 47.1295ZM139.819 58.5237C140.493 59.3234 137.842 59.8862 138.231 58.6816L139.819 58.5237ZM134.261 47.2085L134.621 46.9123L135.415 46.8433L135.849 47.0407L135.969 47.5344L135.595 47.8306L134.801 47.8997L134.351 47.6924L134.261 47.2085ZM152.462 57.2599C153.66 57.3389 154.559 57.6646 154.379 58.8297C152.147 59.3728 151.218 58.0004 152.462 57.2599ZM150.23 40.5538C151.488 40.2576 151.803 40.8105 152.042 41.393L150.05 41.5806L150.23 40.5538ZM155.098 40.5736C155.742 41.5609 152.492 41.8867 152.701 40.8105C154.184 40.6327 153.795 40.4156 155.098 40.5736ZM163.322 64.7638C160.146 64.5268 155.622 66.0375 153.54 64.4676C156.461 63.3716 161.389 63.0853 163.322 64.7638ZM160.491 56.9637C162.019 56.5687 162.393 58.2867 160.73 58.1979L160.491 56.9637ZM161.884 46.2113L160.131 45.3819L161.884 46.2113ZM163.067 40.0404L159.547 40.6426C159.846 39.4183 161.524 39.991 163.067 40.0404ZM198.404 54.9593L197.49 56.312L197.19 54.8211L198.404 54.9593ZM198.254 52.2046L195.483 52.481C195.333 51.6911 198.194 50.9605 198.254 52.2046ZM195.663 37.5424L197.28 37.6411L195.663 37.5424ZM210.028 54.5446C210.762 54.3965 214.791 53.5868 214.597 55.1074C213.563 55.9071 212.005 53.6659 210.987 55.2358L210.133 55.058L210.028 54.5446ZM221.967 35.933L219.27 36.4563L221.967 35.933ZM229.277 46.0632L227.674 45.9743L229.277 46.0632ZM243.223 53.0241L240.466 53.3005L242.638 52.0763L243.223 53.0241ZM239.418 34.442C239.777 35.9626 235.283 36.0613 235.388 34.5901C236.632 34.6395 238.744 33.9483 239.418 34.442ZM242.578 34.136L243.507 34.7975L241.515 35.0048L242.578 34.136ZM249.095 52.1848L246.788 52.6687L247.432 51.8491L249.095 52.1848ZM261.048 33.8102L258.966 33.2572L261.048 33.8102ZM263.76 33.2868C263.595 33.8792 261.273 34.3729 261.378 33.2868H263.76ZM275.174 51.3653L277.93 51.079C276.447 51.3456 277.121 52.639 275.488 52.8562L275.174 51.3653ZM279.039 50.4668L280.731 50.8124L278.395 51.2864L279.039 50.4668ZM277.331 32.4476C278.589 32.4772 280.671 31.8058 281.36 32.3094C282.094 33.6226 278.814 33.0598 277.541 33.4448L277.331 32.4476ZM81.5485 83.2569L81.9979 81.687L83.5109 83.0495C82.3275 83.3556 82.7768 83.326 81.5485 83.2569ZM80.425 87.6704C81.5934 87.3742 81.159 87.4137 82.4023 87.4729C83.2861 88.7269 80.0805 89.0428 80.425 87.6704ZM71.5572 52.4218C70.5087 51.1481 74.0138 51.938 73.6842 50.9506L74.3583 52.4021C72.6806 52.2935 72.9354 51.4443 71.5572 52.4218V52.4218ZM73.175 62.3644L72.5608 61.1698C73.9389 60.7748 73.4596 62.167 73.175 62.3644ZM60.6071 83.5729C59.1541 82.7731 61.7156 82.4374 61.3861 81.4797C66.5091 83.8592 71.3923 81.9042 77.0546 81.1637C76.6352 85.3205 64.4718 83.4445 60.6071 83.5729V83.5729ZM57.7161 81.3316L59.3339 83.2076C57.5962 84.4516 53.5668 81.6475 57.7161 81.3316ZM52.0239 82.9212L52.1137 81.6376C53.4019 81.5389 55.0947 81.0946 55.0647 82.1115L52.0239 82.9212ZM66.1046 59.2938L64.5169 59.4419L66.1046 59.2938ZM65.0112 52.0663L65.2059 53.0636C64.2022 52.9451 63.3784 52.6489 61.9853 52.8661C62.2399 52.2639 63.633 52.1848 65.0112 52.0663ZM38.9617 78.3991C37.5087 78.6558 36.6099 78.4485 36.3703 77.6488C37.284 76.9774 39.3362 77.1254 38.9617 78.3991ZM26.9781 67.2025L27.1279 65.9387C29.989 65.7708 31.8764 66.4126 33.1048 67.6073C30.7979 67.0445 29.4797 67.4592 26.9781 67.2025ZM33.7039 78.4189L33.4193 77.1847C35.0071 76.7897 35.3367 78.4979 33.7039 78.4189ZM26.4838 53.1326C27.6072 53.261 29.2251 52.9549 29.0903 54.12C27.817 54.9987 25.5251 54.2385 26.4838 53.1326ZM27.6522 90.1289C29.21 89.8129 29.974 90.1388 29.8991 91.1656C28.3262 91.5112 27.5922 91.1557 27.6522 90.1289ZM18.0503 72.9193L20.0726 72.9588L18.0503 72.9193ZM310.271 35.4887C308.998 35.7651 308.414 35.4985 307.455 35.5183L310.271 35.4887ZM314.705 35.5479L312.113 34.7876C313.521 34.6198 315.049 34.2939 314.705 35.5479ZM318.929 34.6297C320.277 34.3038 320.547 35.3405 319.993 35.775C318.704 36.0909 318.39 35.0542 318.929 34.6297ZM317.506 10.005L320.068 10.5086L317.836 11.486L317.506 10.005ZM360.872 34.4716L358.116 34.5309L360.872 34.4716ZM368.466 33.978L368.631 34.7284C367.148 34.8962 365.501 35.2221 365.68 34.0175L368.466 33.978ZM376.615 34.1854C376.645 35.6269 372.736 35.5874 372.526 34.0866C373.604 33.435 375.028 34.373 376.615 34.1854ZM378.937 33.9681C380.675 33.9681 379.461 35.4689 378.323 34.7876L378.937 33.9681ZM380.061 29.5645C383.88 30.4532 386.622 30.3643 390.247 29.8114L389.543 30.384C395.804 30.7987 401.167 30.4729 407.803 30.8283L407.982 29.8114C409.6 29.4461 409.975 30.1076 411.248 29.9693L410.619 31.0554C418.169 30.779 424.999 31.095 431.74 31.4899C431.8 32.6155 429.164 32.5266 428.894 33.5436L426.782 32.9808C421.299 33.1782 416.251 32.9807 409.495 33.1881C403.309 33.3757 396.433 32.734 391.071 31.9836L389.153 32.4279L387.266 31.1048C386.307 31.3418 386.607 32.1415 385.034 32.0921C384.27 30.8086 381.514 31.164 379.506 30.8678L380.061 29.5645ZM435.994 36.6142C435.35 37.2659 433.552 36.3576 431.98 36.7722C432.309 35.1629 434.976 35.8046 435.994 36.6142ZM433.253 31.0653L434.616 31.944L433.073 32.102L433.253 31.0653ZM442.93 32.9018L443.903 33.8002C445.386 34.1063 448.307 33.4152 448.128 34.6494C446.165 35.4689 442.166 34.837 439.679 34.7284L435.545 34.3828C435.23 33.3955 440.278 32.7241 442.93 32.9018ZM442.166 31.2134L443.783 31.2924L442.45 32.6944L442.166 31.2134ZM446.285 31.5589C451.678 31.1047 455.273 30.9665 457.07 32.9906C459.602 33.0696 464.53 31.4306 466.298 32.8327C459.931 36.5254 452.247 31.7762 446.525 32.8031L446.285 31.5589ZM481.622 32.5858L482.566 31.2134C487.659 31.7367 490.055 33.2177 495.957 33.6817C501.185 34.0767 506.922 33.6522 512.255 34.3335C506.443 36.4267 496.212 33.9681 489.067 35.38L485.711 34.9456C480.124 36.0317 474.866 34.5802 469.144 34.8172C468.979 33.5238 467.047 33.6916 467.002 32.2698C471.361 31.7564 476.02 33.1782 481.622 32.5858V32.5858ZM479.42 29.7521L481.307 31.095C479.719 31.5689 479.3 31.3023 478.057 30.9073L479.42 29.7521ZM504.69 29.0215C502.279 29.3078 500.436 29.0708 498.938 28.5673C499.822 27.9156 504.765 26.8987 504.69 29.0215ZM515.281 35.2912C513.918 35.6269 513.558 35.1825 512.794 35.0147L515.281 35.2912ZM526.426 34.679L527.04 35.6466C525.766 35.6269 523.01 36.9993 522.546 35.3109C524.209 34.4519 525.107 35.7355 526.426 34.679ZM536.357 35.9724C533.166 37.0783 529.616 36.0416 527.384 35.3504C529.227 33.5238 535.413 33.8595 536.357 35.9724ZM538.574 34.7382L539.218 35.9428L540.312 35.3306L542.738 37.3449C540.177 37.0092 536.282 37.7201 536.567 34.9456L538.574 34.7382ZM545.584 41.3634C544.596 41.9657 540.986 42.3113 541.106 41.0475C537.016 42.1731 527.339 39.0728 524.044 42.4989C521.452 40.9389 515.191 42.5187 512.105 41.4128C512.39 39.8232 509.993 40.1885 510.772 39.0234C519.056 39.3393 525.107 40.07 534.994 38.8851C538.814 40.3267 541.69 39.8528 545.584 41.3634V41.3634ZM534.874 44.1971L533.885 43.5356L538.319 43.348L534.874 44.1971ZM438.975 37.335L438.001 36.4167L439.634 36.5155L438.975 37.335ZM427.486 36.4463L429.927 36.4563L427.486 36.4463ZM424.37 36.7722L422.947 35.8836L423.292 35.6071L424.969 35.9428L424.37 36.7722ZM413.39 36.3279L411.997 35.7158C407.833 36.6735 401.391 35.2813 396.193 35.2813L395.984 34.2742C405.421 34.9752 414.394 33.9088 421.689 35.5084C419.696 36.9203 415.757 34.8963 413.39 36.3279V36.3279ZM386.037 34.7778C387.011 33.514 390.606 34.4223 392.029 34.6691C389.647 35.7749 387.43 35.2221 386.037 34.7778ZM381.454 34.2051L383.041 34.057L381.454 34.2051ZM550.393 41.156L551.052 42.3409C548.94 43.2196 548.775 42.0546 546.933 42.0052L550.393 41.156ZM555.86 38.3223L554.108 37.7398L555.86 38.3223ZM591.542 43.1012C589.774 43.3579 588.576 43.0616 587.752 42.4692C588.351 41.3337 591.557 41.9657 591.542 43.1012ZM458.209 54.1102L458.359 53.0833L460.89 53.5869L458.209 54.1102ZM624.691 66.8273C623.238 67.163 622.894 66.6101 622.849 65.761C624.092 65.6129 624.332 66.2546 624.691 66.8273ZM735.57 71.9715C734.296 71.9715 735.645 73.2155 734.162 73.1168L733.428 71.4087C728.574 72.1689 725.009 71.8529 722.388 70.7569L722.732 72.4848C724.065 72.3268 726.567 72.1788 725.414 73.7388C723.736 72.8897 721.459 72.8305 719.781 73.7981C719.422 72.7021 718.748 71.9516 718.718 70.6088L721.804 70.056C721.324 68.8514 719.362 68.8415 717.16 68.9995C717.25 69.9967 718.164 70.3028 718.074 71.4481C716.306 71.6554 715.782 72.4453 715.662 73.4228C714.059 73.3241 715.347 71.774 715.153 70.9643C713.67 70.2732 712.756 70.3916 713.085 68.6539C711.333 69.5228 710.284 67.4197 710.254 68.6835C710.209 69.3154 713.43 71.2803 712.322 72.7712C711.707 71.1322 708.487 71.6851 707.708 70.2041C707.004 71.1618 703.199 70.599 700.922 70.362C701.252 71.8134 700.038 72.4059 698.511 72.3664L698.001 73.9362C695.694 73.2648 692.803 73.5216 688.594 73.3636C687.605 73.8869 690.362 74.3411 688.953 75.0915L686.841 74.5583C685.943 76.0689 682.737 74.272 682.917 75.1902C682.377 76.6021 685.164 75.2692 685.508 75.9307C684.085 76.4836 683.246 77.2933 684.1 78.873C681.164 78.409 678.752 78.4485 677.854 75.9505L677.599 78.7349C675.187 79.189 675.906 77.2538 675.217 76.9477C677.314 76.9279 676.446 75.6345 675.622 75.1704C676.026 76.217 673.345 75.8715 672.716 76.454L671.173 74.8348L672.056 73.2353C668.327 73.6302 666.514 70.8952 663.293 71.843C666.244 71.8035 665.166 74.8841 662.709 74.9236L661.271 73.8079L661.96 71.4481C656.643 71.8825 650.351 70.2139 644.374 72.2084C643.341 72.3762 643.85 71.2803 642.622 71.6357C637.079 72.8798 631.073 70.204 628.975 71.9615C630.039 72.5243 633.904 71.9024 633.334 73.5512C631.132 72.9687 627.852 73.5117 628.077 71.5568C626.234 71.5963 625.755 72.1294 624.556 71.9023C623.508 71.2902 623.882 69.5228 621.695 69.9177C621.755 70.1942 622.789 71.6061 621.366 72.2183C619.628 71.4087 621.021 70.5694 620.752 69.2661C618.849 69.1081 617.621 68.4071 617.067 67.0841C620.542 66.7385 622.22 67.8344 624.961 68.0813L625.29 69.8091C626.699 69.8585 628.541 69.3747 629.814 70.1251L632.361 68.8514C629.934 68.9402 628.212 68.4564 626.219 68.2096L627.852 66.5113C631.028 66.4225 635.986 67.3604 639.101 66.1657C640.899 68.2984 646.082 65.8005 648.644 67.4888C652.898 65.0797 663.204 67.9331 668.147 66.0572C671.337 67.084 674.513 66.6792 678.812 67.005C677.045 64.2799 671.397 66.4619 668.656 64.7341L668.776 63.2037C668.162 62.9865 665.346 62.0584 665.151 63.3222L667.802 64.3195C665.451 65.5635 661.676 64.6157 660.987 62.7199C659.489 63.184 658.021 62.1275 657.407 62.8285L655.924 63.7369C654.216 63.727 656.103 62.5619 654.486 62.6113L651.669 62.3941C650.291 62.8878 649.258 63.5295 647.475 63.8159L646.726 62.1078C644.988 62.2559 645.827 63.6282 644.719 64.0923C641.109 62.631 635.177 64.3688 633.904 60.6169C631.372 61.2488 628.436 59.7283 625.89 60.9131L626.099 61.8905C626.983 62.246 628.751 61.8116 628.391 63.184C632.825 63.3321 635.177 63.8553 638.622 63.9442L638.128 65.2475C634.668 65.5635 630.878 64.2109 628.107 65.7511L627.238 63.5592L624.571 64.3195L623.148 63.1938C620.931 64.2997 618.52 63.9244 616.932 62.5619C614.88 62.394 616.123 63.7961 614.4 63.8159C612.842 63.6381 611.854 63.0161 610.865 62.4138L609.802 63.263C608.319 62.789 607.18 61.5154 604.589 61.2587C603.78 62.6113 606.012 62.009 605.338 62.947C604.559 62.9371 604.828 62.0288 603.585 62.3744C602.881 62.7792 604.664 63.6085 603.091 63.9344C603.106 62.8581 602.477 62.3151 602.192 61.4857C600.739 61.8017 602.042 63.3518 600.17 63.4703C599.376 62.9766 598.971 62.1769 598.852 61.0612C595.361 61.8511 591.002 60.7847 590.044 59.4221C589.759 61.3672 585.19 60.5873 584.426 59.4814C582.105 59.7776 581.58 59.7085 579.438 60.7156C579.273 59.0371 576.442 59.5604 575.723 58.336C577.116 58.7211 579.154 58.7705 579.213 57.4869C576.337 57.0328 572.592 57.3487 570.435 56.3317L571.499 55.4629C577.895 55.1667 580.397 55.9171 586.149 56.0257L587.228 57.4276C591.706 56.1737 596.006 56.9242 599.106 58.2768L599.211 56.7365C598.357 56.46 596.739 56.855 596.979 55.6998C598.747 54.6038 599.735 54.7816 601.548 54.4953C599.151 53.6955 595.466 53.9719 592.515 53.6263L591.527 54.7322C584.816 55.058 579.109 52.2638 573.162 53.7744L572.158 52.8661C570.93 52.8069 570.765 53.261 569.836 53.3499L569.237 52.4021C567.964 52.3132 568.863 53.261 567.844 53.3005C564.983 52.1848 559.515 54.2978 556.654 52.1355C559.68 51.158 561.987 52.9846 565.133 52.0565C565.747 51.7998 564.788 50.8519 566.136 50.9506C567.994 51.0691 569.836 51.9281 570.84 50.4767C568.653 50.1608 568.248 48.423 567.005 47.327C565.552 47.6627 565.058 47.2184 563.814 47.3764C564.698 48.1761 563.755 48.4921 562.436 48.7883C558.721 48.5217 556.474 46.6556 552.954 47.6924C552.055 47.0802 551.576 46.162 549.809 46.2509C550.333 47.6035 553.059 48.5415 552.205 50.062C549.839 50.2101 549.674 48.4724 548.161 47.9392C546.333 49.5683 542.484 48.502 540.716 47.1591C536.147 47.4356 529.856 46.3199 523.924 46.0435C523.624 47.9491 526.605 47.1098 527.235 48.2452C522.621 47.9095 516.659 48.7291 514.697 46.2113C513.049 46.3397 511.326 46.4582 510.847 47.0999C510.547 45.224 507.626 45.5498 505.589 45.1055L504.69 46.6952C496.751 46.8433 484.977 50.2594 479.944 46.1224C477.413 45.9743 474.866 45.7374 472.215 45.6485L471.151 44.4933C469.159 44.8586 468.065 44.5427 467.391 43.8318C465.564 44.681 461.205 45.1746 459.317 43.8812L458.748 44.9574C455.033 44.8488 449.536 42.2422 446.525 44.4045L449.146 45.4017C441.566 48.3242 431.261 43.6344 424.205 47.88C427.606 49.2425 435.35 46.9419 437.118 49.6473C440.473 49.8843 441.866 49.4202 444.967 48.6106C446.03 49.7559 448.936 49.3413 449.476 50.9408C451.079 50.5656 451.828 49.8053 453.61 49.5091C458.089 50.0226 462.867 48.5612 466.013 50.8124C463.347 51.6615 461.504 50.9407 459.961 50.9111C456.681 50.8321 450.974 51.2864 448.367 51.5628C446.33 51.7603 445.221 50.8322 443.379 50.7927L440.248 51.3653C437.492 51.3258 436.204 50.7038 434.451 50.3977C431.8 51.395 429.238 49.44 427.725 51.3258C429.463 51.1283 429.658 52.2638 430.826 52.5402C431.98 52.0663 438.316 52.0071 439.469 53.4388C435.769 54.0608 433.867 53.0932 430.841 54.5446C432.863 56.4107 436.294 55.374 440.323 55.6406C441.147 55.1765 439.724 53.6856 441.102 53.5276C448.247 52.3526 449.76 54.8408 453.52 56.855C455.003 56.8056 453.999 55.5813 455.213 55.4036C456.741 56.4897 460.351 55.7887 461.969 56.7662L461.879 58.2768C460.006 58.3163 460.006 56.7563 457.954 56.9143C451.828 58.6422 444.952 57.2401 436.354 57.8029L435.305 56.6378C434.811 57.1611 434.616 57.8226 433.133 57.8621C424.894 57.2993 416.071 56.4601 408.342 57.0525C405.885 55.6504 402.41 57.0427 399.085 57.2105C392.434 57.5561 385.064 56.6378 380.18 55.5616L381.963 54.3668C378.907 54.3076 375.597 53.7251 373.485 54.4656L378.188 55.7591C375.791 56.154 372.9 56.8846 371.732 55.6406L372.601 54.0312C369.8 53.2117 367.852 54.7816 365.246 53.498C364.826 54.7124 363.883 55.0679 363.284 55.7195L362.04 53.577C359.254 53.7942 355.09 55.0778 353.547 53.656C352.259 53.7943 351.689 54.2681 350.057 54.2583C346.072 53.4486 339.391 54.5348 336.59 53.5869C336.53 52.5008 338.582 52.4317 337.669 50.9408C337.249 50.1312 335.062 50.7926 335.017 49.6967L338.597 49.5881L338.897 51.079C341.099 50.8617 341.698 52.017 343.226 52.4218C345.308 51.5727 346.057 52.481 348.379 52.1651C347.69 51.0197 345.802 50.842 343.331 51.1481L342.941 49.1636C344.11 50.0226 346.177 49.5782 348.184 49.1536C350.416 50.2496 356.003 50.1114 358.685 49.1142C359.898 49.1241 359.943 50.1707 361.321 50.1015C361.351 48.7982 363.958 48.8871 365.59 49.1734L363.284 49.9041C366.759 50.0917 371.013 50.9013 374.608 50.0522C383.551 51.7307 396.044 50.3385 403.294 52.0071C407.338 51.2469 414.349 52.5995 416.221 52.2144C417.39 51.9972 416.401 51.1481 417.674 51.316L418.243 52.2836L419.562 50.6248C416.461 49.2623 411.712 50.4866 408.447 49.7066C407.174 49.7165 408.552 50.9605 407.054 50.8717L406.484 49.8941C402.725 50.6742 398.995 50.8322 398.425 47.9294C397.677 48.8871 397.062 49.5684 395.564 49.983L393.527 49.6967C391.984 50.0916 392.059 49.7066 389.827 49.5387C386.786 49.3018 383.311 49.8053 381.948 48.5612C381.079 50.1015 379.896 48.9562 378.188 49.6967C376.226 47.3665 371.492 48.9364 369.425 46.5174C363.553 46.9419 360.063 46.4186 355.973 45.846C349.727 47.0802 342.102 45.5004 336.216 45.7868L335.152 44.6316C338.627 43.7528 343.78 44.4045 346.626 43.4665C343.031 41.0672 334.343 42.9037 328.591 42.2619L328.486 43.5257C323.678 43.2986 320.127 43.1506 314.81 43.8812C311.994 42.1632 306.197 44.523 303.275 42.7457L307.664 40.534L308.728 41.709C308.968 40.6427 309.852 41.6695 310.72 41.7584C311.979 39.0135 318.495 41.6102 322.105 40.1193C323.198 40.4649 323.333 41.5806 325.146 41.3337C326.524 40.5537 323.752 40.2872 324.891 39.8429C326.494 39.4282 325.79 40.998 327.108 40.8894C335.002 38.4112 342.657 40.4946 352.184 39.1419C353.412 39.5072 352.768 40.3761 353.322 40.8006C354.97 40.8698 353.202 39.3985 354.655 39.4084C357.771 39.1517 362.744 38.4705 365.89 39.053C371.717 37.4436 378.727 38.5791 384.45 38.974C394.636 39.6553 405.196 38.2928 416.251 38.5791L417.285 37.7102C424.115 38.9444 433.103 39.3294 439.409 39.3097L439.799 37.2462C442.166 38.2138 444.757 38.6186 447.573 37.9867C445.236 36.8315 443.334 37.7003 441.686 36.8117C446.345 36.4661 453.67 36.318 457.954 37.2066C465.339 35.6269 468.2 41.2449 476.469 38.9049C477.562 40.0897 479.525 38.9443 481.382 39.1616C481.861 38.579 481.996 37.8484 483.464 37.6905C486.565 38.8753 492.122 39.2603 496.541 38.4211C497.665 38.8357 499.732 39.6651 498.669 40.9882C500.526 42.0249 504.585 40.307 506.473 41.7386C504.735 41.9361 504.99 42.0842 503.342 42.0447L503.537 43.0123C516.18 42.9333 527.219 44.1773 538.679 45.0857L539.563 43.4665C545.045 42.9234 549.045 44.523 553.164 42.8938C554.138 42.9235 554.213 43.7627 555.666 43.3974C557.059 43.269 556.055 42.0644 557.403 41.9657C559.381 42.8444 562.946 43.1506 565.043 41.709C569.926 42.4495 576.233 42.0052 580.786 43.6837C583.408 42.9432 587.827 43.2196 589.37 44.3353C590.897 44.4538 589.819 43.3578 591.242 43.4072C591.512 44.7204 593.744 44.365 595.481 44.4835L595.975 43.1703C597.369 43.6936 598.447 42.6569 600.35 42.7457L601.009 43.6936C608.738 43.6738 616.947 43.8515 623.223 43.9898C622.28 42.2224 624.392 41.857 625.41 40.9882C624.317 39.912 620.842 40.692 619.434 41.3337L617.561 40.0206C615.03 40.3069 613.861 39.438 611.749 39.3294L610.835 40.6821L609.397 39.5664C609.742 40.534 606.266 39.7441 607.285 41.0277C608.244 41.6991 610.071 41.0573 612.094 40.8105L612.318 42.0447C608.948 43.5257 606.326 42.2619 605.592 40.7117C605.158 42.331 604.124 41.0277 602.611 42.0052L601.892 40.3168C596.769 42.0842 591.152 39.991 586.583 40.5538L585.205 39.7046C581.895 40.3464 579.288 40.1786 576.981 41.0179C570.405 40.1194 562.526 40.3267 557.104 38.4507L559.336 37.4732C560.774 37.5818 562.586 38.9838 563.335 37.335C561.583 36.6537 559.845 35.9724 559.111 34.4618L559.92 32.6154C558.392 32.7043 556.909 31.6281 555.456 32.5661C554.902 31.865 553.314 32.0132 553.479 30.7296C550.228 31.6873 548.311 33.3658 543.457 32.9906L545.06 34.8567C542.364 35.5084 542.918 33.7608 543.008 32.7833C539.952 32.6154 535.998 31.9539 533.226 32.4969C531.129 30.6703 524.958 31.0455 521.677 31.1048C518.097 29.9693 512.36 29.3177 508.076 29.7027L507.387 28.2415C509.379 28.5772 510.592 28.4192 510.263 26.6913C505.709 26.9283 502.234 26.2272 497.38 26.7111L496.916 28.5278C495.028 27.8466 493.366 28.6364 490.834 28.3797L489.95 26.2075C485.606 25.7534 480.678 25.8126 476.469 25.2696C473.862 22.7913 465.863 24.8252 461.969 23.4232C457.13 24.0551 453.91 23.354 451.573 21.9322C447.663 22.2679 444.547 21.9619 442.795 20.5302C446.39 19.691 449.011 20.7178 452.472 20.5697C455.842 20.4315 457.34 19.1578 460.546 18.516C462.987 18.0223 467.137 17.7163 468.859 17.6965C477.667 17.5287 486.49 19.4244 494.819 18.3877C490.475 17.6669 485.202 17.1929 480.513 17.5385L479.42 15.8797C475.495 15.7514 471.78 15.4354 468.635 14.6752C461.175 15.4255 456.127 13.5398 449.925 13.7669C446.45 13.8853 443.858 14.4777 442.795 12.7004C448.277 11.6242 451.258 12.5919 455.647 12.424C450.719 8.03027 438.271 11.6342 431.141 9.05716C417.554 8.98805 405.151 7.91183 393.452 6.2432C392.269 7.47739 388.779 7.65512 386.637 8.41538C382.382 6.83561 376.9 7.94145 371.942 7.6255C369.455 7.46752 367.313 6.52949 364.856 6.54924C362.834 6.57886 361.186 7.29965 359.299 7.11205C352.229 6.4209 344.23 5.29534 336.29 5.10774C335.032 5.26572 334.658 5.84828 333.235 5.91739L332.246 5.01884C330.344 5.30517 329.055 5.1472 328.157 4.67327C317.371 6.41101 308.503 2.67887 297.449 4.6832C293.374 4.20927 289.569 3.51804 284.386 3.96235C281.405 2.81702 275.189 3.00467 271.369 3.4786C263.565 0.546158 253.484 0.990468 243.357 0.714009C223.3 0.19071 200.246 0.161051 178.751 2.59982L177.882 2.44188L176.279 0.319066C164.041 -0.510312 148.882 0.565925 135.49 0.338833C132.329 0.289465 131.221 0.506625 129.138 0.723844C124.51 1.21752 119.567 0.556032 114.623 0.91148C98.2358 2.08643 84.0351 3.68593 69.5499 5.38418C54.0162 7.20091 41.2386 13.1053 25.5999 13.5496C23.6376 14.4284 22.4543 15.2973 20.3722 15.5935L21.1061 17.272C18.7992 19.849 14.6949 21.5867 13.7961 24.8252C11.0099 26.4445 8.46338 28.1526 6.83061 30.3051C11.5342 31.1048 7.69942 34.0866 10.0512 36.0613C9.09252 37.335 5.76706 36.1403 4.20919 37.1375C4.79339 38.5198 6.41124 39.0036 7.93915 39.5664C7.71446 40.8895 9.06256 40.9488 9.60182 41.6597C10.7852 43.4073 7.23514 42.9432 8.19383 44.5822C9.85656 45.3227 12.7925 44.987 15.1593 45.145C16.148 47.3073 11.3844 46.8432 8.73304 47.3073C8.31361 48.0379 10.216 48.8574 11.5042 49.0549C12.0585 48.6303 11.5642 47.7319 12.8524 47.6628C17.1665 46.8926 20.2972 50.6841 17.9155 52.6983C16.6871 52.2441 15.1892 53.0932 14.9196 53.7744L17.1965 55.0679C17.4361 57.2006 13.092 57.5758 11.8188 58.3756C13.2268 59.6196 15.1442 60.4193 15.4887 62.5619L17.9305 62.5718C18.1702 64.1713 21.4507 65.0698 23.1434 66.3534C19.5483 67.8937 19.0689 64.823 15.324 65.603C15.5188 66.7879 17.2714 66.6694 17.1067 68.1998C14.8747 69.661 12.1783 69.0192 10.171 69.8881C9.97628 71.0137 12.5978 71.6061 10.6804 72.3664C9.49699 72.6231 7.81929 70.7372 7.75937 71.9122C7.99904 74.114 8.763 74.4695 9.8565 76.2467L9.13751 76.8095L7.53467 76.7404L7.14526 75.0026C-0.629111 76.3355 5.91688 80.9959 7.53467 82.546C9.58687 84.5898 10.9051 87.0978 12.3581 88.3616C7.98409 88.7071 2.69632 88.875 0 91.1262L0.314512 92.6072C4.95817 95.3224 5.54234 101.395 13.092 101.691L16.3426 103.636L17.8855 103.488C18.23 105.147 21.2109 104.594 22.0048 105.867C26.993 105.936 30.004 108.711 35.127 108.839C44.5491 109.086 51.0202 111.09 59.9031 111.426C63.2135 111.555 66.6438 111.647 70.0142 111.686C79.2866 111.788 86.8812 112.069 95.09 111.957C108.871 111.817 121.199 111.68 133.363 111.698C136.748 111.692 140.912 112.852 143.669 110.666C142.98 109.797 140.133 110.755 139.819 109.54C142.965 109.136 144.567 107.891 147.863 107.477C154.124 106.687 161.869 107.447 168.834 107.151C188.263 106.341 205.714 106.302 223.375 105.522C228.303 106.183 235.748 106.252 238.339 103.784C241.17 103.142 241.29 104.791 242.683 105.354C249.933 106.41 255.386 105.433 262.067 103.429L265.437 103.853C265.947 103.359 266.306 102.797 268.044 102.846L269.362 103.468C277.885 102.194 286.349 102.51 294.917 102.185L294.782 103.458C296.025 103.192 296.655 103.448 297.598 103.429C297.299 103.675 296.909 105.482 298.362 105.127C299.65 105.779 298.946 103.636 300.04 103.448C302.377 102.451 305.522 102.382 307.979 102.658L309.342 101.513C309.822 102.639 313.027 101.533 314.255 102.017L314.405 102.757C309.866 102.589 307.155 103.211 305.627 105.166C312.862 104.594 327.587 107.319 332.53 102.471C348.798 104.12 368.901 102.56 385.333 104.051C384.39 104.367 383.251 104.594 381.828 104.653C381.828 106.805 387.715 106.341 389.228 105.423C389.528 104.278 387.161 104.603 388.09 103.784C391.026 104.426 393.198 104.08 396.538 103.685C405.691 104.376 415.098 104.85 426.048 104.041C422.857 102.757 417.779 103.034 413.66 102.491L413.765 100.97C410.499 100.713 403.848 101.691 402.125 99.3409C399.834 98.9163 396.403 99.4891 395.04 98.2845C397.182 97.929 401.302 97.1688 404.822 96.7837C405.436 96.0333 405.855 95.1742 407.263 94.7991C408.447 95.0558 411.203 96.3098 411.637 94.6115C408.761 95.1546 407.683 94.2462 406.544 93.3477C421.898 92.7454 437.163 94.4436 452.996 93.5353C452.561 92.8145 451.573 92.5677 451.768 91.373C449.236 90.7608 446.914 89.9808 444.098 89.6154C443.529 90.1585 442.256 90.3856 442.885 91.5112C446.225 91.1459 450 90.4152 450.39 92.5183C443.948 92.0542 436.024 92.8935 430.781 91.4322C434.017 90.5238 438.391 91.8963 441.417 90.3856C438.121 88.2036 429.433 90.4843 426.108 88.3812C422.557 89.0428 418.453 88.322 414.963 89.2403C412.836 89.7636 410.469 91.7482 408.252 89.9018L409.121 88.2825L411.652 88.8059L414.558 87.2458C413.899 85.8734 409.331 87.7296 409.391 85.7351C410.784 85.0934 410.963 83.9283 412.581 83.3951C415.053 83.3457 417.03 83.7407 419.861 83.4445C420.775 83.8098 420.52 85.202 422.153 84.9848C421.464 83.7506 423.007 83.5827 424.25 83.247C427.036 84.3627 431.395 83.7604 434.002 85.5673L432.968 86.4263C430.122 86.683 427.681 85.6364 425.643 86.1499L425.853 87.1274C430.991 87.4137 439.364 86.4757 443.529 86.6435C443.499 84.9848 440.368 85.9524 439.874 84.7182L440.818 83.3754C436.488 83.5038 431.575 84.0962 429.658 82.2004L430.257 81.1341C437.297 81.6772 444.128 81.2032 451.468 82.309C452.666 84.6293 457.714 83.6716 459.782 85.281C457.355 85.7747 453.056 85.5179 450.494 85.1921C450.764 84.9848 451.183 83.6222 449.82 83.9974L448.547 85.6266C447.049 84.8959 444.892 85.0934 444.697 86.525C450.03 87.5025 457.13 87.8382 462.014 88.322L464.605 87.3248L467.152 87.8284C468.065 86.1893 471.106 87.9073 472.919 86.4954C477.817 87.3347 483.674 87.4137 488.632 88.2035L490.4 87.0286C491.059 87.5618 491.883 87.9073 493.366 87.7296C494.04 87.3248 493.546 86.3374 495.073 86.3078C503.986 87.2853 511.701 86.6929 519.595 87.6507C519.161 88.0061 517.168 87.226 516.928 88.4306C517.977 89.0921 519.34 89.5168 521.183 89.5266L522.306 90.9385C526.905 90.7806 535.458 90.0894 539.712 89.1909C537.945 88.7367 534.784 89.6649 533.826 88.016C536.492 86.6929 539.832 87.8679 541.974 88.4701L539.847 89.9314C545.405 90.2177 552.385 90.4547 558.347 89.6154L558.886 88.2825L562.107 87.9567L563.575 89.6056C565.882 89.5661 570.765 90.0203 571.933 89.0132C570.645 88.5787 570.211 88.7367 569.177 89.2896L568.518 88.085C574.884 87.0286 581.041 88.2332 585.909 88.1246L587.003 87.5223C590.538 87.1866 594.897 87.8086 596.71 87.8086C602.012 87.8283 607.045 86.92 612.678 86.7225C616.542 86.5941 621.426 87.7099 624.916 87.5223C626.893 87.4236 627.133 87.2162 628.181 87.7099C634.757 87.0779 642.607 86.8114 649.692 86.3375C653.302 86.0709 658.965 87.4038 660.837 85.4785C653.857 85.6266 646.726 84.4022 640.15 84.9946C638.502 85.1526 637.169 85.8438 635.896 85.9326C634.623 86.0116 633.559 85.5081 632.166 85.5377C629.125 85.6364 625.171 87.2754 622.504 85.4883C617.561 86.2584 612.558 84.7083 607.39 84.728L609.457 83.0101C612.138 84.4319 613.951 82.7139 617.846 82.4177C614.43 79.2878 609.532 85.903 607.39 80.9366C605.098 79.8604 600.529 80.67 598.627 79.2877C600.484 78.8434 601.398 79.1298 602.881 78.3695C605.787 79.7419 609.592 78.7743 613.427 78.8237C618.115 78.873 622.744 80.5417 627.193 78.9718L628.571 79.5938C630.938 79.4555 634.099 78.6064 634.997 79.7123C638.802 78.0535 643.026 79.89 646.232 79.3469C645.004 77.6882 641.139 77.8165 641.993 74.4595C643.565 74.5286 644.494 75.1211 644.809 76.2072C646.187 75.595 647.88 76.0097 648.584 76.8391L647.88 79.4457C651.235 78.952 653.901 79.189 657.467 78.9718C656.897 77.4512 654.216 76.306 656.688 75.2791L657.107 77.2538C658.994 77.0169 659.144 75.9603 660.343 75.4173C661.526 75.9801 664.012 75.4963 664.267 76.7996L662.964 78.1819C661.646 77.629 662.065 77.5697 660.552 78.1819L659.489 77.0168C659.399 77.9449 658.111 78.3201 658.38 79.3963C662.44 78.8138 665.9 80.2455 668.372 78.9224C671.667 81.1933 681.164 78.3201 685.149 80.0085C687.935 78.7447 692.624 80.6898 695.305 78.4979C692.998 78.4485 687.126 78.8138 685.958 76.138C689.568 76.7502 690.541 75.2495 694.151 74.8348C698.166 76.1677 703.588 75.9505 707.768 74.2325C708.262 74.894 705.521 75.7431 707.663 75.7629C708.502 74.4793 710.809 75.4568 712.067 75.5654C712.981 75.4074 712.037 74.3707 713.49 74.4299L715.677 75.4667C722.747 74.6175 732.005 75.052 738.221 75.2396L739 73.1563C737.083 73.3834 736.693 72.3467 735.57 71.9715" fill="#4C626A" fill-opacity="0.75"/>
<path d="M64.328 76L64.856 72.88L68.264 72.208L71.576 48.688L68.168 48.016L68.6 44.896H81.272C84.568 44.896 87.096 45.488 88.856 46.672C90.616 47.856 91.496 49.952 91.496 52.96C91.496 55.36 91 57.376 90.008 59.008C89.048 60.64 87.608 61.84 85.688 62.608C83.768 63.376 81.384 63.728 78.536 63.664C78.472 63.664 78.392 63.664 78.296 63.664C78.232 63.664 78.168 63.664 78.104 63.664V60.976C82.328 60.816 84.44 58.176 84.44 53.056C84.44 51.808 84.216 50.864 83.768 50.224C83.352 49.584 82.808 49.152 82.136 48.928C81.464 48.672 80.76 48.544 80.024 48.544C79.672 48.544 79.32 48.592 78.968 48.688L75.656 72.208L80.12 72.88L79.688 76H64.328ZM89.9217 76L90.4497 72.88L93.8578 72.208L97.1698 48.688L93.7617 48.016L94.1938 44.896H106.866C108.722 44.896 110.386 45.088 111.858 45.472C113.362 45.856 114.546 46.592 115.41 47.68C116.274 48.736 116.706 50.304 116.706 52.384C116.706 53.984 116.37 55.44 115.698 56.752C115.026 58.032 114.098 59.12 112.914 60.016C111.73 60.88 110.338 61.488 108.738 61.84C109.73 62.352 110.466 63.072 110.946 64C111.458 64.896 111.938 65.904 112.386 67.024L114.69 72.592L117.618 73.408L117.282 76H110.754C109.602 76 108.834 75.872 108.45 75.616C108.098 75.36 107.762 74.8 107.442 73.936L103.89 64.288C103.73 63.84 103.554 63.536 103.362 63.376C103.17 63.184 102.914 63.088 102.594 63.088L101.154 72.592L103.986 73.408L103.65 76H89.9217ZM102.978 59.824C105.154 59.824 106.802 59.216 107.922 58C109.042 56.752 109.602 54.928 109.602 52.528C109.602 51.312 109.282 50.352 108.642 49.648C108.002 48.912 107.074 48.544 105.858 48.544C105.474 48.544 105.186 48.56 104.994 48.592C104.834 48.624 104.69 48.672 104.562 48.736L102.978 59.824ZM131.054 76.528C128.942 76.528 126.926 76.096 125.006 75.232C123.086 74.368 121.518 73.024 120.302 71.2C119.118 69.344 118.526 66.992 118.526 64.144C118.526 60.624 118.974 57.616 119.87 55.12C120.798 52.624 122.03 50.576 123.566 48.976C125.102 47.376 126.83 46.208 128.75 45.472C130.67 44.704 132.622 44.32 134.606 44.32C137.134 44.32 139.23 44.688 140.894 45.424C142.59 46.16 143.918 47.136 144.878 48.352C145.87 49.536 146.574 50.864 146.99 52.336C147.406 53.808 147.614 55.264 147.614 56.704C147.614 59.776 147.246 62.544 146.51 65.008C145.774 67.44 144.686 69.52 143.246 71.248C141.838 72.944 140.11 74.256 138.062 75.184C136.014 76.08 133.678 76.528 131.054 76.528ZM131.87 73.12C133.566 73.12 134.926 72.656 135.95 71.728C136.974 70.768 137.742 69.472 138.254 67.84C138.766 66.208 139.102 64.336 139.262 62.224C139.454 60.08 139.55 57.84 139.55 55.504C139.55 53.328 139.262 51.68 138.686 50.56C138.142 49.44 137.47 48.688 136.67 48.304C135.87 47.888 135.07 47.68 134.27 47.68C132.542 47.68 131.166 48.144 130.142 49.072C129.118 50 128.35 51.296 127.838 52.96C127.358 54.592 127.038 56.496 126.878 58.672C126.718 60.816 126.638 63.104 126.638 65.536C126.638 67.648 126.91 69.248 127.454 70.336C127.998 71.424 128.67 72.16 129.47 72.544C130.302 72.928 131.102 73.12 131.87 73.12ZM153.817 76.672C153.273 76.672 152.553 76.624 151.657 76.528C150.761 76.432 149.865 76.288 148.969 76.096C148.073 75.904 147.337 75.664 146.761 75.376L147.913 66.88H151.177L151.897 72.544C152.057 72.672 152.329 72.8 152.713 72.928C153.129 73.056 153.625 73.12 154.201 73.12C155.065 73.12 155.689 72.832 156.073 72.256C156.489 71.648 156.809 70.544 157.033 68.944L159.865 48.64L156.505 48.016L156.889 44.896H170.953L170.569 48.016L167.161 48.688L164.281 69.52C164.089 71.024 163.673 72.32 163.033 73.408C162.425 74.464 161.401 75.28 159.961 75.856C158.553 76.4 156.505 76.672 153.817 76.672ZM168.392 76L168.872 72.88L172.28 72.208L175.592 48.688L172.184 48.016L172.664 44.896H195.608L194.12 54.16H190.712V48.592H185.384L182.984 48.928L181.592 58.288H186.776L187.88 55.168H191.144L189.8 65.104H186.68L186.728 61.744H181.112L179.72 71.968C180.264 72.096 180.84 72.192 181.448 72.256C182.088 72.288 182.712 72.304 183.32 72.304H187.688L189.656 66.928H192.872L191.768 76H168.392ZM209.191 76.528C206.343 76.528 203.991 75.984 202.135 74.896C200.311 73.776 198.951 72.288 198.055 70.432C197.191 68.576 196.759 66.528 196.759 64.288C196.759 61.6 197.095 59.056 197.767 56.656C198.471 54.224 199.511 52.096 200.887 50.272C202.263 48.416 204.007 46.96 206.119 45.904C208.231 44.848 210.711 44.32 213.559 44.32C215.223 44.32 216.871 44.4 218.503 44.56C220.135 44.688 221.639 44.928 223.015 45.28L221.575 54.208H217.831L217.687 49.264C216.791 48.784 215.879 48.432 214.951 48.208C214.023 47.984 213.031 47.872 211.975 47.872C210.503 47.872 209.239 48.4 208.183 49.456C207.127 50.512 206.311 52.224 205.735 54.592C205.159 56.96 204.871 60.128 204.871 64.096C204.871 67.264 205.335 69.568 206.263 71.008C207.191 72.416 208.823 73.12 211.159 73.12C211.799 73.12 212.455 73.04 213.127 72.88C213.799 72.72 214.407 72.432 214.951 72.016L216.535 65.488H220.279L219.511 74.848C217.751 75.456 215.959 75.888 214.135 76.144C212.343 76.4 210.695 76.528 209.191 76.528ZM226.253 76L226.685 72.88L230.093 72.208L233.453 48.496H228.653L226.877 54.064H223.469L224.477 44.896H250.013L248.669 54.064H245.309L245.165 48.496H240.653L237.389 72.208L240.797 72.88L240.317 76H226.253ZM256.562 76.528C254.866 76.528 253.362 76.4 252.05 76.144C250.738 75.888 249.65 75.6 248.786 75.28C247.922 74.928 247.314 74.656 246.962 74.464L247.922 65.344H251.714L252.194 71.2C252.706 71.712 253.506 72.16 254.594 72.544C255.714 72.896 256.898 73.072 258.146 73.072C259.17 73.072 259.986 72.816 260.594 72.304C261.234 71.792 261.554 71.008 261.554 69.952C261.554 69.504 261.442 69.008 261.218 68.464C260.994 67.92 260.546 67.264 259.874 66.496C259.234 65.728 258.29 64.8 257.042 63.712C255.57 62.4 254.354 61.296 253.394 60.4C252.466 59.504 251.73 58.704 251.186 58C250.642 57.264 250.258 56.528 250.034 55.792C249.842 55.056 249.746 54.192 249.746 53.2C249.746 51.664 250.114 50.224 250.85 48.88C251.618 47.536 252.786 46.448 254.354 45.616C255.922 44.752 257.922 44.32 260.354 44.32C262.434 44.32 264.226 44.432 265.73 44.656C267.266 44.848 268.402 45.056 269.138 45.28L268.274 54.4H264.626L264.146 49.216C263.634 48.768 262.914 48.416 261.986 48.16C261.058 47.872 260.034 47.728 258.914 47.728C257.634 47.728 256.802 48.016 256.418 48.592C256.034 49.136 255.842 49.68 255.842 50.224C255.842 50.544 255.922 50.912 256.082 51.328C256.274 51.712 256.69 52.24 257.33 52.912C258.002 53.584 259.026 54.544 260.402 55.792C261.586 56.816 262.722 57.872 263.81 58.96C264.898 60.048 265.794 61.2 266.498 62.416C267.202 63.6 267.554 64.912 267.554 66.352C267.554 68.432 267.058 70.24 266.066 71.776C265.106 73.28 263.794 74.448 262.13 75.28C260.498 76.112 258.642 76.528 256.562 76.528Z" fill="white"/>
</svg>
