<svg width="645" height="465" viewBox="0 0 645 465" fill="none" xmlns="http://www.w3.org/2000/svg">
<path opacity="0.95" fill-rule="evenodd" clip-rule="evenodd" d="M533.49 412.753C524.121 412.014 514.697 411.493 505.217 411.321L505.205 411.461C510.626 411.275 514.161 412.727 514.619 411.685C515.589 412.081 518.868 411.983 517.786 412.805C518.098 413.393 511.853 412.597 513.548 413.471C518.868 413.487 523.887 412.909 525.136 414.143C523.608 414.543 520.017 413.8 517.786 414.366C520.351 415.679 535.687 416.242 524.099 417.48C520.664 417.007 511.853 416.507 510.391 416.366C514.485 417.245 522.471 417.859 518.823 419.704C525.292 420.177 527.088 420.287 534.516 420.375C535.185 419.495 528.817 420.115 530.345 419.038C530.389 418.428 535.308 418.501 536.669 418.813C537.895 417.527 534.482 417.188 533.49 416.366L537.717 415.252C535.441 414.61 533.78 413.825 533.49 412.753ZM305.374 307.468C278.796 307.728 234.429 307.485 198.951 306.588C234.764 305.866 273.164 307.108 305.374 307.468ZM453.745 310.663C460.716 310.496 465.746 309.523 467.24 311.251C438.61 312.148 428.717 310.731 399.842 310.663C419.014 309.867 442.725 309.523 453.745 310.663ZM521.444 360.883C525.248 359.726 528.806 360.254 534.103 360.615C528.683 363.03 518.455 360.212 511.596 360.237C514.663 359.097 518.177 360.388 521.444 360.883ZM554.346 392.28C554.369 393.265 549.561 393.644 550.141 392.255L554.346 392.28ZM568.377 385.517C567.942 385.782 567.529 386.059 568.377 386.142C567.016 386.814 564.451 385.345 564.194 384.501C566.693 384.351 566.235 385.506 568.377 385.517ZM434.874 417.48C433.658 417.262 432.71 416.975 431.706 416.798C437.818 416.705 443.863 416.433 449.741 415.789C450.823 415.852 451.213 416.225 451.626 416.596C446.027 416.871 439.948 417.282 434.874 417.48ZM431.706 417.48C411.898 418.059 389.09 419.324 371.914 418.152C385.521 417.975 402.831 417.506 420.296 416.798C423.096 416.85 425.884 416.876 428.661 416.861L427.524 417.027C429.33 417.09 432.754 416.824 431.706 417.48ZM390.763 420.166C392.703 419.527 398.682 419.751 402.306 419.48C399.931 420.011 395.938 420.208 390.763 420.166ZM393.93 439.322C392.369 439.281 393.562 438.666 391.856 438.666C399.697 438.801 410.56 436.974 416.995 437.546C413.828 439.114 398.894 438.151 393.93 439.322ZM392.86 441.988C394.845 440.82 399.44 441.368 404.481 441.119C402.028 441.707 396.797 441.717 392.86 441.988ZM388.633 439.541C378.349 439.806 378.862 439.744 369.806 439.988C374.546 439.114 384.684 439.083 388.633 438.666C391.856 438.801 387.673 439.14 388.633 439.541ZM385.499 444.227C383.826 444.138 384.595 443.529 381.294 443.784C382.376 443.414 385.777 443.539 387.629 443.331L385.499 444.227ZM378.204 444.002C376.933 444.033 377.301 444.424 377.111 444.674C375.037 444.758 373.866 444.617 374 444.227C372.963 444.387 372.405 444.633 371.914 444.893C370.029 444.174 367.43 444.789 364.497 444.451C368.077 443.575 376.264 444.346 378.204 443.549C380.703 443.472 377.535 444.586 381.294 444.227L378.204 444.002ZM366.081 415.799C375.037 415.492 383.937 415.679 392.781 415.949C379.119 416.256 364.776 416.455 350.043 416.549C355.508 416.242 360.884 415.966 366.081 415.799ZM314.163 439.541C316.706 439.13 319.282 438.702 323.61 438.666C322.874 439.645 318.948 439.14 314.163 439.541ZM451.626 425.06C447.198 424.551 445.636 425.618 439.023 425.285C437.985 424.993 438.052 424.463 435.911 424.394C439.569 423.843 450.232 423.801 451.626 425.06ZM487.338 423.713C488.554 423.676 488.186 423.312 488.364 423.067C492.825 423.608 494.777 422.339 498.893 422.832C498.29 424.02 488.799 425.285 484.159 424.17C480.992 424.004 482.152 424.78 478.917 424.613C481.025 425.536 483.903 424.332 486.29 424.837C485.498 425.624 481.527 425.764 477.858 425.952C477.044 425.702 476.486 425.353 476.832 424.837C473.653 424.911 474.858 425.904 469.482 425.504C468.456 426.165 471.846 425.904 473.653 425.952C473.575 426.737 470.218 426.847 466.281 426.847L468.456 426.165C465.099 426.217 460.693 426.686 457.894 426.165C466.281 425.165 476.285 423.431 487.338 423.713ZM506.22 421.718C506.555 421.411 508.852 421.526 510.391 421.494C510.436 422.166 508.183 422.365 507.258 422.832C503.421 422.693 509.722 421.803 506.22 421.718ZM423.285 443.784C425.193 445.347 411.307 445.211 406.533 445.128C410.872 444.424 419.382 444.592 423.285 443.784ZM264.777 441.119C262.68 440.909 262.68 440.368 264.777 440.884C274.837 440.187 293.463 439.978 305.731 439.541C292.883 440.989 279.332 440.717 264.777 441.119ZM256.378 432.856C255.564 432.007 261.42 432.579 263.773 432.424C262.022 433.163 260.226 432.543 256.378 432.856ZM229.109 441.119C234.05 440.753 244.099 440.764 247.991 440.884C245.203 441.337 234.619 441.436 229.109 441.119ZM198.706 430.856C199.241 429.721 207.494 430.512 211.331 430.632C209.134 431.147 202.52 430.705 198.706 430.856ZM188.144 440.431C193.218 440.092 199.241 440.759 202.877 440.649C201.159 441.337 191.779 441.035 188.144 440.431ZM191.356 453.582C193.519 453.073 199.141 453.698 201.851 453.812C200.144 454.218 193.921 453.728 191.356 453.582ZM135.724 432.638C148.315 432.564 163.004 433.589 175.54 433.527C163.595 433.99 147.624 433.412 135.724 432.638ZM166.116 438.666C170.064 438.483 171.191 438.921 174.548 438.885C174.057 439.192 165.112 439.432 166.116 438.666ZM149.319 439.541C153.424 439.775 153.647 439.437 156.691 439.765C156.457 440.092 148.093 440.29 149.319 439.541ZM124.147 430.408C128.363 430.632 135.289 430.267 136.761 431.069C133.649 430.627 125.117 431.324 124.147 430.408ZM126.288 429.747C123.221 429.695 120.132 429.305 117.89 429.519C124.336 428.825 139.259 429.893 126.288 429.747ZM93.7546 439.988C102.856 440.368 109.804 441.191 117.89 441.774C114.12 442.014 97.424 441.227 93.7546 439.988ZM83.2371 433.757C86.6276 433.412 90.4978 434.87 92.6615 435.537C88.4233 435.167 86.3599 434.339 83.2371 433.757ZM85.3113 448.897C88.5792 449.168 92.3603 449.335 92.6615 450.25C90.7877 449.694 85.5232 449.844 85.3113 448.897ZM77.9951 437.098C80.4822 436.734 85.3113 437.759 85.3113 438.666C81.8203 438.353 80.9506 437.494 77.9951 437.098ZM88.4568 431.971C85.2224 431.996 83.4488 431.684 81.1624 431.507C82.2554 431.074 89.8286 431.147 88.4568 431.971ZM89.5164 431.507C93.6653 431.808 91.914 432.292 96.8326 432.638C94.3454 433.147 88.401 432.538 89.5164 431.507ZM96.8326 426.847C100.725 427.278 104.316 427.779 106.279 428.612C103.101 428.93 98.3829 427.638 96.8326 426.847ZM98.9517 424.17C95.8399 425.218 101.818 425.218 102.119 426.165C99.0969 425.395 92.8843 425.321 91.6128 424.17C97.4236 424.379 96.0853 424.743 98.9517 424.17ZM115.749 429.305C114.031 429.883 108.432 429.393 107.35 429.054C108.9 428.55 113.562 429.212 115.749 429.305ZM148.316 421.037C146.609 421.599 140.943 421.136 138.88 421.037C140.508 420.5 146.219 420.953 148.316 421.037ZM167.588 419.057C174.905 419.453 181.797 419.798 191.356 419.704C191.936 420.26 191.244 420.666 195.594 420.823C185.511 421.161 169.06 420.166 157.985 419.011C161.164 419.038 164.387 419.048 167.588 419.057ZM68.5258 442.671C69.2173 441.31 72.4295 442.712 74.8386 442.878C73.8571 443.43 71.7602 442.384 68.5258 442.671ZM126.21 418.908C127.515 418.891 128.809 418.886 130.103 418.875C131.285 419.001 132.478 419.131 133.649 419.267C131.084 419.188 128.697 419.032 126.21 418.908ZM70.8679 334.7C42.6727 334.616 11.511 334.222 -15 336.151C-12.1894 337.509 -7.44924 338.054 -3.03259 338.239C14.4221 338.952 40.431 337.375 62.4473 337.627C77.1918 337.778 92.9626 336.436 98.3496 339.824C107.462 340.646 119.161 337.409 124.604 339.489C120.31 339.446 116.518 339.472 114.611 339.841C117.923 340.025 122.251 340.025 125.898 340.151L127.191 341.476C88.5457 341.434 42.9741 340.738 12.4925 345.334C18.2364 346.609 29.6015 345.309 34.3304 347.028C31.6537 347.121 29.3227 347.364 27.304 347.724C29.5793 350.056 38.3119 349.418 42.8177 350.727C42.762 352.077 36.7619 350.819 35.7804 351.741C44.6472 352.949 53.7369 354.039 63.2394 354.962C66.7638 353.905 75.9761 354.492 78.7309 355.759C80.9058 355.146 86.2596 354.232 89.2933 355.054C84.6647 355.331 82.3893 356.639 80.8613 358.266C85.1441 361.789 100.658 360.17 104.818 363.734C112.581 362.636 124.793 362.46 129.199 364.879C126.623 364.94 124.024 365.024 121.37 365.222C123.935 365.243 126.913 365.315 129.991 365.409L130.883 367.294L96.3864 367.586C94.4793 368.231 93.7432 369.372 90.7877 369.544C72.4965 369.835 46.2195 368.366 28.1514 371.053C27.248 371.969 27.2483 373.303 28.174 374.209C21.2033 375.962 8.82312 375.011 2.84503 375.714C8.13163 376.438 16.0726 375.962 19.0393 377.754C21.3592 377.317 21.8833 376.797 23.9689 377.712C22.0394 378.232 18.9389 378.249 16.9202 378.733C27.2034 377.978 40.3085 376.775 47.2123 379.706C46.1639 380.508 44.7251 381.149 44.4128 382.258C44.4909 383.487 48.7736 384.46 47.926 385.059C44.2008 384.971 45.9629 385.334 45.1599 386.351L50.0564 386.934C46.1974 387.552 39.4607 386.887 39.5276 389.25C42.4274 389.902 47.625 389.526 50.7814 390.083L48.6732 390.734C54.4059 390.307 54.1829 392.634 57.8523 393.166C83.2703 393.099 109.67 393.14 134.542 393.442C202.698 394.29 271.48 396.149 340.685 393.546C390.428 391.666 438.509 396.79 483.446 394.91C485.107 394.847 486.769 394.368 488.364 394.279C497.766 393.806 504.592 395.727 513.648 395.883C520.139 395.978 533.891 393.837 537.516 396.899C533.579 395.717 528.917 397.528 524.177 397.789C514.028 398.356 494.298 396.763 483.446 396.487C480.133 396.404 463.102 395.978 477.122 396.487C485.085 397.221 495.614 396.805 502.417 398.065C468.021 397.44 430.736 395.826 396.964 397.034C394.042 396.717 396.73 395.675 394.153 395.483C341.343 396.988 285.488 396.899 230.247 396.159C170.912 395.363 105.086 392.994 53.659 398.248C55.9008 398.596 59.2464 398.638 57.1831 400.117C63.8638 399.576 63.7076 402.172 66.3509 403.5C65.8155 405.886 59.6369 405.803 55.8225 406.749C57.8189 411.284 48.9744 412.05 50.9373 415.623C55.9228 417.345 67.3995 416.085 75.5636 416.361C79.2999 418.032 85.5233 418.537 91.0665 418.731C98.4833 418.985 106.023 418.996 113.607 418.964C116.485 419.131 119.261 419.303 121.057 419.704C119.161 419.995 114.734 419.486 112.626 420.166C121.515 420.791 129.59 421.599 137.81 422.375C134.497 422.677 133.348 422.542 129.433 422.375C130.682 423.249 126.946 423.047 124.147 423.067C123.377 424.248 132.311 423.411 132.5 424.394C113.228 424.399 100.168 423.109 86.3599 421.952C88.2894 422.901 87.4528 423.172 87.3859 423.937C85.2222 423.738 81.3968 422.708 77.9951 423.504C83.7612 424.134 80.6161 426.561 89.5164 426.165C90.0629 427.774 98.2267 427.753 100.067 429.054C92.7617 429.482 90.1966 427.763 86.3599 428.174C88.9809 428.399 85.5346 429.164 83.2371 429.054C81.6199 428.736 82.8799 427.804 79.0655 427.961C77.6267 428.633 79.4224 428.872 76.8906 429.519C81.8203 429.378 84.2963 431.236 79.0655 431.293C78.4409 430.918 80.3149 430.007 77.9951 429.966C77.9504 431.069 72.3516 431.002 69.6302 431.507C67.7118 433.99 80.3149 434.59 77.9951 436.422C72.017 435.688 70.8794 433.928 66.3958 432.856C66.0612 433.444 63.8864 433.677 60.1278 433.527C61.4216 434.401 62.8269 434.595 60.1278 435.312C63.5295 435.6 60.9531 434.59 64.3102 434.87C63.2172 435.693 66.9646 435.495 66.3958 436.208C64.9905 436.276 64.3771 436.52 62.2134 436.422C61.165 437.468 66.4737 437.155 65.3807 438.213C62.6035 438.328 60.072 437.296 58.0645 437.978C66.3624 438.885 69.6301 440.884 75.8982 442.222C73.2326 441.962 67.154 441.254 65.3807 441.555C68.1355 441.821 67.087 443.06 67.4662 443.331C62.9938 443.175 60.8193 442.509 55.9454 442.441C55.5996 443.123 62.8269 443.331 60.1278 443.784C57.7856 443.175 52.4655 443.18 49.6661 442.671C59.2466 444.951 73.8795 446.132 82.1775 448.688C72.4519 447.777 66.3624 446.096 55.9454 445.326C56.9603 446.975 63.1835 447.523 65.3807 448.897C67.9236 448.767 70.801 448.46 70.5891 449.355C67.0089 449.433 64.2318 449.335 61.1647 449.355C64.8675 449.844 68.3473 450.365 70.5891 451.14C66.9197 450.401 59.6814 451.026 65.3807 451.796C63.7635 450.219 69.05 452.651 68.5258 452.693C64.1983 452.76 62.0346 451.558 59.0456 452.021C58.5549 453.395 70.4891 453.911 63.3065 454.702C75.9764 456.024 93.3642 457.52 101.06 459.16C87.9549 458.305 76.2438 457.165 65.3807 455.816C68.2247 456.914 74.426 457.326 75.8982 458.711C73.2326 458.884 71.0466 457.837 69.6302 458.493C78.062 459.539 89.1594 461.173 92.6615 462.507C88.7244 462.44 85.3002 461.117 81.1624 461.83C88.0328 462.268 91.2784 463.491 93.1856 465C94.0667 464.98 94.9367 464.948 95.8401 464.929V464.735C97.1227 464.72 98.093 464.762 98.9072 464.845C159.915 463.303 220.99 460.497 281.44 456.914C331.662 453.936 381.907 449.657 432.275 450.151C454.514 450.375 476.709 450.817 498.893 450.828C497.688 450.151 496.45 449.48 493.662 449.136C498.134 448.47 497.588 448.116 499.885 447.121C492.022 446.59 486.29 445.566 476.832 445.326C476.464 444.153 485.933 445.034 486.29 444.002C473.475 442.894 461.228 442.909 448.492 443.331C449.049 442.103 442.291 442.868 439.023 442.441C438.688 441.847 444.934 442.665 443.272 441.774C429.899 441.368 408.998 444.846 398.102 442.878C398.102 443.716 389.648 443.893 388.633 443.784C390.696 442.494 403.935 442.134 407.571 443.107C409.545 442.384 411.095 441.655 414.932 442.441C414.831 441.222 422.315 441.796 424.345 441.555C425.605 440.623 422.639 440.582 422.27 439.988C427.278 438.963 436.156 439.806 439.023 438.666C433.77 438.885 433.959 437.947 430.624 437.759C431.661 436.552 444.064 437.791 444.253 436.422C436.803 436.162 430.624 437.734 424.345 437.546C431.706 435.323 446.395 435.918 456.935 435.766C455.842 434.537 448.458 435.954 447.443 434.641C453.087 433.99 456.856 435.037 460.08 434.183L457.894 435.094C461.463 435.105 463.493 434.781 465.299 434.412C462.522 434.167 466.693 433.563 467.385 433.308C470.006 433.105 471.891 432.787 475.761 432.856C480.222 431.293 497.041 431.465 500.588 430.028C497.922 430.35 492.491 430.35 492.524 429.747C502.227 428.742 515.901 428.597 520.898 426.623C519.37 426.295 519.069 425.681 516.727 425.504C513.024 425.686 505.986 426.337 503.086 425.952C505.384 425.182 511.63 425.238 516.727 425.06C519.08 424.342 515.745 423.598 517.786 423.067C520.351 423.385 521.935 423.598 525.136 423.28C523.374 422.093 528.259 422.306 528.259 421.494C521.98 420.624 506.354 420.542 498.893 421.281L499.885 420.375C493.127 420.037 486.39 421.88 482.085 420.609C478.471 420.666 477.055 421.161 472.661 421.037C475.259 421.98 470.073 421.98 467.385 422.375C454.369 420.693 430.334 421.573 423.285 419.704C428.427 419.907 442.659 420.791 447.443 419.48C446.205 417.808 434.751 419.751 431.706 419.038C435.632 418.767 436.703 418.543 436.926 417.929C439.368 418.872 444.867 417.808 447.443 418.59C448.369 417.881 444.733 418.137 444.253 417.704C447.532 417.636 450.41 417.501 453.042 417.303L454.659 417.345C455.663 417.209 456.544 417.027 457.526 416.882C458.797 416.726 459.99 416.559 461.095 416.366L460.682 416.377C464.708 415.726 468.668 415.059 472.493 414.32C478.248 413.711 484.394 413.747 489.435 414.58C493.439 414.627 493.127 413.747 496.74 413.685C492.324 412.805 488.676 414.174 486.29 413.258C486.658 412.81 490.327 413.06 489.435 412.363C485.476 412.576 485.063 412.258 484.851 411.936C491.855 410.556 498.915 409.213 506.622 408.165C508.919 407.727 508.585 406.11 511.551 405.964C514.206 405.51 516.637 406.796 517.853 405.975C515.399 405.39 522.794 404.074 526.965 404.428C527.835 402.965 522.136 403.522 524.166 402.526C529.575 402.537 533.88 404.121 538.196 402.886C532.43 402.871 537.817 401.257 533.992 400.034C537.449 399.814 537.862 399.976 537.494 398.793C540.483 398.622 542.122 399.055 544.509 399.143C545.714 398.966 544.453 397.648 545.914 397.575C547.442 398.267 549.684 397.102 550.822 398.248L548 398.856C557.904 399.283 549.718 397.627 547.308 396.327C549.718 395.638 553.632 394.785 555.038 393.546C556.677 394.41 558.819 395.018 561.317 395.513C563.525 394.451 565.577 395.035 567.585 393.691C564.239 393.166 565.287 390.734 564.161 389.24C567.206 388.193 572.303 390.38 575.281 390.037C572.916 389.282 567.685 388.126 567.652 387.381C568.711 387.35 570.228 387.537 570.44 387.115C566.748 387.308 569.793 386.272 568.377 385.829C572.124 386.059 579.853 386.412 581.549 387.022C575.013 385.246 571.176 382.3 566.325 379.79C567.674 379.378 568.845 378.863 569.838 378.285C575.303 378.409 581.649 379.306 585.162 377.978C576.552 377.4 573.262 376.516 570.585 373.553C571.656 372.694 573.452 374.162 574.087 373.303C571.31 372.564 573.195 371.642 573.429 370.445C575.693 370.111 573.965 371.48 576.229 371.126C579.43 369.736 579.92 368.241 579.106 365.523C578.604 364.879 576.887 366.325 574.188 365.742C574.121 364.493 575.794 364.246 574.924 363.533C574.009 363.08 571.277 364.28 570.005 363.147C571.857 361.244 576.507 359.726 574.299 356.899C574.366 356.362 570.005 357.478 570.072 356.212C571.009 355.44 572.682 356.581 572.894 355.935C570.875 354.786 567.618 353.452 570.106 352.102C568.064 352.136 566.525 351.976 565.867 351.406C566.748 351.372 567.551 351.339 567.306 350.794C561.741 349.854 561.272 346.701 556.041 345.628C558.975 345.326 560.815 346.341 562.377 345.695L561.395 344.219L563.481 343.632C562.22 343.514 561.205 343.514 560.257 343.556C558.874 342.86 557.525 342.265 558.105 341.099L559.109 340.956C560.915 341.082 561.373 342.047 563.124 341.283L562.823 340.487C564.83 340.26 566.86 340.051 568.511 339.841C568.511 339.069 567.864 338.172 570.172 337.794C573.451 338.918 593.103 336.444 583.735 335.455C578.66 336.822 567.183 337.023 560.402 338.038C558.183 336.847 554.96 336.243 551.848 335.497C551.502 334.507 554.29 334.683 552.55 333.92C550.621 333.517 549.651 333.391 548.123 333.324C547.755 332.981 548.178 332.612 549.974 332.553C553.465 332.628 550.409 333.844 553.342 334.004C560.96 333.039 569.793 333.383 578.593 332.259C573.596 331.832 562.343 332.427 555.004 332.553C557.001 332.1 557.001 331.832 555.004 331.387C559.566 331.387 564.93 331.546 565.153 330.791C558.227 331.144 554 330.389 558.339 329.626C553.298 329.425 553.387 330.121 548.312 329.919C551.357 328.863 548 329.064 546.595 328.175C556.242 327.697 567.451 327.487 575.27 326.707C574.991 327.353 576.664 327.655 580.311 327.613C579.351 326.363 587.426 326.682 590.494 326.112C587.426 325.441 576.173 326.816 571.879 325.835C576.976 326.196 580.645 324.879 576.931 324.669C570.072 326.07 551.257 325.24 544.888 325.835C550.409 324.275 572.37 325.525 575.27 323.504C565.02 322.447 550.944 324.175 543.171 323.504C549.004 322.262 561.596 322.204 568.511 321.181C573.775 321.919 577.935 321.541 585.475 321.474C584.95 319.772 569.693 320.694 568.511 319.126C579.028 318.757 584.594 318.891 595.579 319.428C597.509 318.505 592.891 318.715 592.133 318.262C597.721 318.237 601.245 317.876 602.271 317.105C590.382 316.559 583.322 315.092 590.494 313.297C586.412 313.037 583.155 312.626 576.931 312.71C580.478 311.125 570.552 311.863 568.511 311.251C570.496 311.209 573.34 311.301 573.507 310.949C564.406 309.716 554.681 311.695 548.312 310.37C561.819 309.414 574.511 309.917 583.735 308.047C569.693 306.034 594.609 303.837 587.047 301.925C591.832 302.227 594.241 302.26 593.806 301.044C584.805 301.069 575.314 302.688 570.172 301.044C575.604 300.65 575.916 300.969 582.095 301.044C584.426 300.599 584.27 299.694 587.047 299.3C587.047 299.803 595.044 298.847 597.286 299.585C593.962 298.008 576.931 299.325 566.86 298.436C574.678 297.773 578.537 297.58 587.047 297.538C589.144 295.92 581.961 294.494 588.754 293.773C594.609 293.505 595.256 294.201 600.621 294.041C602.918 292.464 594.921 292.691 592.133 292.003C591.118 290.083 598.803 289.647 604 288.791C592.735 287.533 578.37 286.795 570.172 285C562.231 285.655 553.075 284.908 546.595 284.413C548.904 283.264 562.889 284.112 563.481 282.686C547.242 281.52 538.129 282.468 522.917 283.558L521.199 282.954C520.407 281.83 525.593 281.763 526.341 280.925C521.043 280.43 519.437 282.015 517.887 281.201C521.043 279.415 534.014 279.323 538.13 277.712C533.802 277.687 529.408 277.671 529.72 276.832C534.114 276.647 534.17 276.639 536.457 275.666C545.212 276.094 554.804 274.727 561.819 273.905C545.212 274.693 544.888 272.312 544.888 271.297C548.424 271.188 562.555 271.959 563.046 270.885L562.231 270.861C559.889 271.162 555.595 271.07 554.592 270.542C550.989 270.408 547.409 270.223 543.795 270.106C541.62 270.139 539.524 270.164 536.457 270.433L534.371 269.712C434.026 266.323 331.026 267.866 239.314 275.23C245.248 275.264 250.936 275.389 256.39 275.951C247.512 275.96 239.359 275.926 232.555 275.834C231.016 275.96 229.488 276.11 227.938 276.253C234.764 276.89 248.415 275.632 249.597 277.712C236.682 277.754 224.793 277.712 212.625 277.629C210.439 277.838 208.119 278.014 205.933 278.216C212.881 278.232 219.306 278.258 219.194 279.457C214.599 279.096 210.695 278.618 204.093 278.602C214.432 280.388 249.374 279.507 247.924 282.367C234.385 280.589 217.655 280.857 200.713 280.623C212.078 281.453 231.752 281.822 241.188 282.082C241.868 282.795 238.065 282.711 239.459 283.558C243.809 284.044 252.865 283.759 256.39 284.413C252.386 284.506 253.178 285.428 247.924 285.286C245.203 285.252 239.247 284.321 237.853 285C242.682 285.143 245.515 285.604 246.263 286.485C241.98 286.963 240.318 286.124 237.853 286.761C241.032 287.567 251.304 287.156 251.304 288.506C247.222 289.974 239.95 288.397 232.7 288.791C240.92 289.865 249.051 290.888 254.627 290.259C254.148 291.936 236.637 290.787 234.384 290.838C234.284 290.535 241.723 290.242 236.147 289.974C233.838 290.787 228.641 289.747 226.02 289.672C226.388 290.678 232.89 290.611 234.384 291.416C226.878 291.651 215.937 292.322 205.754 292.884C209.022 294.05 203.122 295.039 198.951 295.786C189.594 295.039 183.693 297.421 168.681 296.674C173.298 298.469 193.174 296.633 207.427 297.832C192.516 298.822 178.976 297.295 165.257 298.151C166.529 298.184 168.57 298.151 168.681 298.436C152.565 299.585 139.482 299.945 121.37 301.044C133.75 300.927 129.623 301.673 139.917 300.742L138.256 301.64C146.554 301.698 156.48 300.86 163.54 301.64C163.64 301.162 163.261 300.633 166.964 300.742C177.091 301.522 186.036 301.312 195.572 302.512C186.036 303.786 164.086 302.721 156.792 303.678C164.242 303.954 178.976 302.94 178.752 304.55C174.347 305.514 155.286 305.254 148.316 304.851C148.595 306.554 167.722 305.002 170.276 306.302C141.256 307.317 101.64 306.99 75.876 307.753C87.1853 307.938 95.2264 308.693 102.822 309.506C114.41 308.366 136.215 309.993 149.989 310.37C146.554 310.479 130.482 310.555 124.749 310.093L123.511 310.429C115.804 310.32 108.488 310.32 102.398 310.773L101.272 310.907C90.7096 310.605 79.2778 310.202 72.3963 311.251C78.9655 311.527 85.7239 311.88 92.5608 312.257C88.8357 312.928 84.9548 313.532 80.5939 313.498C79.3336 316.61 74.1695 318.631 75.7087 322.044C80.7611 324.284 89.7391 326.38 93.3416 328.192C79.5339 327.504 71.5929 329.358 64.5106 331.605C68.2915 331.387 73.3218 330.029 77.1808 330.867C75.5524 331.63 70.5336 330.892 68.738 331.572C69.0391 332.603 72.474 333.853 70.8679 334.7Z" fill="url(#paint0_diamond_53_144)"/>
<path d="M484.987 184.362L484.292 187.517L485.321 186.452L484.987 184.362ZM305.783 142.692L303.672 143.776C303.672 145.326 306.264 146.051 305.783 142.692ZM307.534 142.692L308.576 144.823C309.205 142.566 311.73 145.868 311.73 141.704C310.394 139.77 309.124 142.566 307.534 142.692ZM481.499 92.7497C483.25 89.9146 482.809 96.3213 481.499 92.7497ZM490.24 91.684H489.184V93.7767H490.24V91.684ZM496.173 91.684H495.118V93.7767H496.173V91.684ZM497.924 93.7767C499.755 94.0462 499.969 92.6571 501.412 93.7767C501.639 90.3669 497.697 90.3669 497.924 93.7767ZM510.473 92.7497L509.444 91.684H508.402L510.473 92.7497ZM517.463 91.684L516.42 92.7497H517.115L517.463 91.684ZM519.547 90.6722L521.312 92.7497C521.659 89.25 520.256 91.1093 519.547 90.6722ZM367.621 61.4888C369.438 64.4856 372.205 62.4258 373.902 62.5156L376.321 63.5456L378.78 62.5156C381.466 62.6593 384.607 64.6114 387.172 63.5456C389.859 64.3539 392.946 65.3686 395.205 64.6112L397.998 66.6832C411.322 64.5187 423.551 70.3982 436.407 68.7396C436.22 65.1322 434.176 69.0661 432.599 67.7129C432.465 64.1922 434.095 66.0003 434.683 64.6112C434.937 62.2102 437.102 65.5484 436.795 61.4888C431.85 59.3064 426.959 61.1625 420.717 61.4888C418.298 61.6535 414.851 61.5277 410.574 61.4888H408.462H405.696C398.386 60.8033 390.848 60.3903 382.99 59.3993H381.921C376.374 59.6867 372.579 57.07 367.621 61.4888ZM204.467 160.424C200.578 160.693 196.943 162.1 193.642 161.454L191.196 162.48C189.967 162.627 189.927 166.322 188.39 165.618C185.356 166.899 182.135 164.645 178.968 164.591C174.491 164.519 169.599 167.043 164.975 165.618C152.199 167.926 138.687 172.079 125.844 177.093C113.696 183.422 98.7142 184.919 86.3789 187.517C70.689 195.78 104.308 196.897 86.5736 194.804C78.6084 191.628 69.895 191.484 63.1727 181.239C61.6491 180.988 60.6334 179.15 58.9895 179.15C52.6681 164.699 43.1257 159.705 38.3947 140.638C37.4458 127.343 35.2144 113.799 36.2835 97.9619L38.0209 90.6722C38.8628 89.0136 38.9426 85.0469 40.1321 84.3973C40.4929 80.3737 41.9766 77.7241 42.5512 76.0445L43.2727 75.0356V72.9072H43.9948V70.8505L44.6629 69.8234L46.0396 64.6112C48.071 57.7166 50.169 51.1904 51.9732 43.7598C53.6972 40.8918 55.5145 38.2392 56.9044 34.3593C59.0828 32.9193 60.6334 29.5275 62.8386 28.1384C66.7276 23.9741 70.6299 22.4204 74.6927 19.8188C86.4267 16.2263 98.0804 25.8811 61.9218 31.2579C66.7731 29.0934 71.7182 25.3422 76.6363 22.9412C79.1622 21.6958 81.7279 21.2318 84.3073 19.8188C86.7931 18.4117 89.1187 16.5855 91.6045 15.6275C102.122 11.7356 112.426 9.22061 123.425 9.40024C125.897 10.6576 128.45 11.6755 130.762 13.5915C137.351 14.9087 140.398 14.7294 145.784 19.8188C149.352 16.6154 153.923 16.2859 156.582 10.448C171.337 3.38276 182.282 0.898121 195.727 2.09563C197.371 -8.34465e-06 200.471 2.33514 202.008 0C205.349 1.88607 210.027 1.6765 212.526 3.14345L214.945 7.3046C223.084 8.68173 230.889 11.1966 239.415 11.4661L240.819 9.40024C243.732 5.77778 246.846 11.0767 248.837 13.5915C251.096 13.4119 252.66 15.2982 254.785 15.6275C255.145 12.993 253.127 11.6158 254.785 11.4661C255.947 12.1247 258.019 10.119 258.62 12.4841C259.836 13.3522 260.237 16.7052 261.747 16.6753C263.832 17.4836 264.581 17.4836 266.652 16.6753L270.154 21.8784C276.595 21.6958 284.093 21.9892 291.79 21.8784C302.455 21.7886 314.443 22.9802 322.168 21.8784C324.48 21.5372 326.832 23.034 328.81 21.8784C330.481 22.115 330.387 24.5668 331.964 22.9412C336.094 23.8633 340.036 25.2374 344.554 24.9979C350.314 27.9588 356.488 27.815 362.368 29.1681C368.516 30.6111 373.501 32.3954 379.127 32.2876L380.183 33.3685C381.533 31.8536 380.263 38.0208 381.587 36.473H383.698L384.727 39.5896C406.097 46.14 426.25 45.4152 445.161 46.8972H447.273C462.335 44.1728 478.358 49.2563 494.062 47.9061C498.084 52.9416 505.609 47.6007 510.139 51.0645C508.201 51.8728 506.25 52.5973 504.54 54.181C494.824 54.2558 482.475 59.4503 471.716 60.4083L469.965 59.3993C462.708 60.1388 457.67 60.064 450.414 60.4083C448.743 62.1596 448.061 64.6801 446.591 64.6112C445.215 63.7101 446.003 69.1379 444.466 67.7129L442.047 69.8234C460.517 74.5835 479.174 74.2213 500.691 77.1073C501.96 79.9783 504.58 78.7331 506.277 80.23C522.141 79.5085 536.226 83.8913 553.132 85.3702C551.074 90.783 546.05 87.0107 542.989 89.5913C539.608 89.5913 536.226 89.5913 532.845 89.5913C532.404 92.8545 530.868 86.9599 530.734 91.684C536.227 91.8996 541.091 91.3038 545.796 91.684C546.905 91.4475 546.33 96.2643 547.519 95.8692C548.802 95.0219 549.457 98.3929 550.326 95.8692C549.805 91.6839 548.134 97.2405 548.214 91.684C549.845 91.684 551.462 91.684 553.132 91.684C553.734 93.3067 553.734 96.8093 554.87 96.8781C557.636 95.022 559.227 98.339 562.207 95.8692C561.78 93.2885 559.654 95.7975 559.748 91.684C564.425 92.0792 566.831 90.7829 570.239 91.684C570.56 95.7975 568.275 92.097 568.489 95.8692C575.251 98.9378 581.505 97.42 589.791 97.9619C591.235 97.1865 590.994 101.279 592.584 100.019C598.211 99.7642 603.49 101.351 608.649 102.072L609.384 101.081L611.455 102.072C617.296 103.354 622.494 102.36 627.159 106.258C627.787 103.881 629.844 105.895 631.007 105.213C632.29 106.584 634.188 106.171 635.578 107.302C637.315 107.302 639.04 107.302 640.79 107.302C641.712 109.85 644.546 106.545 645 110.443C637.997 111.2 631.836 110.676 623.697 111.434C623.804 113.961 622.08 110.874 622.641 114.592L621.585 115.655C617.429 117.263 613.166 115.511 608.315 117.733L606.911 122.924C604.292 120.49 601.365 124.747 597.837 125.034C595.311 124.546 590.58 125.705 587.693 125.034C584.766 127.001 580.676 125.648 577.215 126.047L575.117 129.202C574.248 130.067 572.711 128.876 572.685 132.286C574.021 132.519 575.251 132.324 576.2 131.258C576.788 133.603 578.859 131.6 578.966 135.447C567.94 139.827 554.496 131.585 544.726 138.563C545.929 138.563 547.413 141.539 549.27 139.608L551.034 143.776C552.518 143.85 553.573 145.165 554.87 145.85C569.116 144.733 580.516 145.814 596.073 146.898L598.906 148.973H601.672C602.621 150.269 603.543 151.751 604.826 152.107C619.22 150.901 630.339 148.991 643.249 152.107C643.115 155.499 641.538 154.637 640.443 155.212C638.692 156.676 638.612 153.101 637.315 153.122C635.765 154.637 635.083 152.634 633.119 153.122C624.606 159.089 614.876 158.17 605.521 159.379C597.115 160.46 589.337 159.379 581.425 160.424C573.099 161.489 564.88 161.307 556.607 161.454C539.086 161.762 521.994 163.762 505.609 165.618C504.099 165.549 503.163 163.909 501.412 164.591C499.755 164.792 502.04 170.202 500.383 169.821C497.897 169.785 495.371 169.459 493.727 171.899C496.347 174.659 500.41 175.923 502.468 175.033L503.858 176.027L506.998 175.033C510.861 174.315 518.104 174.982 521.659 173.953C525.949 172.761 530.774 172.707 535.652 172.908C537.015 173.626 538.271 172.818 539.861 172.908C545.822 173.306 552.13 173.737 558.358 172.908H560.096L558.719 173.953C557.423 173.953 556.126 173.953 554.87 173.953C551.863 175.144 548.856 176.135 545.421 176.027C544.058 176.767 543.256 179.344 541.933 180.213H539.474L538.419 179.15L537.737 180.213C536.975 180.374 535.919 180.12 534.596 180.213C534.142 178.174 532.752 182.305 532.511 178.117L534.248 175.033C530.587 174.171 528.007 176.497 524.466 176.027C523.397 176.371 522.461 176.009 521.312 176.027C519.454 176.117 517.316 177.485 515.044 178.117L512.585 179.15L511.903 178.117C509.457 178.662 507.146 179.237 504.54 179.15C502.241 179.111 499.808 178.806 497.55 179.15C496.347 179.345 495.371 183.512 494.436 181.239C493.661 183.838 492.431 185.009 491.269 186.452C497.964 188.58 505.729 186.398 512.946 186.452C516.394 186.508 519.908 187.948 523.397 187.517C540.249 185.209 557.904 187.011 575.825 186.452C576.988 186.526 578.284 186.056 578.284 189.574C575.692 190.475 573.139 190.095 570.56 190.64C568.181 191.143 565.615 192.46 563.945 192.748L562.554 191.628C557.155 192.334 551.489 192.748 545.796 192.748C534.315 192.748 523.49 194.517 511.903 194.804C498.993 195.131 487.794 194.373 475.218 195.831C473.173 196.068 471.128 196.681 468.936 196.858L467.52 195.831C463.444 198.265 460.062 197.202 457.737 196.858C452.351 196.136 448.703 196.136 444.814 195.831C439.695 195.436 435.9 196.858 432.224 196.858C428.402 196.858 424.54 194.987 419.648 196.858C417.71 195.4 415.011 196.122 413.006 194.804C407.874 196.897 402.555 196.157 397.29 196.858C393.027 197.439 388.884 199.962 384.727 199.998C380.09 200.073 375.145 197.526 370.387 197.96C367.246 194.93 364.774 194.173 362.368 190.64C359.254 188.511 356.301 185.841 352.92 184.362C351.517 182.61 350.768 179.057 349.445 177.093C343.338 171.68 336.054 169.753 329.198 166.687C324.895 160.729 319.696 157.466 315.927 149.981L314.149 148.973C302.79 149.943 287.594 153.392 276.421 152.107C274.417 151.856 272.319 152.721 270.488 152.107C268.51 151.425 266.773 148.428 264.915 147.922L262.79 146.898C264.474 147.021 266.091 146.97 266.986 144.823C265.703 144.138 264.634 142.785 263.15 142.692L260.01 140.638C258.139 137.318 254.918 135.082 252.686 138.563C255.667 142.497 258.567 146.697 262.469 147.922C257.751 151.026 250.708 152.308 243.906 149.981C241.5 153.445 238.252 151.476 235.219 152.107C232.185 152.67 230.22 152.038 227.868 152.107C220.905 152.254 214.41 156.041 209.693 154.167C208.049 154.834 206.619 155.122 204.12 155.212C202.997 157.197 200.498 152.472 199.923 158.352C208.463 157.954 216.509 158.295 223.338 158.352L225.757 157.301C229.686 157.25 233.963 157.628 237.638 157.301C239.282 157.125 241.286 154.257 242.556 158.352C230.889 159.903 216.856 159.597 204.467 160.424Z" fill="url(#paint1_diamond_53_144)"/>
<defs>
<radialGradient id="paint0_diamond_53_144" cx="0" cy="0" r="1" gradientUnits="userSpaceOnUse" gradientTransform="translate(294.5 366.5) rotate(90) scale(98.5 309.5)">
<stop stop-color="white"/>
<stop offset="1" stop-color="white" stop-opacity="0.31"/>
</radialGradient>
<radialGradient id="paint1_diamond_53_144" cx="0" cy="0" r="1" gradientUnits="userSpaceOnUse" gradientTransform="translate(294 132.5) rotate(-100.437) scale(154.557 413.532)">
<stop stop-color="white"/>
<stop offset="1" stop-color="white" stop-opacity="0.12"/>
</radialGradient>
</defs>
</svg>
